{"glyphs":{"0":{"ha":550,"x_min":43,"x_max":507,"o":"m 43 739 q 103 919 43 856 q 275 983 163 983 q 447 919 388 983 q 507 739 507 856 l 507 233 q 447 53 507 117 q 275 -11 388 -11 q 103 53 163 -11 q 43 233 43 117 l 43 739 m 196 224 q 275 128 196 128 q 354 224 354 128 l 354 749 q 275 844 354 844 q 196 749 196 844 l 196 224 z "},"1":{"ha":550,"x_min":150,"x_max":421,"o":"m 150 850 q 238 866 206 850 q 287 907 271 882 q 318 972 303 932 l 421 972 l 421 0 l 268 0 l 268 742 l 150 742 l 150 850 z "},"2":{"ha":550,"x_min":56,"x_max":511,"o":"m 358 733 q 338 820 358 796 q 279 844 318 844 q 200 749 200 844 l 200 644 l 56 644 l 56 739 q 114 920 56 857 q 283 983 172 983 q 453 920 394 983 q 511 739 511 857 q 484 588 511 657 q 419 469 457 519 q 322 354 382 419 q 235 246 263 288 q 207 160 207 204 q 208 139 207 146 l 497 139 l 497 0 l 56 0 l 56 119 q 76 241 56 188 q 128 335 97 294 q 208 429 158 375 q 289 524 260 486 q 338 615 318 563 q 358 733 358 668 z "},"3":{"ha":550,"x_min":47,"x_max":503,"o":"m 350 733 q 330 820 350 796 q 271 844 310 844 q 192 749 192 844 l 192 686 l 47 686 l 47 739 q 106 920 47 857 q 275 983 164 983 q 444 920 386 983 q 503 739 503 857 l 503 714 q 476 585 503 635 q 396 514 450 536 q 503 310 503 467 l 503 233 q 444 52 503 115 q 275 -11 386 -11 q 106 52 164 -11 q 47 233 47 115 l 47 314 l 192 314 l 192 224 q 271 128 192 128 q 330 152 310 128 q 350 238 350 176 l 350 314 q 326 409 350 381 q 250 438 303 438 l 199 438 l 199 576 l 258 576 q 327 600 304 576 q 350 679 350 624 l 350 733 z "},"4":{"ha":550,"x_min":19,"x_max":536,"o":"m 297 972 l 464 972 l 464 315 l 536 315 l 536 176 l 464 176 l 464 0 l 314 0 l 314 176 l 19 176 l 19 315 l 297 972 m 314 681 l 160 315 l 314 315 l 314 681 z "},"5":{"ha":550,"x_min":49,"x_max":504,"o":"m 193 224 q 272 129 193 129 q 351 224 351 129 l 351 438 q 272 533 351 533 q 193 438 193 533 l 193 408 l 49 408 l 76 972 l 479 972 l 479 833 l 214 833 l 201 601 q 335 672 244 672 q 461 615 418 672 q 504 450 504 558 l 504 233 q 446 52 504 115 q 276 -11 388 -11 q 107 52 165 -11 q 49 233 49 115 l 49 314 l 193 314 l 193 224 z "},"6":{"ha":550,"x_min":46,"x_max":510,"o":"m 46 731 q 279 983 46 983 q 449 920 390 983 q 507 739 507 857 l 507 714 l 363 714 l 363 749 q 283 844 363 844 q 219 818 240 844 q 199 725 199 792 l 199 547 q 340 633 239 633 q 467 576 424 633 q 510 411 510 519 l 510 233 q 450 53 510 117 q 278 -11 390 -11 q 106 53 165 -11 q 46 233 46 117 l 46 731 m 278 494 q 199 399 199 494 l 199 224 q 278 129 199 129 q 357 224 357 129 l 357 399 q 278 494 357 494 z "},"7":{"ha":550,"x_min":46,"x_max":504,"o":"m 504 839 l 279 0 l 126 0 l 350 833 l 46 833 l 46 972 l 504 972 l 504 839 z "},"8":{"ha":550,"x_min":36,"x_max":514,"o":"m 514 233 q 452 53 514 117 q 275 -11 390 -11 q 98 53 160 -11 q 36 233 36 117 l 36 310 q 131 513 36 460 q 36 708 36 564 l 36 739 q 98 919 36 856 q 275 983 160 983 q 452 919 390 983 q 514 739 514 856 l 514 708 q 419 513 514 565 q 514 310 514 460 l 514 233 m 189 679 q 275 576 189 576 q 361 679 361 576 l 361 733 q 338 819 361 794 q 275 844 315 844 q 212 819 235 844 q 189 733 189 794 l 189 679 m 189 238 q 212 153 189 178 q 275 128 235 128 q 338 152 315 128 q 361 238 360 176 l 361 328 q 275 438 361 438 q 189 328 189 438 l 189 238 z "},"9":{"ha":550,"x_min":40,"x_max":504,"o":"m 504 242 q 271 -11 504 -11 q 101 52 160 -11 q 43 233 43 115 l 43 258 l 188 258 l 188 224 q 267 128 188 128 q 331 154 310 128 q 351 247 351 181 l 351 425 q 210 339 311 339 q 83 396 126 339 q 40 561 40 453 l 40 739 q 100 919 40 856 q 272 983 160 983 q 444 919 385 983 q 504 739 504 856 l 504 242 m 272 478 q 351 574 351 478 l 351 749 q 272 843 351 843 q 193 749 193 843 l 193 574 q 272 478 193 478 z "}," ":{"ha":215,"x_min":0,"x_max":0,"o":""},"A":{"ha":565,"x_min":15,"x_max":550,"o":"m 396 0 l 369 176 l 182 176 l 156 0 l 15 0 l 171 972 l 394 972 l 550 0 l 396 0 m 349 308 l 275 800 l 201 308 l 349 308 z "},"Á":{"ha":565,"x_min":15,"x_max":550,"o":"m 304 1024 l 201 1024 l 296 1178 l 446 1178 l 304 1024 m 396 0 l 369 176 l 182 176 l 156 0 l 15 0 l 171 972 l 394 972 l 550 0 l 396 0 m 349 308 l 275 800 l 201 308 l 349 308 z "},"Ă":{"ha":565,"x_min":15,"x_max":550,"o":"m 438 1178 q 397 1060 438 1103 q 281 1018 357 1018 q 166 1060 204 1018 q 126 1178 128 1103 l 217 1178 q 235 1126 219 1140 q 281 1113 250 1113 q 328 1126 313 1113 q 347 1178 344 1140 l 438 1178 m 396 0 l 369 176 l 182 176 l 156 0 l 15 0 l 171 972 l 394 972 l 550 0 l 396 0 m 349 308 l 275 800 l 201 308 l 349 308 z "},"Â":{"ha":565,"x_min":15,"x_max":550,"o":"m 214 1178 l 351 1178 l 475 1024 l 344 1024 l 282 1100 l 221 1024 l 90 1024 l 214 1178 m 396 0 l 369 176 l 182 176 l 156 0 l 15 0 l 171 972 l 394 972 l 550 0 l 396 0 m 349 308 l 275 800 l 201 308 l 349 308 z "},"Ä":{"ha":565,"x_min":15,"x_max":550,"o":"m 243 1024 l 110 1024 l 110 1157 l 243 1157 l 243 1024 m 454 1024 l 321 1024 l 321 1157 l 454 1157 l 454 1024 m 396 0 l 369 176 l 182 176 l 156 0 l 15 0 l 171 972 l 394 972 l 550 0 l 396 0 m 349 308 l 275 800 l 201 308 l 349 308 z "},"À":{"ha":565,"x_min":15,"x_max":550,"o":"m 367 1024 l 257 1024 l 115 1178 l 272 1178 l 367 1024 m 396 0 l 369 176 l 182 176 l 156 0 l 15 0 l 171 972 l 394 972 l 550 0 l 396 0 m 349 308 l 275 800 l 201 308 l 349 308 z "},"Ā":{"ha":565,"x_min":15,"x_max":550,"o":"m 442 1029 l 122 1029 l 122 1138 l 442 1138 l 442 1029 m 396 0 l 369 176 l 182 176 l 156 0 l 15 0 l 171 972 l 394 972 l 550 0 l 396 0 m 349 308 l 275 800 l 201 308 l 349 308 z "},"Ą":{"ha":565,"x_min":15,"x_max":550,"o":"m 493 0 q 451 -81 451 -35 q 465 -109 451 -99 q 500 -119 479 -119 q 534 -116 522 -119 q 550 -111 546 -112 l 550 -189 q 506 -201 526 -199 q 456 -204 486 -204 q 367 -182 399 -204 q 335 -118 335 -160 q 400 -17 335 -60 l 369 176 l 182 176 l 156 0 l 15 0 l 171 972 l 394 972 l 550 0 l 493 0 m 349 308 l 275 800 l 201 308 l 349 308 z "},"Å":{"ha":565,"x_min":15,"x_max":550,"o":"m 171 1131 q 203 1210 171 1178 q 282 1242 235 1242 q 361 1210 329 1242 q 393 1131 393 1178 q 361 1051 393 1083 q 282 1019 329 1019 q 203 1051 235 1019 q 171 1131 171 1083 m 240 1131 q 252 1101 240 1113 q 282 1089 264 1089 q 312 1101 300 1089 q 324 1131 324 1113 q 312 1160 324 1149 q 282 1172 300 1172 q 252 1160 264 1172 q 240 1131 240 1149 m 396 0 l 369 176 l 182 176 l 156 0 l 15 0 l 171 972 l 394 972 l 550 0 l 396 0 m 349 308 l 275 800 l 201 308 l 349 308 z "},"Ã":{"ha":565,"x_min":15,"x_max":550,"o":"m 338 1129 q 372 1138 358 1129 q 397 1169 386 1146 l 471 1118 q 353 1024 436 1024 q 316 1028 332 1024 q 279 1043 300 1033 q 228 1058 249 1058 q 193 1050 207 1058 q 168 1018 179 1042 l 94 1069 q 213 1164 129 1164 q 249 1159 233 1164 q 286 1144 265 1154 q 338 1129 317 1129 m 396 0 l 369 176 l 182 176 l 156 0 l 15 0 l 171 972 l 394 972 l 550 0 l 396 0 m 349 308 l 275 800 l 201 308 l 349 308 z "},"Æ":{"ha":806,"x_min":6,"x_max":767,"o":"m 196 176 l 151 0 l 6 0 l 265 972 l 767 972 l 767 833 l 503 833 l 503 563 l 713 563 l 713 424 l 503 424 l 503 139 l 767 139 l 767 0 l 350 0 l 350 176 l 196 176 m 350 776 l 231 308 l 350 308 l 350 776 z "},"Ǽ":{"ha":806,"x_min":6,"x_max":767,"o":"m 425 1024 l 322 1024 l 417 1178 l 567 1178 l 425 1024 m 196 176 l 151 0 l 6 0 l 265 972 l 767 972 l 767 833 l 503 833 l 503 563 l 713 563 l 713 424 l 503 424 l 503 139 l 767 139 l 767 0 l 350 0 l 350 176 l 196 176 m 350 776 l 231 308 l 350 308 l 350 776 z "},"B":{"ha":564,"x_min":56,"x_max":528,"o":"m 286 972 q 458 917 404 972 q 513 749 513 863 l 513 714 q 488 590 513 639 q 414 518 464 542 q 528 310 528 474 l 528 231 q 469 59 528 118 q 296 0 410 0 l 56 0 l 56 972 l 286 972 m 208 576 l 268 576 q 337 600 314 576 q 360 679 360 624 l 360 733 q 341 810 360 786 q 282 833 322 833 l 208 833 l 208 576 m 208 139 l 296 139 q 356 160 336 139 q 375 235 375 182 l 375 319 q 352 412 375 386 q 276 438 329 438 l 208 438 l 208 139 z "},"C":{"ha":536,"x_min":43,"x_max":499,"o":"m 499 233 q 440 52 499 115 q 271 -11 382 -11 q 101 52 160 -11 q 43 233 43 115 l 43 739 q 101 920 43 857 q 271 983 160 983 q 440 920 382 983 q 499 739 499 857 l 499 644 l 354 644 l 354 749 q 275 844 354 844 q 196 749 196 844 l 196 224 q 275 129 196 129 q 354 224 354 129 l 354 363 l 499 363 l 499 233 z "},"Ć":{"ha":536,"x_min":43,"x_max":499,"o":"m 293 1024 l 190 1024 l 285 1178 l 435 1178 l 293 1024 m 499 233 q 440 52 499 115 q 271 -11 382 -11 q 101 52 160 -11 q 43 233 43 115 l 43 739 q 101 920 43 857 q 271 983 160 983 q 440 920 382 983 q 499 739 499 857 l 499 644 l 354 644 l 354 749 q 275 844 354 844 q 196 749 196 844 l 196 224 q 275 129 196 129 q 354 224 354 129 l 354 363 l 499 363 l 499 233 z "},"Č":{"ha":536,"x_min":43,"x_max":499,"o":"m 269 1100 l 332 1178 l 463 1178 l 339 1024 l 201 1024 l 78 1178 l 208 1178 l 269 1100 m 499 233 q 440 52 499 115 q 271 -11 382 -11 q 101 52 160 -11 q 43 233 43 115 l 43 739 q 101 920 43 857 q 271 983 160 983 q 440 920 382 983 q 499 739 499 857 l 499 644 l 354 644 l 354 749 q 275 844 354 844 q 196 749 196 844 l 196 224 q 275 129 196 129 q 354 224 354 129 l 354 363 l 499 363 l 499 233 z "},"Ç":{"ha":536,"x_min":43,"x_max":499,"o":"m 499 233 q 448 62 499 125 q 301 -10 397 -1 l 301 -54 q 379 -69 354 -54 q 404 -119 404 -83 q 369 -187 404 -171 q 264 -204 335 -204 q 165 -186 200 -204 q 131 -124 131 -168 l 131 -110 l 233 -110 l 233 -121 q 242 -142 233 -135 q 264 -149 251 -149 q 299 -115 299 -149 q 286 -87 299 -96 q 249 -79 274 -79 l 235 -79 l 235 -8 q 92 63 140 1 q 43 233 43 125 l 43 739 q 101 920 43 857 q 271 983 160 983 q 440 920 382 983 q 499 739 499 857 l 499 644 l 354 644 l 354 749 q 275 844 354 844 q 196 749 196 844 l 196 224 q 275 129 196 129 q 354 224 354 129 l 354 363 l 499 363 l 499 233 z "},"Ĉ":{"ha":536,"x_min":43,"x_max":499,"o":"m 201 1178 l 339 1178 l 463 1024 l 332 1024 l 269 1100 l 208 1024 l 78 1024 l 201 1178 m 499 233 q 440 52 499 115 q 271 -11 382 -11 q 101 52 160 -11 q 43 233 43 115 l 43 739 q 101 920 43 857 q 271 983 160 983 q 440 920 382 983 q 499 739 499 857 l 499 644 l 354 644 l 354 749 q 275 844 354 844 q 196 749 196 844 l 196 224 q 275 129 196 129 q 354 224 354 129 l 354 363 l 499 363 l 499 233 z "},"Ċ":{"ha":536,"x_min":43,"x_max":499,"o":"m 338 1024 l 204 1024 l 204 1157 l 338 1157 l 338 1024 m 499 233 q 440 52 499 115 q 271 -11 382 -11 q 101 52 160 -11 q 43 233 43 115 l 43 739 q 101 920 43 857 q 271 983 160 983 q 440 920 382 983 q 499 739 499 857 l 499 644 l 354 644 l 354 749 q 275 844 354 844 q 196 749 196 844 l 196 224 q 275 129 196 129 q 354 224 354 129 l 354 363 l 499 363 l 499 233 z "},"D":{"ha":567,"x_min":56,"x_max":525,"o":"m 297 972 q 468 911 411 972 q 525 732 525 850 l 525 240 q 468 61 525 122 q 297 0 411 0 l 56 0 l 56 972 l 297 972 m 208 139 l 294 139 q 352 161 332 139 q 372 233 372 183 l 372 739 q 352 811 372 789 q 294 833 332 833 l 208 833 l 208 139 z "},"Ð":{"ha":567,"x_min":6,"x_max":525,"o":"m 6 424 l 6 549 l 56 549 l 56 972 l 297 972 q 468 911 411 972 q 525 732 525 850 l 525 240 q 468 61 525 122 q 297 0 411 0 l 56 0 l 56 424 l 6 424 m 208 549 l 303 549 l 303 424 l 208 424 l 208 139 l 294 139 q 352 161 332 139 q 372 233 372 183 l 372 739 q 352 811 372 789 q 294 833 332 833 l 208 833 l 208 549 z "},"Ď":{"ha":567,"x_min":56,"x_max":525,"o":"m 269 1100 l 332 1178 l 463 1178 l 339 1024 l 201 1024 l 78 1178 l 208 1178 l 269 1100 m 297 972 q 468 911 411 972 q 525 732 525 850 l 525 240 q 468 61 525 122 q 297 0 411 0 l 56 0 l 56 972 l 297 972 m 208 139 l 294 139 q 352 161 332 139 q 372 233 372 183 l 372 739 q 352 811 372 789 q 294 833 332 833 l 208 833 l 208 139 z "},"Đ":{"ha":567,"x_min":6,"x_max":525,"o":"m 6 424 l 6 549 l 56 549 l 56 972 l 297 972 q 468 911 411 972 q 525 732 525 850 l 525 240 q 468 61 525 122 q 297 0 411 0 l 56 0 l 56 424 l 6 424 m 208 549 l 303 549 l 303 424 l 208 424 l 208 139 l 294 139 q 352 161 332 139 q 372 233 372 183 l 372 739 q 352 811 372 789 q 294 833 332 833 l 208 833 l 208 549 z "},"E":{"ha":511,"x_min":56,"x_max":472,"o":"m 418 563 l 418 424 l 208 424 l 208 139 l 472 139 l 472 0 l 56 0 l 56 972 l 472 972 l 472 833 l 208 833 l 208 563 l 418 563 z "},"É":{"ha":511,"x_min":56,"x_max":472,"o":"m 285 1024 l 182 1024 l 276 1178 l 426 1178 l 285 1024 m 418 563 l 418 424 l 208 424 l 208 139 l 472 139 l 472 0 l 56 0 l 56 972 l 472 972 l 472 833 l 208 833 l 208 563 l 418 563 z "},"Ĕ":{"ha":511,"x_min":56,"x_max":472,"o":"m 417 1178 q 376 1060 417 1103 q 260 1018 336 1018 q 145 1060 183 1018 q 106 1178 107 1103 l 196 1178 q 214 1126 199 1140 q 260 1113 229 1113 q 308 1126 292 1113 q 326 1178 324 1140 l 417 1178 m 418 563 l 418 424 l 208 424 l 208 139 l 472 139 l 472 0 l 56 0 l 56 972 l 472 972 l 472 833 l 208 833 l 208 563 l 418 563 z "},"Ě":{"ha":511,"x_min":56,"x_max":472,"o":"m 260 1100 l 322 1178 l 453 1178 l 329 1024 l 192 1024 l 68 1178 l 199 1178 l 260 1100 m 418 563 l 418 424 l 208 424 l 208 139 l 472 139 l 472 0 l 56 0 l 56 972 l 472 972 l 472 833 l 208 833 l 208 563 l 418 563 z "},"Ê":{"ha":511,"x_min":56,"x_max":472,"o":"m 193 1178 l 331 1178 l 454 1024 l 324 1024 l 261 1100 l 200 1024 l 69 1024 l 193 1178 m 418 563 l 418 424 l 208 424 l 208 139 l 472 139 l 472 0 l 56 0 l 56 972 l 472 972 l 472 833 l 208 833 l 208 563 l 418 563 z "},"Ë":{"ha":511,"x_min":56,"x_max":472,"o":"m 224 1024 l 90 1024 l 90 1157 l 224 1157 l 224 1024 m 435 1024 l 301 1024 l 301 1157 l 435 1157 l 435 1024 m 418 563 l 418 424 l 208 424 l 208 139 l 472 139 l 472 0 l 56 0 l 56 972 l 472 972 l 472 833 l 208 833 l 208 563 l 418 563 z "},"Ė":{"ha":511,"x_min":56,"x_max":472,"o":"m 328 1024 l 194 1024 l 194 1157 l 328 1157 l 328 1024 m 418 563 l 418 424 l 208 424 l 208 139 l 472 139 l 472 0 l 56 0 l 56 972 l 472 972 l 472 833 l 208 833 l 208 563 l 418 563 z "},"È":{"ha":511,"x_min":56,"x_max":472,"o":"m 346 1024 l 236 1024 l 94 1178 l 251 1178 l 346 1024 m 418 563 l 418 424 l 208 424 l 208 139 l 472 139 l 472 0 l 56 0 l 56 972 l 472 972 l 472 833 l 208 833 l 208 563 l 418 563 z "},"Ē":{"ha":511,"x_min":56,"x_max":472,"o":"m 421 1029 l 101 1029 l 101 1138 l 421 1138 l 421 1029 m 418 563 l 418 424 l 208 424 l 208 139 l 472 139 l 472 0 l 56 0 l 56 972 l 472 972 l 472 833 l 208 833 l 208 563 l 418 563 z "},"Ę":{"ha":511,"x_min":56,"x_max":472,"o":"m 418 563 l 418 424 l 208 424 l 208 139 l 472 139 l 472 0 l 415 0 q 374 -81 374 -35 q 388 -109 374 -99 q 422 -119 401 -119 q 456 -116 444 -119 q 472 -111 468 -112 l 472 -189 q 428 -201 449 -199 q 378 -204 408 -204 q 289 -182 321 -204 q 257 -118 257 -160 q 281 -54 257 -85 q 350 0 304 -24 l 56 0 l 56 972 l 472 972 l 472 833 l 208 833 l 208 563 l 418 563 z "},"F":{"ha":478,"x_min":56,"x_max":460,"o":"m 406 540 l 406 401 l 208 401 l 208 0 l 56 0 l 56 972 l 460 972 l 460 833 l 208 833 l 208 540 l 406 540 z "},"G":{"ha":542,"x_min":43,"x_max":499,"o":"m 499 542 l 499 233 q 440 52 499 115 q 271 -11 382 -11 q 101 52 160 -11 q 43 233 43 115 l 43 739 q 101 920 43 857 q 271 983 160 983 q 440 920 382 983 q 499 739 499 857 l 499 644 l 354 644 l 354 749 q 275 844 354 844 q 196 749 196 844 l 196 224 q 275 129 196 129 q 354 224 354 129 l 354 403 l 285 403 l 285 542 l 499 542 z "},"Ğ":{"ha":542,"x_min":43,"x_max":499,"o":"m 425 1178 q 385 1060 425 1103 q 268 1018 344 1018 q 153 1060 192 1018 q 114 1178 115 1103 l 204 1178 q 222 1126 207 1140 q 268 1113 238 1113 q 316 1126 300 1113 q 335 1178 332 1140 l 425 1178 m 499 542 l 499 233 q 440 52 499 115 q 271 -11 382 -11 q 101 52 160 -11 q 43 233 43 115 l 43 739 q 101 920 43 857 q 271 983 160 983 q 440 920 382 983 q 499 739 499 857 l 499 644 l 354 644 l 354 749 q 275 844 354 844 q 196 749 196 844 l 196 224 q 275 129 196 129 q 354 224 354 129 l 354 403 l 285 403 l 285 542 l 499 542 z "},"Ĝ":{"ha":542,"x_min":43,"x_max":499,"o":"m 201 1178 l 339 1178 l 463 1024 l 332 1024 l 269 1100 l 208 1024 l 78 1024 l 201 1178 m 499 542 l 499 233 q 440 52 499 115 q 271 -11 382 -11 q 101 52 160 -11 q 43 233 43 115 l 43 739 q 101 920 43 857 q 271 983 160 983 q 440 920 382 983 q 499 739 499 857 l 499 644 l 354 644 l 354 749 q 275 844 354 844 q 196 749 196 844 l 196 224 q 275 129 196 129 q 354 224 354 129 l 354 403 l 285 403 l 285 542 l 499 542 z "},"Ġ":{"ha":542,"x_min":43,"x_max":499,"o":"m 336 1024 l 203 1024 l 203 1157 l 336 1157 l 336 1024 m 499 542 l 499 233 q 440 52 499 115 q 271 -11 382 -11 q 101 52 160 -11 q 43 233 43 115 l 43 739 q 101 920 43 857 q 271 983 160 983 q 440 920 382 983 q 499 739 499 857 l 499 644 l 354 644 l 354 749 q 275 844 354 844 q 196 749 196 844 l 196 224 q 275 129 196 129 q 354 224 354 129 l 354 403 l 285 403 l 285 542 l 499 542 z "},"H":{"ha":593,"x_min":56,"x_max":538,"o":"m 56 0 l 56 972 l 208 972 l 208 556 l 382 556 l 382 972 l 538 972 l 538 0 l 382 0 l 382 417 l 208 417 l 208 0 l 56 0 z "},"Ħ":{"ha":607,"x_min":14,"x_max":593,"o":"m 63 0 l 63 697 l 14 697 l 14 811 l 63 811 l 63 972 l 215 972 l 215 811 l 389 811 l 389 972 l 544 972 l 544 811 l 593 811 l 593 697 l 544 697 l 544 0 l 389 0 l 389 417 l 215 417 l 215 0 l 63 0 m 389 697 l 215 697 l 215 556 l 389 556 l 389 697 z "},"Ĥ":{"ha":593,"x_min":56,"x_max":538,"o":"m 228 1178 l 365 1178 l 489 1024 l 358 1024 l 296 1100 l 235 1024 l 104 1024 l 228 1178 m 56 0 l 56 972 l 208 972 l 208 556 l 382 556 l 382 972 l 538 972 l 538 0 l 382 0 l 382 417 l 208 417 l 208 0 l 56 0 z "},"I":{"ha":264,"x_min":56,"x_max":208,"o":"m 208 972 l 208 0 l 56 0 l 56 972 l 208 972 z "},"Ĳ":{"ha":619,"x_min":56,"x_max":571,"o":"m 208 972 l 208 0 l 56 0 l 56 972 l 208 972 m 278 139 q 331 138 294 138 q 395 158 372 138 q 418 231 418 178 l 418 972 l 571 972 l 571 242 q 351 -3 571 -3 q 278 0 303 -3 l 278 139 z "},"Í":{"ha":264,"x_min":51,"x_max":296,"o":"m 154 1024 l 51 1024 l 146 1178 l 296 1178 l 154 1024 m 208 972 l 208 0 l 56 0 l 56 972 l 208 972 z "},"Ĭ":{"ha":264,"x_min":-24,"x_max":288,"o":"m 288 1178 q 247 1060 288 1103 q 131 1018 207 1018 q 16 1060 54 1018 q -24 1178 -22 1103 l 67 1178 q 85 1126 69 1140 q 131 1113 100 1113 q 178 1126 163 1113 q 197 1178 194 1140 l 288 1178 m 208 972 l 208 0 l 56 0 l 56 972 l 208 972 z "},"Î":{"ha":264,"x_min":-60,"x_max":325,"o":"m 64 1178 l 201 1178 l 325 1024 l 194 1024 l 132 1100 l 71 1024 l -60 1024 l 64 1178 m 208 972 l 208 0 l 56 0 l 56 972 l 208 972 z "},"Ï":{"ha":264,"x_min":-40,"x_max":304,"o":"m 93 1024 l -40 1024 l -40 1157 l 93 1157 l 93 1024 m 304 1024 l 171 1024 l 171 1157 l 304 1157 l 304 1024 m 208 972 l 208 0 l 56 0 l 56 972 l 208 972 z "},"İ":{"ha":264,"x_min":56,"x_max":208,"o":"m 199 1024 l 65 1024 l 65 1157 l 199 1157 l 199 1024 m 208 972 l 208 0 l 56 0 l 56 972 l 208 972 z "},"Ì":{"ha":264,"x_min":-35,"x_max":217,"o":"m 217 1024 l 107 1024 l -35 1178 l 122 1178 l 217 1024 m 208 972 l 208 0 l 56 0 l 56 972 l 208 972 z "},"Ī":{"ha":264,"x_min":-28,"x_max":292,"o":"m 292 1029 l -28 1029 l -28 1138 l 292 1138 l 292 1029 m 208 972 l 208 0 l 56 0 l 56 972 l 208 972 z "},"Į":{"ha":264,"x_min":22,"x_max":238,"o":"m 208 972 l 208 0 l 181 0 q 139 -81 139 -35 q 153 -109 139 -99 q 188 -119 167 -119 q 222 -116 210 -119 q 238 -111 233 -112 l 238 -189 q 194 -201 214 -199 q 143 -204 174 -204 q 54 -182 86 -204 q 22 -118 22 -160 q 46 -54 22 -85 q 115 0 69 -24 l 56 0 l 56 972 l 208 972 z "},"Ĩ":{"ha":264,"x_min":-56,"x_max":321,"o":"m 188 1129 q 222 1138 208 1129 q 247 1169 236 1146 l 321 1118 q 203 1024 286 1024 q 166 1028 182 1024 q 129 1043 150 1033 q 78 1058 99 1058 q 43 1050 57 1058 q 18 1018 29 1042 l -56 1069 q 63 1164 -21 1164 q 99 1159 83 1164 q 136 1144 115 1154 q 188 1129 167 1129 m 208 972 l 208 0 l 56 0 l 56 972 l 208 972 z "},"J":{"ha":356,"x_min":14,"x_max":307,"o":"m 14 139 q 67 138 31 138 q 131 158 108 138 q 154 231 154 178 l 154 972 l 307 972 l 307 242 q 88 -3 307 -3 q 14 0 39 -3 l 14 139 z "},"Ĵ":{"ha":356,"x_min":13,"x_max":397,"o":"m 136 1178 l 274 1178 l 397 1024 l 267 1024 l 204 1100 l 143 1024 l 13 1024 l 136 1178 m 14 139 q 67 138 31 138 q 131 158 108 138 q 154 231 154 178 l 154 972 l 307 972 l 307 242 q 88 -3 307 -3 q 14 0 39 -3 l 14 139 z "},"K":{"ha":575,"x_min":56,"x_max":561,"o":"m 208 299 l 208 0 l 56 0 l 56 972 l 208 972 l 208 549 l 408 972 l 561 972 l 349 539 l 561 0 l 404 0 l 256 388 l 208 299 z "},"L":{"ha":471,"x_min":56,"x_max":460,"o":"m 208 972 l 208 139 l 460 139 l 460 0 l 56 0 l 56 972 l 208 972 z "},"Ĺ":{"ha":471,"x_min":56,"x_max":460,"o":"m 203 1024 l 100 1024 l 194 1178 l 344 1178 l 203 1024 m 208 972 l 208 139 l 460 139 l 460 0 l 56 0 l 56 972 l 208 972 z "},"Ľ":{"ha":471,"x_min":56,"x_max":460,"o":"m 208 972 l 208 139 l 460 139 l 460 0 l 56 0 l 56 972 l 208 972 m 293 972 l 440 972 l 440 840 l 374 686 l 311 686 l 351 825 l 293 825 l 293 972 z "},"Ŀ":{"ha":471,"x_min":56,"x_max":460,"o":"m 208 972 l 208 139 l 460 139 l 460 0 l 56 0 l 56 972 l 208 972 m 439 413 l 292 413 l 292 560 l 439 560 l 439 413 z "},"Ł":{"ha":483,"x_min":0,"x_max":472,"o":"m 68 343 l 68 972 l 221 972 l 221 507 l 389 688 l 389 549 l 221 368 l 221 139 l 472 139 l 472 0 l 68 0 l 68 204 l 0 132 l 0 271 l 68 343 z "},"M":{"ha":751,"x_min":54,"x_max":696,"o":"m 483 972 l 696 972 l 696 0 l 551 0 l 551 697 l 446 0 l 301 0 l 188 688 l 188 0 l 54 0 l 54 972 l 267 972 l 379 282 l 483 972 z "},"N":{"ha":593,"x_min":54,"x_max":539,"o":"m 192 0 l 54 0 l 54 972 l 246 972 l 403 390 l 403 972 l 539 972 l 539 0 l 382 0 l 192 704 l 192 0 z "},"Ń":{"ha":593,"x_min":54,"x_max":539,"o":"m 318 1024 l 215 1024 l 310 1178 l 460 1178 l 318 1024 m 192 0 l 54 0 l 54 972 l 246 972 l 403 390 l 403 972 l 539 972 l 539 0 l 382 0 l 192 704 l 192 0 z "},"Ň":{"ha":593,"x_min":54,"x_max":539,"o":"m 296 1100 l 358 1178 l 489 1178 l 365 1024 l 228 1024 l 104 1178 l 235 1178 l 296 1100 m 192 0 l 54 0 l 54 972 l 246 972 l 403 390 l 403 972 l 539 972 l 539 0 l 382 0 l 192 704 l 192 0 z "},"Ñ":{"ha":593,"x_min":54,"x_max":539,"o":"m 351 1129 q 386 1138 372 1129 q 411 1169 400 1146 l 485 1118 q 367 1024 450 1024 q 330 1028 346 1024 q 293 1043 314 1033 q 242 1058 263 1058 q 207 1050 221 1058 q 182 1018 193 1042 l 108 1069 q 226 1164 143 1164 q 263 1159 247 1164 q 300 1144 279 1154 q 351 1129 331 1129 m 192 0 l 54 0 l 54 972 l 246 972 l 403 390 l 403 972 l 539 972 l 539 0 l 382 0 l 192 704 l 192 0 z "},"O":{"ha":550,"x_min":43,"x_max":507,"o":"m 43 739 q 103 919 43 856 q 275 983 163 983 q 447 919 388 983 q 507 739 507 856 l 507 233 q 447 53 507 117 q 275 -11 388 -11 q 103 53 163 -11 q 43 233 43 117 l 43 739 m 196 224 q 275 128 196 128 q 354 224 354 128 l 354 749 q 275 844 354 844 q 196 749 196 844 l 196 224 z "},"Ó":{"ha":550,"x_min":43,"x_max":507,"o":"m 297 1024 l 194 1024 l 289 1178 l 439 1178 l 297 1024 m 43 739 q 103 919 43 856 q 275 983 163 983 q 447 919 388 983 q 507 739 507 856 l 507 233 q 447 53 507 117 q 275 -11 388 -11 q 103 53 163 -11 q 43 233 43 117 l 43 739 m 196 224 q 275 128 196 128 q 354 224 354 128 l 354 749 q 275 844 354 844 q 196 749 196 844 l 196 224 z "},"Ŏ":{"ha":550,"x_min":43,"x_max":507,"o":"m 431 1178 q 390 1060 431 1103 q 274 1018 350 1018 q 159 1060 197 1018 q 119 1178 121 1103 l 210 1178 q 228 1126 213 1140 q 274 1113 243 1113 q 322 1126 306 1113 q 340 1178 338 1140 l 431 1178 m 43 739 q 103 919 43 856 q 275 983 163 983 q 447 919 388 983 q 507 739 507 856 l 507 233 q 447 53 507 117 q 275 -11 388 -11 q 103 53 163 -11 q 43 233 43 117 l 43 739 m 196 224 q 275 128 196 128 q 354 224 354 128 l 354 749 q 275 844 354 844 q 196 749 196 844 l 196 224 z "},"Ô":{"ha":550,"x_min":43,"x_max":507,"o":"m 206 1178 l 343 1178 l 467 1024 l 336 1024 l 274 1100 l 213 1024 l 82 1024 l 206 1178 m 43 739 q 103 919 43 856 q 275 983 163 983 q 447 919 388 983 q 507 739 507 856 l 507 233 q 447 53 507 117 q 275 -11 388 -11 q 103 53 163 -11 q 43 233 43 117 l 43 739 m 196 224 q 275 128 196 128 q 354 224 354 128 l 354 749 q 275 844 354 844 q 196 749 196 844 l 196 224 z "},"Ö":{"ha":550,"x_min":43,"x_max":507,"o":"m 236 1024 l 103 1024 l 103 1157 l 236 1157 l 236 1024 m 447 1024 l 314 1024 l 314 1157 l 447 1157 l 447 1024 m 43 739 q 103 919 43 856 q 275 983 163 983 q 447 919 388 983 q 507 739 507 856 l 507 233 q 447 53 507 117 q 275 -11 388 -11 q 103 53 163 -11 q 43 233 43 117 l 43 739 m 196 224 q 275 128 196 128 q 354 224 354 128 l 354 749 q 275 844 354 844 q 196 749 196 844 l 196 224 z "},"Ò":{"ha":550,"x_min":43,"x_max":507,"o":"m 358 1024 l 249 1024 l 107 1178 l 264 1178 l 358 1024 m 43 739 q 103 919 43 856 q 275 983 163 983 q 447 919 388 983 q 507 739 507 856 l 507 233 q 447 53 507 117 q 275 -11 388 -11 q 103 53 163 -11 q 43 233 43 117 l 43 739 m 196 224 q 275 128 196 128 q 354 224 354 128 l 354 749 q 275 844 354 844 q 196 749 196 844 l 196 224 z "},"Ő":{"ha":550,"x_min":43,"x_max":507,"o":"m 207 1024 l 114 1024 l 183 1178 l 322 1178 l 207 1024 m 388 1024 l 296 1024 l 364 1178 l 504 1178 l 388 1024 m 43 739 q 103 919 43 856 q 275 983 163 983 q 447 919 388 983 q 507 739 507 856 l 507 233 q 447 53 507 117 q 275 -11 388 -11 q 103 53 163 -11 q 43 233 43 117 l 43 739 m 196 224 q 275 128 196 128 q 354 224 354 128 l 354 749 q 275 844 354 844 q 196 749 196 844 l 196 224 z "},"Ō":{"ha":550,"x_min":43,"x_max":507,"o":"m 435 1029 l 115 1029 l 115 1138 l 435 1138 l 435 1029 m 43 739 q 103 919 43 856 q 275 983 163 983 q 447 919 388 983 q 507 739 507 856 l 507 233 q 447 53 507 117 q 275 -11 388 -11 q 103 53 163 -11 q 43 233 43 117 l 43 739 m 196 224 q 275 128 196 128 q 354 224 354 128 l 354 749 q 275 844 354 844 q 196 749 196 844 l 196 224 z "},"Ø":{"ha":550,"x_min":43,"x_max":507,"o":"m 92 64 q 43 233 43 128 l 43 739 q 103 919 43 856 q 275 983 163 983 q 414 947 358 983 l 442 1024 l 493 1006 l 457 907 q 507 739 507 846 l 507 233 q 447 53 507 117 q 275 -11 388 -11 q 136 24 189 -11 l 108 -51 l 57 -33 l 92 64 m 351 778 q 275 844 342 844 q 196 749 196 844 l 196 349 l 351 778 m 275 128 q 354 224 354 128 l 354 624 l 197 194 q 275 128 208 128 z "},"Ǿ":{"ha":550,"x_min":43,"x_max":507,"o":"m 297 1024 l 194 1024 l 289 1178 l 439 1178 l 297 1024 m 43 739 q 103 919 43 856 q 275 983 163 983 q 414 947 358 983 l 442 1024 l 493 1006 l 457 907 q 507 739 507 846 l 507 233 q 447 53 507 117 q 275 -11 388 -11 q 136 24 189 -11 l 108 -51 l 57 -33 l 92 64 q 43 233 43 128 l 43 739 m 351 778 q 275 844 342 844 q 196 749 196 844 l 196 349 l 351 778 m 275 128 q 354 224 354 128 l 354 624 l 197 194 q 275 128 208 128 z "},"Õ":{"ha":550,"x_min":43,"x_max":507,"o":"m 331 1129 q 365 1138 351 1129 q 390 1169 379 1146 l 464 1118 q 346 1024 429 1024 q 309 1028 325 1024 q 272 1043 293 1033 q 221 1058 242 1058 q 186 1050 200 1058 q 161 1018 172 1042 l 88 1069 q 206 1164 122 1164 q 242 1159 226 1164 q 279 1144 258 1154 q 331 1129 310 1129 m 43 739 q 103 919 43 856 q 275 983 163 983 q 447 919 388 983 q 507 739 507 856 l 507 233 q 447 53 507 117 q 275 -11 388 -11 q 103 53 163 -11 q 43 233 43 117 l 43 739 m 196 224 q 275 128 196 128 q 354 224 354 128 l 354 749 q 275 844 354 844 q 196 749 196 844 l 196 224 z "},"Œ":{"ha":814,"x_min":42,"x_max":775,"o":"m 721 563 l 721 424 l 511 424 l 511 139 l 775 139 l 775 0 l 269 0 q 99 61 156 0 q 42 240 42 122 l 42 732 q 99 911 42 850 q 269 972 156 972 l 775 972 l 775 833 l 511 833 l 511 563 l 721 563 m 272 833 q 215 811 235 833 q 194 739 194 789 l 194 233 q 215 161 194 183 q 272 139 235 139 l 358 139 l 358 833 l 272 833 z "},"P":{"ha":531,"x_min":56,"x_max":508,"o":"m 281 972 q 451 911 394 972 q 508 732 508 850 l 508 606 q 451 426 508 488 q 281 365 394 365 l 208 365 l 208 0 l 56 0 l 56 972 l 281 972 m 208 504 l 281 504 q 337 525 318 504 q 356 596 356 546 l 356 742 q 337 813 356 792 q 281 833 318 833 l 208 833 l 208 504 z "},"Þ":{"ha":524,"x_min":56,"x_max":508,"o":"m 208 972 l 208 861 l 281 861 q 451 800 394 861 q 508 621 508 739 l 508 494 q 451 315 508 376 q 281 254 394 254 l 208 254 l 208 0 l 56 0 l 56 972 l 208 972 m 208 393 l 281 393 q 337 414 318 393 q 356 485 356 435 l 356 631 q 337 701 356 681 q 281 722 318 722 l 208 722 l 208 393 z "},"Q":{"ha":550,"x_min":43,"x_max":535,"o":"m 43 739 q 103 919 43 856 q 275 983 163 983 q 447 919 388 983 q 507 739 507 856 l 507 233 q 478 97 507 151 q 492 81 483 85 q 521 76 501 76 l 535 76 l 535 -60 l 514 -60 q 382 7 415 -60 q 275 -11 332 -11 q 103 53 163 -11 q 43 233 43 117 l 43 739 m 196 224 q 275 128 196 128 q 354 224 354 128 l 354 749 q 275 844 354 844 q 196 749 196 844 l 196 224 z "},"R":{"ha":558,"x_min":56,"x_max":531,"o":"m 375 0 q 364 44 367 24 q 361 119 361 65 l 361 272 q 338 367 361 339 q 261 396 314 396 l 208 396 l 208 0 l 56 0 l 56 972 l 286 972 q 458 917 404 972 q 513 749 513 863 l 513 672 q 413 475 513 522 q 490 401 467 453 q 514 268 514 349 l 514 118 q 517 51 514 76 q 531 0 519 25 l 375 0 m 208 535 l 268 535 q 337 558 314 535 q 360 638 360 582 l 360 733 q 341 810 360 786 q 282 833 322 833 l 208 833 l 208 535 z "},"Ŕ":{"ha":558,"x_min":56,"x_max":531,"o":"m 293 1024 l 190 1024 l 285 1178 l 435 1178 l 293 1024 m 375 0 q 364 44 367 24 q 361 119 361 65 l 361 272 q 338 367 361 339 q 261 396 314 396 l 208 396 l 208 0 l 56 0 l 56 972 l 286 972 q 458 917 404 972 q 513 749 513 863 l 513 672 q 413 475 513 522 q 490 401 467 453 q 514 268 514 349 l 514 118 q 517 51 514 76 q 531 0 519 25 l 375 0 m 208 535 l 268 535 q 337 558 314 535 q 360 638 360 582 l 360 733 q 341 810 360 786 q 282 833 322 833 l 208 833 l 208 535 z "},"Ř":{"ha":558,"x_min":56,"x_max":531,"o":"m 269 1100 l 332 1178 l 463 1178 l 339 1024 l 201 1024 l 78 1178 l 208 1178 l 269 1100 m 375 0 q 364 44 367 24 q 361 119 361 65 l 361 272 q 338 367 361 339 q 261 396 314 396 l 208 396 l 208 0 l 56 0 l 56 972 l 286 972 q 458 917 404 972 q 513 749 513 863 l 513 672 q 413 475 513 522 q 490 401 467 453 q 514 268 514 349 l 514 118 q 517 51 514 76 q 531 0 519 25 l 375 0 m 208 535 l 268 535 q 337 558 314 535 q 360 638 360 582 l 360 733 q 341 810 360 786 q 282 833 322 833 l 208 833 l 208 535 z "},"S":{"ha":519,"x_min":32,"x_max":488,"o":"m 36 739 q 93 920 36 857 q 261 983 150 983 q 429 920 372 983 q 486 739 486 857 l 486 708 l 342 708 l 342 749 q 322 822 342 799 q 265 844 303 844 q 208 822 228 844 q 189 749 189 799 q 222 642 189 688 q 319 538 254 596 q 407 449 374 488 q 464 357 440 411 q 488 233 488 303 q 429 52 488 115 q 260 -11 371 -11 q 90 52 149 -11 q 32 233 32 115 l 32 293 l 176 293 l 176 224 q 256 129 176 129 q 335 224 335 129 q 302 331 335 285 q 204 435 269 376 q 117 523 150 485 q 60 615 83 561 q 36 739 36 669 z "},"Ś":{"ha":519,"x_min":32,"x_max":488,"o":"m 282 1024 l 179 1024 l 274 1178 l 424 1178 l 282 1024 m 36 739 q 93 920 36 857 q 261 983 150 983 q 429 920 372 983 q 486 739 486 857 l 486 708 l 342 708 l 342 749 q 322 822 342 799 q 265 844 303 844 q 208 822 228 844 q 189 749 189 799 q 222 642 189 688 q 319 538 254 596 q 407 449 374 488 q 464 357 440 411 q 488 233 488 303 q 429 52 488 115 q 260 -11 371 -11 q 90 52 149 -11 q 32 233 32 115 l 32 293 l 176 293 l 176 224 q 256 129 176 129 q 335 224 335 129 q 302 331 335 285 q 204 435 269 376 q 117 523 150 485 q 60 615 83 561 q 36 739 36 669 z "},"Š":{"ha":519,"x_min":32,"x_max":488,"o":"m 260 1100 l 322 1178 l 453 1178 l 329 1024 l 192 1024 l 68 1178 l 199 1178 l 260 1100 m 36 739 q 93 920 36 857 q 261 983 150 983 q 429 920 372 983 q 486 739 486 857 l 486 708 l 342 708 l 342 749 q 322 822 342 799 q 265 844 303 844 q 208 822 228 844 q 189 749 189 799 q 222 642 189 688 q 319 538 254 596 q 407 449 374 488 q 464 357 440 411 q 488 233 488 303 q 429 52 488 115 q 260 -11 371 -11 q 90 52 149 -11 q 32 233 32 115 l 32 293 l 176 293 l 176 224 q 256 129 176 129 q 335 224 335 129 q 302 331 335 285 q 204 435 269 376 q 117 523 150 485 q 60 615 83 561 q 36 739 36 669 z "},"Ş":{"ha":519,"x_min":32,"x_max":488,"o":"m 36 739 q 93 920 36 857 q 261 983 150 983 q 429 920 372 983 q 486 739 486 857 l 486 708 l 342 708 l 342 749 q 322 822 342 799 q 265 844 303 844 q 208 822 228 844 q 189 749 189 799 q 222 642 189 688 q 319 538 254 596 q 407 449 374 488 q 464 357 440 411 q 488 233 488 303 q 436 60 488 122 q 285 -10 385 -3 l 285 -54 q 363 -69 338 -54 q 388 -119 388 -83 q 353 -187 388 -171 q 247 -204 318 -204 q 149 -186 183 -204 q 114 -124 114 -168 l 114 -110 l 217 -110 l 217 -121 q 226 -142 217 -135 q 247 -149 235 -149 q 282 -115 282 -149 q 269 -87 282 -96 q 232 -79 257 -79 l 218 -79 l 218 -8 q 79 65 126 3 q 32 233 32 128 l 32 293 l 176 293 l 176 224 q 256 129 176 129 q 335 224 335 129 q 302 331 335 285 q 204 435 269 376 q 117 523 150 485 q 60 615 83 561 q 36 739 36 669 z "},"Ŝ":{"ha":519,"x_min":32,"x_max":488,"o":"m 190 1178 l 328 1178 l 451 1024 l 321 1024 l 258 1100 l 197 1024 l 67 1024 l 190 1178 m 36 739 q 93 920 36 857 q 261 983 150 983 q 429 920 372 983 q 486 739 486 857 l 486 708 l 342 708 l 342 749 q 322 822 342 799 q 265 844 303 844 q 208 822 228 844 q 189 749 189 799 q 222 642 189 688 q 319 538 254 596 q 407 449 374 488 q 464 357 440 411 q 488 233 488 303 q 429 52 488 115 q 260 -11 371 -11 q 90 52 149 -11 q 32 233 32 115 l 32 293 l 176 293 l 176 224 q 256 129 176 129 q 335 224 335 129 q 302 331 335 285 q 204 435 269 376 q 117 523 150 485 q 60 615 83 561 q 36 739 36 669 z "},"T":{"ha":494,"x_min":11,"x_max":483,"o":"m 483 972 l 483 833 l 324 833 l 324 0 l 171 0 l 171 833 l 11 833 l 11 972 l 483 972 z "},"Ŧ":{"ha":494,"x_min":11,"x_max":483,"o":"m 171 833 l 11 833 l 11 972 l 483 972 l 483 833 l 324 833 l 324 676 l 415 676 l 415 563 l 324 563 l 324 0 l 171 0 l 171 563 l 79 563 l 79 676 l 171 676 l 171 833 z "},"Ť":{"ha":494,"x_min":11,"x_max":483,"o":"m 246 1100 l 308 1178 l 439 1178 l 315 1024 l 178 1024 l 54 1178 l 185 1178 l 246 1100 m 483 972 l 483 833 l 324 833 l 324 0 l 171 0 l 171 833 l 11 833 l 11 972 l 483 972 z "},"U":{"ha":553,"x_min":49,"x_max":504,"o":"m 201 222 q 281 128 201 128 q 360 222 360 128 l 360 972 l 504 972 l 504 232 q 446 51 504 114 q 276 -12 388 -12 q 107 51 165 -12 q 49 232 49 114 l 49 972 l 201 972 l 201 222 z "},"Ú":{"ha":553,"x_min":49,"x_max":504,"o":"m 300 1024 l 197 1024 l 292 1178 l 442 1178 l 300 1024 m 201 222 q 281 128 201 128 q 360 222 360 128 l 360 972 l 504 972 l 504 232 q 446 51 504 114 q 276 -12 388 -12 q 107 51 165 -12 q 49 232 49 114 l 49 972 l 201 972 l 201 222 z "},"Ŭ":{"ha":553,"x_min":49,"x_max":504,"o":"m 433 1178 q 393 1060 433 1103 q 276 1018 353 1018 q 162 1060 200 1018 q 122 1178 124 1103 l 213 1178 q 231 1126 215 1140 q 276 1113 246 1113 q 324 1126 308 1113 q 343 1178 340 1140 l 433 1178 m 201 222 q 281 128 201 128 q 360 222 360 128 l 360 972 l 504 972 l 504 232 q 446 51 504 114 q 276 -12 388 -12 q 107 51 165 -12 q 49 232 49 114 l 49 972 l 201 972 l 201 222 z "},"Û":{"ha":553,"x_min":49,"x_max":504,"o":"m 210 1178 l 347 1178 l 471 1024 l 340 1024 l 278 1100 l 217 1024 l 86 1024 l 210 1178 m 201 222 q 281 128 201 128 q 360 222 360 128 l 360 972 l 504 972 l 504 232 q 446 51 504 114 q 276 -12 388 -12 q 107 51 165 -12 q 49 232 49 114 l 49 972 l 201 972 l 201 222 z "},"Ü":{"ha":553,"x_min":49,"x_max":504,"o":"m 240 1024 l 107 1024 l 107 1157 l 240 1157 l 240 1024 m 451 1024 l 318 1024 l 318 1157 l 451 1157 l 451 1024 m 201 222 q 281 128 201 128 q 360 222 360 128 l 360 972 l 504 972 l 504 232 q 446 51 504 114 q 276 -12 388 -12 q 107 51 165 -12 q 49 232 49 114 l 49 972 l 201 972 l 201 222 z "},"Ù":{"ha":553,"x_min":49,"x_max":504,"o":"m 361 1024 l 251 1024 l 110 1178 l 267 1178 l 361 1024 m 201 222 q 281 128 201 128 q 360 222 360 128 l 360 972 l 504 972 l 504 232 q 446 51 504 114 q 276 -12 388 -12 q 107 51 165 -12 q 49 232 49 114 l 49 972 l 201 972 l 201 222 z "},"Ű":{"ha":553,"x_min":49,"x_max":507,"o":"m 210 1024 l 117 1024 l 186 1178 l 325 1178 l 210 1024 m 390 1024 l 299 1024 l 367 1178 l 507 1178 l 390 1024 m 201 222 q 281 128 201 128 q 360 222 360 128 l 360 972 l 504 972 l 504 232 q 446 51 504 114 q 276 -12 388 -12 q 107 51 165 -12 q 49 232 49 114 l 49 972 l 201 972 l 201 222 z "},"Ū":{"ha":553,"x_min":49,"x_max":504,"o":"m 438 1029 l 118 1029 l 118 1138 l 438 1138 l 438 1029 m 201 222 q 281 128 201 128 q 360 222 360 128 l 360 972 l 504 972 l 504 232 q 446 51 504 114 q 276 -12 388 -12 q 107 51 165 -12 q 49 232 49 114 l 49 972 l 201 972 l 201 222 z "},"Ų":{"ha":553,"x_min":49,"x_max":504,"o":"m 201 222 q 281 128 201 128 q 360 222 360 128 l 360 972 l 504 972 l 504 232 q 486 106 504 160 q 417 11 468 51 q 380 -35 390 -10 q 369 -81 369 -60 q 383 -109 369 -99 q 418 -119 397 -119 q 452 -116 440 -119 q 468 -111 464 -112 l 468 -189 q 424 -201 444 -199 q 374 -204 404 -204 q 285 -182 317 -204 q 253 -118 253 -160 q 333 -7 253 -54 q 276 -12 310 -12 q 107 51 165 -12 q 49 232 49 114 l 49 972 l 201 972 l 201 222 z "},"Ů":{"ha":553,"x_min":49,"x_max":504,"o":"m 167 1131 q 199 1210 167 1178 q 278 1242 231 1242 q 357 1210 325 1242 q 389 1131 389 1178 q 357 1051 389 1083 q 278 1019 325 1019 q 199 1051 231 1019 q 167 1131 167 1083 m 236 1131 q 248 1101 236 1113 q 278 1089 260 1089 q 308 1101 296 1089 q 319 1131 319 1113 q 308 1160 319 1149 q 278 1172 296 1172 q 248 1160 260 1172 q 236 1131 236 1149 m 201 222 q 281 128 201 128 q 360 222 360 128 l 360 972 l 504 972 l 504 232 q 446 51 504 114 q 276 -12 388 -12 q 107 51 165 -12 q 49 232 49 114 l 49 972 l 201 972 l 201 222 z "},"Ũ":{"ha":553,"x_min":49,"x_max":504,"o":"m 333 1129 q 368 1138 354 1129 q 393 1169 382 1146 l 467 1118 q 349 1024 432 1024 q 312 1028 328 1024 q 275 1043 296 1033 q 224 1058 244 1058 q 189 1050 203 1058 q 164 1018 175 1042 l 90 1069 q 208 1164 125 1164 q 245 1159 229 1164 q 282 1144 261 1154 q 333 1129 313 1129 m 201 222 q 281 128 201 128 q 360 222 360 128 l 360 972 l 504 972 l 504 232 q 446 51 504 114 q 276 -12 388 -12 q 107 51 165 -12 q 49 232 49 114 l 49 972 l 201 972 l 201 222 z "},"V":{"ha":558,"x_min":15,"x_max":543,"o":"m 403 972 l 543 972 l 393 0 l 165 0 l 15 972 l 169 972 l 286 179 l 403 972 z "},"W":{"ha":782,"x_min":21,"x_max":761,"o":"m 339 0 l 129 0 l 21 972 l 169 972 l 251 206 l 325 972 l 472 972 l 549 200 l 628 972 l 761 972 l 653 0 l 450 0 l 394 518 l 339 0 z "},"Ẃ":{"ha":782,"x_min":21,"x_max":761,"o":"m 413 1024 l 310 1024 l 404 1178 l 554 1178 l 413 1024 m 339 0 l 129 0 l 21 972 l 169 972 l 251 206 l 325 972 l 472 972 l 549 200 l 628 972 l 761 972 l 653 0 l 450 0 l 394 518 l 339 0 z "},"Ŵ":{"ha":782,"x_min":21,"x_max":761,"o":"m 322 1178 l 460 1178 l 583 1024 l 453 1024 l 390 1100 l 329 1024 l 199 1024 l 322 1178 m 339 0 l 129 0 l 21 972 l 169 972 l 251 206 l 325 972 l 472 972 l 549 200 l 628 972 l 761 972 l 653 0 l 450 0 l 394 518 l 339 0 z "},"Ẅ":{"ha":782,"x_min":21,"x_max":761,"o":"m 351 1024 l 218 1024 l 218 1157 l 351 1157 l 351 1024 m 563 1024 l 429 1024 l 429 1157 l 563 1157 l 563 1024 m 339 0 l 129 0 l 21 972 l 169 972 l 251 206 l 325 972 l 472 972 l 549 200 l 628 972 l 761 972 l 653 0 l 450 0 l 394 518 l 339 0 z "},"Ẁ":{"ha":782,"x_min":21,"x_max":761,"o":"m 475 1024 l 365 1024 l 224 1178 l 381 1178 l 475 1024 m 339 0 l 129 0 l 21 972 l 169 972 l 251 206 l 325 972 l 472 972 l 549 200 l 628 972 l 761 972 l 653 0 l 450 0 l 394 518 l 339 0 z "},"X":{"ha":597,"x_min":21,"x_max":576,"o":"m 406 500 l 576 0 l 415 0 l 290 385 l 164 0 l 21 0 l 192 500 l 32 972 l 190 972 l 306 614 l 424 972 l 565 972 l 406 500 z "},"Y":{"ha":550,"x_min":6,"x_max":544,"o":"m 6 972 l 165 972 l 282 529 l 399 972 l 544 972 l 351 322 l 351 0 l 199 0 l 199 322 l 6 972 z "},"Ý":{"ha":550,"x_min":6,"x_max":544,"o":"m 303 1024 l 200 1024 l 294 1178 l 444 1178 l 303 1024 m 6 972 l 165 972 l 282 529 l 399 972 l 544 972 l 351 322 l 351 0 l 199 0 l 199 322 l 6 972 z "},"Ŷ":{"ha":550,"x_min":6,"x_max":544,"o":"m 213 1178 l 350 1178 l 474 1024 l 343 1024 l 281 1100 l 219 1024 l 89 1024 l 213 1178 m 6 972 l 165 972 l 282 529 l 399 972 l 544 972 l 351 322 l 351 0 l 199 0 l 199 322 l 6 972 z "},"Ÿ":{"ha":550,"x_min":6,"x_max":544,"o":"m 242 1024 l 108 1024 l 108 1157 l 242 1157 l 242 1024 m 453 1024 l 319 1024 l 319 1157 l 453 1157 l 453 1024 m 6 972 l 165 972 l 282 529 l 399 972 l 544 972 l 351 322 l 351 0 l 199 0 l 199 322 l 6 972 z "},"Ỳ":{"ha":550,"x_min":6,"x_max":544,"o":"m 365 1024 l 256 1024 l 114 1178 l 271 1178 l 365 1024 m 6 972 l 165 972 l 282 529 l 399 972 l 544 972 l 351 322 l 351 0 l 199 0 l 199 322 l 6 972 z "},"Z":{"ha":514,"x_min":32,"x_max":479,"o":"m 479 836 l 189 139 l 479 139 l 479 0 l 32 0 l 32 136 l 322 833 l 46 833 l 46 972 l 479 972 l 479 836 z "},"Ź":{"ha":514,"x_min":32,"x_max":479,"o":"m 281 1024 l 178 1024 l 272 1178 l 422 1178 l 281 1024 m 479 836 l 189 139 l 479 139 l 479 0 l 32 0 l 32 136 l 322 833 l 46 833 l 46 972 l 479 972 l 479 836 z "},"Ž":{"ha":514,"x_min":32,"x_max":479,"o":"m 258 1100 l 321 1178 l 451 1178 l 328 1024 l 190 1024 l 67 1178 l 197 1178 l 258 1100 m 479 836 l 189 139 l 479 139 l 479 0 l 32 0 l 32 136 l 322 833 l 46 833 l 46 972 l 479 972 l 479 836 z "},"Ż":{"ha":514,"x_min":32,"x_max":479,"o":"m 325 1024 l 192 1024 l 192 1157 l 325 1157 l 325 1024 m 479 836 l 189 139 l 479 139 l 479 0 l 32 0 l 32 136 l 322 833 l 46 833 l 46 972 l 479 972 l 479 836 z "},"Ģ":{"ha":542,"x_min":43,"x_max":499,"o":"m 499 542 l 499 233 q 440 52 499 115 q 271 -11 382 -11 q 101 52 160 -11 q 43 233 43 115 l 43 739 q 101 920 43 857 q 271 983 160 983 q 440 920 382 983 q 499 739 499 857 l 499 644 l 354 644 l 354 749 q 275 844 354 844 q 196 749 196 844 l 196 224 q 275 129 196 129 q 354 224 354 129 l 354 403 l 285 403 l 285 542 l 499 542 m 207 -46 l 335 -46 l 335 -160 l 275 -249 l 221 -249 l 257 -174 l 207 -174 l 207 -46 z "},"Ķ":{"ha":575,"x_min":56,"x_max":561,"o":"m 208 299 l 208 0 l 56 0 l 56 972 l 208 972 l 208 549 l 408 972 l 561 972 l 349 539 l 561 0 l 404 0 l 256 388 l 208 299 m 235 -46 l 363 -46 l 363 -160 l 303 -249 l 249 -249 l 285 -174 l 235 -174 l 235 -46 z "},"Ļ":{"ha":471,"x_min":56,"x_max":460,"o":"m 208 972 l 208 139 l 460 139 l 460 0 l 56 0 l 56 972 l 208 972 m 194 -46 l 322 -46 l 322 -160 l 263 -249 l 208 -249 l 244 -174 l 194 -174 l 194 -46 z "},"Ņ":{"ha":593,"x_min":54,"x_max":539,"o":"m 192 0 l 54 0 l 54 972 l 246 972 l 403 390 l 403 972 l 539 972 l 539 0 l 382 0 l 192 704 l 192 0 m 232 -46 l 360 -46 l 360 -160 l 300 -249 l 246 -249 l 282 -174 l 232 -174 l 232 -46 z "},"Ŗ":{"ha":558,"x_min":56,"x_max":531,"o":"m 375 0 q 364 44 367 24 q 361 119 361 65 l 361 272 q 338 367 361 339 q 261 396 314 396 l 208 396 l 208 0 l 56 0 l 56 972 l 286 972 q 458 917 404 972 q 513 749 513 863 l 513 672 q 413 475 513 522 q 490 401 467 453 q 514 268 514 349 l 514 118 q 517 51 514 76 q 531 0 519 25 l 375 0 m 208 535 l 268 535 q 337 558 314 535 q 360 638 360 582 l 360 733 q 341 810 360 786 q 282 833 322 833 l 208 833 l 208 535 m 218 -46 l 346 -46 l 346 -160 l 286 -249 l 232 -249 l 268 -174 l 218 -174 l 218 -46 z "},"Ţ":{"ha":494,"x_min":11,"x_max":483,"o":"m 211 -137 l 211 -151 q 240 -176 211 -176 q 276 -140 276 -176 q 226 -101 276 -101 l 211 -101 l 211 0 l 171 0 l 171 833 l 11 833 l 11 972 l 483 972 l 483 833 l 324 833 l 324 0 l 281 0 l 281 -54 q 344 -76 321 -54 q 368 -133 368 -97 q 333 -219 368 -192 q 242 -247 297 -247 q 157 -222 192 -247 q 122 -151 122 -197 l 122 -137 l 211 -137 z "},"Ș":{"ha":519,"x_min":32,"x_max":488,"o":"m 36 739 q 93 920 36 857 q 261 983 150 983 q 429 920 372 983 q 486 739 486 857 l 486 708 l 342 708 l 342 749 q 322 822 342 799 q 265 844 303 844 q 208 822 228 844 q 189 749 189 799 q 222 642 189 688 q 319 538 254 596 q 407 449 374 488 q 464 357 440 411 q 488 233 488 303 q 429 52 488 115 q 260 -11 371 -11 q 90 52 149 -11 q 32 233 32 115 l 32 293 l 176 293 l 176 224 q 256 129 176 129 q 335 224 335 129 q 302 331 335 285 q 204 435 269 376 q 117 523 150 485 q 60 615 83 561 q 36 739 36 669 m 192 -46 l 319 -46 l 319 -160 l 260 -249 l 206 -249 l 242 -174 l 192 -174 l 192 -46 z "},"Ț":{"ha":494,"x_min":11,"x_max":483,"o":"m 483 972 l 483 833 l 324 833 l 324 0 l 171 0 l 171 833 l 11 833 l 11 972 l 483 972 m 183 -46 l 311 -46 l 311 -160 l 251 -249 l 197 -249 l 233 -174 l 183 -174 l 183 -46 z "},"Ḃ":{"ha":564,"x_min":56,"x_max":528,"o":"m 325 1024 l 192 1024 l 192 1157 l 325 1157 l 325 1024 m 286 972 q 458 917 404 972 q 513 749 513 863 l 513 714 q 488 590 513 639 q 414 518 464 542 q 528 310 528 474 l 528 231 q 469 59 528 118 q 296 0 410 0 l 56 0 l 56 972 l 286 972 m 208 576 l 268 576 q 337 600 314 576 q 360 679 360 624 l 360 733 q 341 810 360 786 q 282 833 322 833 l 208 833 l 208 576 m 208 139 l 296 139 q 356 160 336 139 q 375 235 375 182 l 375 319 q 352 412 375 386 q 276 438 329 438 l 208 438 l 208 139 z "},"Ḋ":{"ha":567,"x_min":56,"x_max":525,"o":"m 336 1024 l 203 1024 l 203 1157 l 336 1157 l 336 1024 m 297 972 q 468 911 411 972 q 525 732 525 850 l 525 240 q 468 61 525 122 q 297 0 411 0 l 56 0 l 56 972 l 297 972 m 208 139 l 294 139 q 352 161 332 139 q 372 233 372 183 l 372 739 q 352 811 372 789 q 294 833 332 833 l 208 833 l 208 139 z "},"Ḟ":{"ha":478,"x_min":56,"x_max":460,"o":"m 319 1024 l 186 1024 l 186 1157 l 319 1157 l 319 1024 m 406 540 l 406 401 l 208 401 l 208 0 l 56 0 l 56 972 l 460 972 l 460 833 l 208 833 l 208 540 l 406 540 z "},"Ṁ":{"ha":751,"x_min":54,"x_max":696,"o":"m 442 1024 l 308 1024 l 308 1157 l 442 1157 l 442 1024 m 483 972 l 696 972 l 696 0 l 551 0 l 551 697 l 446 0 l 301 0 l 188 688 l 188 0 l 54 0 l 54 972 l 267 972 l 379 282 l 483 972 z "},"Ṗ":{"ha":524,"x_min":56,"x_max":508,"o":"m 331 1024 l 197 1024 l 197 1157 l 331 1157 l 331 1024 m 281 972 q 451 911 394 972 q 508 732 508 850 l 508 606 q 451 426 508 488 q 281 365 394 365 l 208 365 l 208 0 l 56 0 l 56 972 l 281 972 m 208 504 l 281 504 q 337 525 318 504 q 356 596 356 546 l 356 742 q 337 813 356 792 q 281 833 318 833 l 208 833 l 208 504 z "},"Ṡ":{"ha":519,"x_min":32,"x_max":488,"o":"m 326 1024 l 193 1024 l 193 1157 l 326 1157 l 326 1024 m 36 739 q 93 920 36 857 q 261 983 150 983 q 429 920 372 983 q 486 739 486 857 l 486 708 l 342 708 l 342 749 q 322 822 342 799 q 265 844 303 844 q 208 822 228 844 q 189 749 189 799 q 222 642 189 688 q 319 538 254 596 q 407 449 374 488 q 464 357 440 411 q 488 233 488 303 q 429 52 488 115 q 260 -11 371 -11 q 90 52 149 -11 q 32 233 32 115 l 32 293 l 176 293 l 176 224 q 256 129 176 129 q 335 224 335 129 q 302 331 335 285 q 204 435 269 376 q 117 523 150 485 q 60 615 83 561 q 36 739 36 669 z "},"Ṫ":{"ha":494,"x_min":11,"x_max":483,"o":"m 314 1024 l 181 1024 l 181 1157 l 314 1157 l 314 1024 m 483 972 l 483 833 l 324 833 l 324 0 l 171 0 l 171 833 l 11 833 l 11 972 l 483 972 z "},"a":{"ha":565,"x_min":15,"x_max":550,"o":"m 396 0 l 369 176 l 182 176 l 156 0 l 15 0 l 171 972 l 394 972 l 550 0 l 396 0 m 349 308 l 275 800 l 201 308 l 349 308 z "},"á":{"ha":565,"x_min":15,"x_max":550,"o":"m 304 1024 l 201 1024 l 296 1178 l 446 1178 l 304 1024 m 396 0 l 369 176 l 182 176 l 156 0 l 15 0 l 171 972 l 394 972 l 550 0 l 396 0 m 349 308 l 275 800 l 201 308 l 349 308 z "},"ă":{"ha":565,"x_min":15,"x_max":550,"o":"m 438 1178 q 397 1060 438 1103 q 281 1018 357 1018 q 166 1060 204 1018 q 126 1178 128 1103 l 217 1178 q 235 1126 219 1140 q 281 1113 250 1113 q 328 1126 313 1113 q 347 1178 344 1140 l 438 1178 m 396 0 l 369 176 l 182 176 l 156 0 l 15 0 l 171 972 l 394 972 l 550 0 l 396 0 m 349 308 l 275 800 l 201 308 l 349 308 z "},"â":{"ha":565,"x_min":15,"x_max":550,"o":"m 214 1178 l 351 1178 l 475 1024 l 344 1024 l 282 1100 l 221 1024 l 90 1024 l 214 1178 m 396 0 l 369 176 l 182 176 l 156 0 l 15 0 l 171 972 l 394 972 l 550 0 l 396 0 m 349 308 l 275 800 l 201 308 l 349 308 z "},"ä":{"ha":565,"x_min":15,"x_max":550,"o":"m 243 1024 l 110 1024 l 110 1157 l 243 1157 l 243 1024 m 454 1024 l 321 1024 l 321 1157 l 454 1157 l 454 1024 m 396 0 l 369 176 l 182 176 l 156 0 l 15 0 l 171 972 l 394 972 l 550 0 l 396 0 m 349 308 l 275 800 l 201 308 l 349 308 z "},"à":{"ha":565,"x_min":15,"x_max":550,"o":"m 367 1024 l 257 1024 l 115 1178 l 272 1178 l 367 1024 m 396 0 l 369 176 l 182 176 l 156 0 l 15 0 l 171 972 l 394 972 l 550 0 l 396 0 m 349 308 l 275 800 l 201 308 l 349 308 z "},"ā":{"ha":565,"x_min":15,"x_max":550,"o":"m 442 1029 l 122 1029 l 122 1138 l 442 1138 l 442 1029 m 396 0 l 369 176 l 182 176 l 156 0 l 15 0 l 171 972 l 394 972 l 550 0 l 396 0 m 349 308 l 275 800 l 201 308 l 349 308 z "},"ą":{"ha":565,"x_min":15,"x_max":550,"o":"m 493 0 q 451 -81 451 -35 q 465 -109 451 -99 q 500 -119 479 -119 q 534 -116 522 -119 q 550 -111 546 -112 l 550 -189 q 506 -201 526 -199 q 456 -204 486 -204 q 367 -182 399 -204 q 335 -118 335 -160 q 400 -17 335 -60 l 369 176 l 182 176 l 156 0 l 15 0 l 171 972 l 394 972 l 550 0 l 493 0 m 349 308 l 275 800 l 201 308 l 349 308 z "},"å":{"ha":565,"x_min":15,"x_max":550,"o":"m 171 1131 q 203 1210 171 1178 q 282 1242 235 1242 q 361 1210 329 1242 q 393 1131 393 1178 q 361 1051 393 1083 q 282 1019 329 1019 q 203 1051 235 1019 q 171 1131 171 1083 m 240 1131 q 252 1101 240 1113 q 282 1089 264 1089 q 312 1101 300 1089 q 324 1131 324 1113 q 312 1160 324 1149 q 282 1172 300 1172 q 252 1160 264 1172 q 240 1131 240 1149 m 396 0 l 369 176 l 182 176 l 156 0 l 15 0 l 171 972 l 394 972 l 550 0 l 396 0 m 349 308 l 275 800 l 201 308 l 349 308 z "},"ã":{"ha":565,"x_min":15,"x_max":550,"o":"m 338 1129 q 372 1138 358 1129 q 397 1169 386 1146 l 471 1118 q 353 1024 436 1024 q 316 1028 332 1024 q 279 1043 300 1033 q 228 1058 249 1058 q 193 1050 207 1058 q 168 1018 179 1042 l 94 1069 q 213 1164 129 1164 q 249 1159 233 1164 q 286 1144 265 1154 q 338 1129 317 1129 m 396 0 l 369 176 l 182 176 l 156 0 l 15 0 l 171 972 l 394 972 l 550 0 l 396 0 m 349 308 l 275 800 l 201 308 l 349 308 z "},"æ":{"ha":806,"x_min":6,"x_max":767,"o":"m 713 563 l 713 424 l 503 424 l 503 139 l 767 139 l 767 0 l 350 0 l 350 176 l 196 176 l 151 0 l 6 0 l 265 972 l 767 972 l 767 833 l 503 833 l 503 563 l 713 563 m 350 776 l 231 308 l 350 308 l 350 776 z "},"ǽ":{"ha":806,"x_min":6,"x_max":767,"o":"m 425 1024 l 322 1024 l 417 1178 l 567 1178 l 425 1024 m 196 176 l 151 0 l 6 0 l 265 972 l 767 972 l 767 833 l 503 833 l 503 563 l 713 563 l 713 424 l 503 424 l 503 139 l 767 139 l 767 0 l 350 0 l 350 176 l 196 176 m 350 776 l 231 308 l 350 308 l 350 776 z "},"b":{"ha":564,"x_min":56,"x_max":528,"o":"m 286 972 q 458 917 404 972 q 513 749 513 863 l 513 714 q 488 590 513 639 q 414 518 464 542 q 528 310 528 474 l 528 231 q 469 59 528 118 q 296 0 410 0 l 56 0 l 56 972 l 286 972 m 208 576 l 268 576 q 337 600 314 576 q 360 679 360 624 l 360 733 q 341 810 360 786 q 282 833 322 833 l 208 833 l 208 576 m 208 139 l 296 139 q 356 160 336 139 q 375 235 375 182 l 375 319 q 352 412 375 386 q 276 438 329 438 l 208 438 l 208 139 z "},"c":{"ha":536,"x_min":43,"x_max":499,"o":"m 499 233 q 440 52 499 115 q 271 -11 382 -11 q 101 52 160 -11 q 43 233 43 115 l 43 739 q 101 920 43 857 q 271 983 160 983 q 440 920 382 983 q 499 739 499 857 l 499 644 l 354 644 l 354 749 q 275 844 354 844 q 196 749 196 844 l 196 224 q 275 129 196 129 q 354 224 354 129 l 354 363 l 499 363 l 499 233 z "},"ć":{"ha":536,"x_min":43,"x_max":499,"o":"m 293 1024 l 190 1024 l 285 1178 l 435 1178 l 293 1024 m 499 233 q 440 52 499 115 q 271 -11 382 -11 q 101 52 160 -11 q 43 233 43 115 l 43 739 q 101 920 43 857 q 271 983 160 983 q 440 920 382 983 q 499 739 499 857 l 499 644 l 354 644 l 354 749 q 275 844 354 844 q 196 749 196 844 l 196 224 q 275 129 196 129 q 354 224 354 129 l 354 363 l 499 363 l 499 233 z "},"č":{"ha":536,"x_min":43,"x_max":499,"o":"m 269 1100 l 332 1178 l 463 1178 l 339 1024 l 201 1024 l 78 1178 l 208 1178 l 269 1100 m 499 233 q 440 52 499 115 q 271 -11 382 -11 q 101 52 160 -11 q 43 233 43 115 l 43 739 q 101 920 43 857 q 271 983 160 983 q 440 920 382 983 q 499 739 499 857 l 499 644 l 354 644 l 354 749 q 275 844 354 844 q 196 749 196 844 l 196 224 q 275 129 196 129 q 354 224 354 129 l 354 363 l 499 363 l 499 233 z "},"ç":{"ha":536,"x_min":43,"x_max":499,"o":"m 499 233 q 448 62 499 125 q 301 -10 397 -1 l 301 -54 q 379 -69 354 -54 q 404 -119 404 -83 q 369 -187 404 -171 q 264 -204 335 -204 q 165 -186 200 -204 q 131 -124 131 -168 l 131 -110 l 233 -110 l 233 -121 q 242 -142 233 -135 q 264 -149 251 -149 q 299 -115 299 -149 q 286 -87 299 -96 q 249 -79 274 -79 l 235 -79 l 235 -8 q 92 63 140 1 q 43 233 43 125 l 43 739 q 101 920 43 857 q 271 983 160 983 q 440 920 382 983 q 499 739 499 857 l 499 644 l 354 644 l 354 749 q 275 844 354 844 q 196 749 196 844 l 196 224 q 275 129 196 129 q 354 224 354 129 l 354 363 l 499 363 l 499 233 z "},"ĉ":{"ha":536,"x_min":43,"x_max":499,"o":"m 201 1178 l 339 1178 l 463 1024 l 332 1024 l 269 1100 l 208 1024 l 78 1024 l 201 1178 m 499 233 q 440 52 499 115 q 271 -11 382 -11 q 101 52 160 -11 q 43 233 43 115 l 43 739 q 101 920 43 857 q 271 983 160 983 q 440 920 382 983 q 499 739 499 857 l 499 644 l 354 644 l 354 749 q 275 844 354 844 q 196 749 196 844 l 196 224 q 275 129 196 129 q 354 224 354 129 l 354 363 l 499 363 l 499 233 z "},"ċ":{"ha":536,"x_min":43,"x_max":499,"o":"m 338 1024 l 204 1024 l 204 1157 l 338 1157 l 338 1024 m 499 233 q 440 52 499 115 q 271 -11 382 -11 q 101 52 160 -11 q 43 233 43 115 l 43 739 q 101 920 43 857 q 271 983 160 983 q 440 920 382 983 q 499 739 499 857 l 499 644 l 354 644 l 354 749 q 275 844 354 844 q 196 749 196 844 l 196 224 q 275 129 196 129 q 354 224 354 129 l 354 363 l 499 363 l 499 233 z "},"d":{"ha":567,"x_min":56,"x_max":525,"o":"m 297 972 q 468 911 411 972 q 525 732 525 850 l 525 240 q 468 61 525 122 q 297 0 411 0 l 56 0 l 56 972 l 297 972 m 208 139 l 294 139 q 352 161 332 139 q 372 233 372 183 l 372 739 q 352 811 372 789 q 294 833 332 833 l 208 833 l 208 139 z "},"ð":{"ha":567,"x_min":6,"x_max":525,"o":"m 6 424 l 6 549 l 56 549 l 56 972 l 297 972 q 468 911 411 972 q 525 732 525 850 l 525 240 q 468 61 525 122 q 297 0 411 0 l 56 0 l 56 424 l 6 424 m 208 549 l 303 549 l 303 424 l 208 424 l 208 139 l 294 139 q 352 161 332 139 q 372 233 372 183 l 372 739 q 352 811 372 789 q 294 833 332 833 l 208 833 l 208 549 z "},"ď":{"ha":567,"x_min":56,"x_max":525,"o":"m 269 1100 l 332 1178 l 463 1178 l 339 1024 l 201 1024 l 78 1178 l 208 1178 l 269 1100 m 297 972 q 468 911 411 972 q 525 732 525 850 l 525 240 q 468 61 525 122 q 297 0 411 0 l 56 0 l 56 972 l 297 972 m 208 139 l 294 139 q 352 161 332 139 q 372 233 372 183 l 372 739 q 352 811 372 789 q 294 833 332 833 l 208 833 l 208 139 z "},"đ":{"ha":567,"x_min":6,"x_max":525,"o":"m 6 424 l 6 549 l 56 549 l 56 972 l 297 972 q 468 911 411 972 q 525 732 525 850 l 525 240 q 468 61 525 122 q 297 0 411 0 l 56 0 l 56 424 l 6 424 m 208 549 l 303 549 l 303 424 l 208 424 l 208 139 l 294 139 q 352 161 332 139 q 372 233 372 183 l 372 739 q 352 811 372 789 q 294 833 332 833 l 208 833 l 208 549 z "},"e":{"ha":511,"x_min":56,"x_max":472,"o":"m 418 563 l 418 424 l 208 424 l 208 139 l 472 139 l 472 0 l 56 0 l 56 972 l 472 972 l 472 833 l 208 833 l 208 563 l 418 563 z "},"é":{"ha":511,"x_min":56,"x_max":472,"o":"m 285 1024 l 182 1024 l 276 1178 l 426 1178 l 285 1024 m 418 563 l 418 424 l 208 424 l 208 139 l 472 139 l 472 0 l 56 0 l 56 972 l 472 972 l 472 833 l 208 833 l 208 563 l 418 563 z "},"ĕ":{"ha":511,"x_min":56,"x_max":472,"o":"m 417 1178 q 376 1060 417 1103 q 260 1018 336 1018 q 145 1060 183 1018 q 106 1178 107 1103 l 196 1178 q 214 1126 199 1140 q 260 1113 229 1113 q 308 1126 292 1113 q 326 1178 324 1140 l 417 1178 m 418 563 l 418 424 l 208 424 l 208 139 l 472 139 l 472 0 l 56 0 l 56 972 l 472 972 l 472 833 l 208 833 l 208 563 l 418 563 z "},"ě":{"ha":511,"x_min":56,"x_max":472,"o":"m 260 1100 l 322 1178 l 453 1178 l 329 1024 l 192 1024 l 68 1178 l 199 1178 l 260 1100 m 418 563 l 418 424 l 208 424 l 208 139 l 472 139 l 472 0 l 56 0 l 56 972 l 472 972 l 472 833 l 208 833 l 208 563 l 418 563 z "},"ê":{"ha":511,"x_min":56,"x_max":472,"o":"m 193 1178 l 331 1178 l 454 1024 l 324 1024 l 261 1100 l 200 1024 l 69 1024 l 193 1178 m 418 563 l 418 424 l 208 424 l 208 139 l 472 139 l 472 0 l 56 0 l 56 972 l 472 972 l 472 833 l 208 833 l 208 563 l 418 563 z "},"ë":{"ha":511,"x_min":56,"x_max":472,"o":"m 224 1024 l 90 1024 l 90 1157 l 224 1157 l 224 1024 m 435 1024 l 301 1024 l 301 1157 l 435 1157 l 435 1024 m 418 563 l 418 424 l 208 424 l 208 139 l 472 139 l 472 0 l 56 0 l 56 972 l 472 972 l 472 833 l 208 833 l 208 563 l 418 563 z "},"ė":{"ha":511,"x_min":56,"x_max":472,"o":"m 328 1024 l 194 1024 l 194 1157 l 328 1157 l 328 1024 m 418 563 l 418 424 l 208 424 l 208 139 l 472 139 l 472 0 l 56 0 l 56 972 l 472 972 l 472 833 l 208 833 l 208 563 l 418 563 z "},"è":{"ha":511,"x_min":56,"x_max":472,"o":"m 346 1024 l 236 1024 l 94 1178 l 251 1178 l 346 1024 m 418 563 l 418 424 l 208 424 l 208 139 l 472 139 l 472 0 l 56 0 l 56 972 l 472 972 l 472 833 l 208 833 l 208 563 l 418 563 z "},"ē":{"ha":511,"x_min":56,"x_max":472,"o":"m 421 1029 l 101 1029 l 101 1138 l 421 1138 l 421 1029 m 418 563 l 418 424 l 208 424 l 208 139 l 472 139 l 472 0 l 56 0 l 56 972 l 472 972 l 472 833 l 208 833 l 208 563 l 418 563 z "},"ę":{"ha":511,"x_min":56,"x_max":472,"o":"m 418 563 l 418 424 l 208 424 l 208 139 l 472 139 l 472 0 l 415 0 q 374 -81 374 -35 q 388 -109 374 -99 q 422 -119 401 -119 q 456 -116 444 -119 q 472 -111 468 -112 l 472 -189 q 428 -201 449 -199 q 378 -204 408 -204 q 289 -182 321 -204 q 257 -118 257 -160 q 281 -54 257 -85 q 350 0 304 -24 l 56 0 l 56 972 l 472 972 l 472 833 l 208 833 l 208 563 l 418 563 z "},"f":{"ha":478,"x_min":56,"x_max":460,"o":"m 406 540 l 406 401 l 208 401 l 208 0 l 56 0 l 56 972 l 460 972 l 460 833 l 208 833 l 208 540 l 406 540 z "},"g":{"ha":542,"x_min":43,"x_max":499,"o":"m 499 542 l 499 233 q 440 52 499 115 q 271 -11 382 -11 q 101 52 160 -11 q 43 233 43 115 l 43 739 q 101 920 43 857 q 271 983 160 983 q 440 920 382 983 q 499 739 499 857 l 499 644 l 354 644 l 354 749 q 275 844 354 844 q 196 749 196 844 l 196 224 q 275 129 196 129 q 354 224 354 129 l 354 403 l 285 403 l 285 542 l 499 542 z "},"ğ":{"ha":542,"x_min":43,"x_max":499,"o":"m 425 1178 q 385 1060 425 1103 q 268 1018 344 1018 q 153 1060 192 1018 q 114 1178 115 1103 l 204 1178 q 222 1126 207 1140 q 268 1113 238 1113 q 316 1126 300 1113 q 335 1178 332 1140 l 425 1178 m 499 542 l 499 233 q 440 52 499 115 q 271 -11 382 -11 q 101 52 160 -11 q 43 233 43 115 l 43 739 q 101 920 43 857 q 271 983 160 983 q 440 920 382 983 q 499 739 499 857 l 499 644 l 354 644 l 354 749 q 275 844 354 844 q 196 749 196 844 l 196 224 q 275 129 196 129 q 354 224 354 129 l 354 403 l 285 403 l 285 542 l 499 542 z "},"ĝ":{"ha":542,"x_min":43,"x_max":499,"o":"m 201 1178 l 339 1178 l 463 1024 l 332 1024 l 269 1100 l 208 1024 l 78 1024 l 201 1178 m 499 542 l 499 233 q 440 52 499 115 q 271 -11 382 -11 q 101 52 160 -11 q 43 233 43 115 l 43 739 q 101 920 43 857 q 271 983 160 983 q 440 920 382 983 q 499 739 499 857 l 499 644 l 354 644 l 354 749 q 275 844 354 844 q 196 749 196 844 l 196 224 q 275 129 196 129 q 354 224 354 129 l 354 403 l 285 403 l 285 542 l 499 542 z "},"ġ":{"ha":542,"x_min":43,"x_max":499,"o":"m 336 1024 l 203 1024 l 203 1157 l 336 1157 l 336 1024 m 499 542 l 499 233 q 440 52 499 115 q 271 -11 382 -11 q 101 52 160 -11 q 43 233 43 115 l 43 739 q 101 920 43 857 q 271 983 160 983 q 440 920 382 983 q 499 739 499 857 l 499 644 l 354 644 l 354 749 q 275 844 354 844 q 196 749 196 844 l 196 224 q 275 129 196 129 q 354 224 354 129 l 354 403 l 285 403 l 285 542 l 499 542 z "},"h":{"ha":593,"x_min":56,"x_max":538,"o":"m 56 0 l 56 972 l 208 972 l 208 556 l 382 556 l 382 972 l 538 972 l 538 0 l 382 0 l 382 417 l 208 417 l 208 0 l 56 0 z "},"ħ":{"ha":607,"x_min":14,"x_max":593,"o":"m 63 0 l 63 697 l 14 697 l 14 811 l 63 811 l 63 972 l 215 972 l 215 811 l 389 811 l 389 972 l 544 972 l 544 811 l 593 811 l 593 697 l 544 697 l 544 0 l 389 0 l 389 417 l 215 417 l 215 0 l 63 0 m 389 697 l 215 697 l 215 556 l 389 556 l 389 697 z "},"ĥ":{"ha":593,"x_min":56,"x_max":538,"o":"m 228 1178 l 365 1178 l 489 1024 l 358 1024 l 296 1100 l 235 1024 l 104 1024 l 228 1178 m 56 0 l 56 972 l 208 972 l 208 556 l 382 556 l 382 972 l 538 972 l 538 0 l 382 0 l 382 417 l 208 417 l 208 0 l 56 0 z "},"i":{"ha":264,"x_min":56,"x_max":208,"o":"m 208 972 l 208 0 l 56 0 l 56 972 l 208 972 z "},"ı":{"ha":264,"x_min":56,"x_max":208,"o":"m 208 972 l 208 0 l 56 0 l 56 972 l 208 972 z "},"í":{"ha":264,"x_min":51,"x_max":296,"o":"m 154 1024 l 51 1024 l 146 1178 l 296 1178 l 154 1024 m 208 972 l 208 0 l 56 0 l 56 972 l 208 972 z "},"ĭ":{"ha":264,"x_min":-24,"x_max":288,"o":"m 288 1178 q 247 1060 288 1103 q 131 1018 207 1018 q 16 1060 54 1018 q -24 1178 -22 1103 l 67 1178 q 85 1126 69 1140 q 131 1113 100 1113 q 178 1126 163 1113 q 197 1178 194 1140 l 288 1178 m 208 972 l 208 0 l 56 0 l 56 972 l 208 972 z "},"î":{"ha":264,"x_min":-60,"x_max":325,"o":"m 64 1178 l 201 1178 l 325 1024 l 194 1024 l 132 1100 l 71 1024 l -60 1024 l 64 1178 m 208 972 l 208 0 l 56 0 l 56 972 l 208 972 z "},"ï":{"ha":264,"x_min":-40,"x_max":304,"o":"m 93 1024 l -40 1024 l -40 1157 l 93 1157 l 93 1024 m 304 1024 l 171 1024 l 171 1157 l 304 1157 l 304 1024 m 208 972 l 208 0 l 56 0 l 56 972 l 208 972 z "},"ì":{"ha":264,"x_min":-35,"x_max":217,"o":"m 217 1024 l 107 1024 l -35 1178 l 122 1178 l 217 1024 m 208 972 l 208 0 l 56 0 l 56 972 l 208 972 z "},"ĳ":{"ha":619,"x_min":56,"x_max":571,"o":"m 208 972 l 208 0 l 56 0 l 56 972 l 208 972 m 278 139 q 331 138 294 138 q 395 158 372 138 q 418 231 418 178 l 418 972 l 571 972 l 571 242 q 351 -3 571 -3 q 278 0 303 -3 l 278 139 z "},"ī":{"ha":264,"x_min":-28,"x_max":292,"o":"m 292 1029 l -28 1029 l -28 1138 l 292 1138 l 292 1029 m 208 972 l 208 0 l 56 0 l 56 972 l 208 972 z "},"į":{"ha":264,"x_min":22,"x_max":238,"o":"m 208 972 l 208 0 l 181 0 q 139 -81 139 -35 q 153 -109 139 -99 q 188 -119 167 -119 q 222 -116 210 -119 q 238 -111 233 -112 l 238 -189 q 194 -201 214 -199 q 143 -204 174 -204 q 54 -182 86 -204 q 22 -118 22 -160 q 46 -54 22 -85 q 115 0 69 -24 l 56 0 l 56 972 l 208 972 z "},"ĩ":{"ha":264,"x_min":-56,"x_max":321,"o":"m 188 1129 q 222 1138 208 1129 q 247 1169 236 1146 l 321 1118 q 203 1024 286 1024 q 166 1028 182 1024 q 129 1043 150 1033 q 78 1058 99 1058 q 43 1050 57 1058 q 18 1018 29 1042 l -56 1069 q 63 1164 -21 1164 q 99 1159 83 1164 q 136 1144 115 1154 q 188 1129 167 1129 m 208 972 l 208 0 l 56 0 l 56 972 l 208 972 z "},"j":{"ha":356,"x_min":14,"x_max":307,"o":"m 14 139 q 67 138 31 138 q 131 158 108 138 q 154 231 154 178 l 154 972 l 307 972 l 307 242 q 88 -3 307 -3 q 14 0 39 -3 l 14 139 z "},"ȷ":{"ha":356,"x_min":14,"x_max":307,"o":"m 14 139 q 67 138 31 138 q 131 158 108 138 q 154 231 154 178 l 154 972 l 307 972 l 307 242 q 88 -3 307 -3 q 14 0 39 -3 l 14 139 z "},"ĵ":{"ha":356,"x_min":13,"x_max":397,"o":"m 136 1178 l 274 1178 l 397 1024 l 267 1024 l 204 1100 l 143 1024 l 13 1024 l 136 1178 m 14 139 q 67 138 31 138 q 131 158 108 138 q 154 231 154 178 l 154 972 l 307 972 l 307 242 q 88 -3 307 -3 q 14 0 39 -3 l 14 139 z "},"k":{"ha":575,"x_min":56,"x_max":561,"o":"m 208 299 l 208 0 l 56 0 l 56 972 l 208 972 l 208 549 l 408 972 l 561 972 l 349 539 l 561 0 l 404 0 l 256 388 l 208 299 z "},"ĸ":{"ha":575,"x_min":56,"x_max":561,"o":"m 208 299 l 208 0 l 56 0 l 56 972 l 208 972 l 208 549 l 408 972 l 561 972 l 349 539 l 561 0 l 404 0 l 256 388 l 208 299 z "},"l":{"ha":471,"x_min":56,"x_max":460,"o":"m 208 972 l 208 139 l 460 139 l 460 0 l 56 0 l 56 972 l 208 972 z "},"ĺ":{"ha":471,"x_min":56,"x_max":460,"o":"m 203 1024 l 100 1024 l 194 1178 l 344 1178 l 203 1024 m 208 972 l 208 139 l 460 139 l 460 0 l 56 0 l 56 972 l 208 972 z "},"ľ":{"ha":471,"x_min":56,"x_max":460,"o":"m 208 972 l 208 139 l 460 139 l 460 0 l 56 0 l 56 972 l 208 972 m 293 972 l 440 972 l 440 840 l 374 686 l 311 686 l 351 825 l 293 825 l 293 972 z "},"ŀ":{"ha":471,"x_min":56,"x_max":460,"o":"m 208 972 l 208 139 l 460 139 l 460 0 l 56 0 l 56 972 l 208 972 m 439 413 l 292 413 l 292 560 l 439 560 l 439 413 z "},"ł":{"ha":483,"x_min":0,"x_max":472,"o":"m 68 343 l 68 972 l 221 972 l 221 507 l 389 688 l 389 549 l 221 368 l 221 139 l 472 139 l 472 0 l 68 0 l 68 204 l 0 132 l 0 271 l 68 343 z "},"m":{"ha":751,"x_min":54,"x_max":696,"o":"m 483 972 l 696 972 l 696 0 l 551 0 l 551 697 l 446 0 l 301 0 l 188 688 l 188 0 l 54 0 l 54 972 l 267 972 l 379 282 l 483 972 z "},"n":{"ha":593,"x_min":54,"x_max":539,"o":"m 192 0 l 54 0 l 54 972 l 246 972 l 403 390 l 403 972 l 539 972 l 539 0 l 382 0 l 192 704 l 192 0 z "},"ń":{"ha":593,"x_min":54,"x_max":539,"o":"m 318 1024 l 215 1024 l 310 1178 l 460 1178 l 318 1024 m 192 0 l 54 0 l 54 972 l 246 972 l 403 390 l 403 972 l 539 972 l 539 0 l 382 0 l 192 704 l 192 0 z "},"ŉ":{"ha":754,"x_min":7,"x_max":700,"o":"m 7 972 l 154 972 l 154 840 l 88 686 l 25 686 l 65 825 l 7 825 l 7 972 m 353 0 l 215 0 l 215 972 l 407 972 l 564 390 l 564 972 l 700 972 l 700 0 l 543 0 l 353 704 l 353 0 z "},"ň":{"ha":593,"x_min":54,"x_max":539,"o":"m 296 1100 l 358 1178 l 489 1178 l 365 1024 l 228 1024 l 104 1178 l 235 1178 l 296 1100 m 192 0 l 54 0 l 54 972 l 246 972 l 403 390 l 403 972 l 539 972 l 539 0 l 382 0 l 192 704 l 192 0 z "},"ñ":{"ha":593,"x_min":54,"x_max":539,"o":"m 351 1129 q 386 1138 372 1129 q 411 1169 400 1146 l 485 1118 q 367 1024 450 1024 q 330 1028 346 1024 q 293 1043 314 1033 q 242 1058 263 1058 q 207 1050 221 1058 q 182 1018 193 1042 l 108 1069 q 226 1164 143 1164 q 263 1159 247 1164 q 300 1144 279 1154 q 351 1129 331 1129 m 192 0 l 54 0 l 54 972 l 246 972 l 403 390 l 403 972 l 539 972 l 539 0 l 382 0 l 192 704 l 192 0 z "},"o":{"ha":550,"x_min":43,"x_max":507,"o":"m 43 739 q 103 919 43 856 q 275 983 163 983 q 447 919 388 983 q 507 739 507 856 l 507 233 q 447 53 507 117 q 275 -11 388 -11 q 103 53 163 -11 q 43 233 43 117 l 43 739 m 196 224 q 275 128 196 128 q 354 224 354 128 l 354 749 q 275 844 354 844 q 196 749 196 844 l 196 224 z "},"ó":{"ha":550,"x_min":43,"x_max":507,"o":"m 297 1024 l 194 1024 l 289 1178 l 439 1178 l 297 1024 m 43 739 q 103 919 43 856 q 275 983 163 983 q 447 919 388 983 q 507 739 507 856 l 507 233 q 447 53 507 117 q 275 -11 388 -11 q 103 53 163 -11 q 43 233 43 117 l 43 739 m 196 224 q 275 128 196 128 q 354 224 354 128 l 354 749 q 275 844 354 844 q 196 749 196 844 l 196 224 z "},"ŏ":{"ha":550,"x_min":43,"x_max":507,"o":"m 431 1178 q 390 1060 431 1103 q 274 1018 350 1018 q 159 1060 197 1018 q 119 1178 121 1103 l 210 1178 q 228 1126 213 1140 q 274 1113 243 1113 q 322 1126 306 1113 q 340 1178 338 1140 l 431 1178 m 43 739 q 103 919 43 856 q 275 983 163 983 q 447 919 388 983 q 507 739 507 856 l 507 233 q 447 53 507 117 q 275 -11 388 -11 q 103 53 163 -11 q 43 233 43 117 l 43 739 m 196 224 q 275 128 196 128 q 354 224 354 128 l 354 749 q 275 844 354 844 q 196 749 196 844 l 196 224 z "},"ô":{"ha":550,"x_min":43,"x_max":507,"o":"m 206 1178 l 343 1178 l 467 1024 l 336 1024 l 274 1100 l 213 1024 l 82 1024 l 206 1178 m 43 739 q 103 919 43 856 q 275 983 163 983 q 447 919 388 983 q 507 739 507 856 l 507 233 q 447 53 507 117 q 275 -11 388 -11 q 103 53 163 -11 q 43 233 43 117 l 43 739 m 196 224 q 275 128 196 128 q 354 224 354 128 l 354 749 q 275 844 354 844 q 196 749 196 844 l 196 224 z "},"ö":{"ha":550,"x_min":43,"x_max":507,"o":"m 236 1024 l 103 1024 l 103 1157 l 236 1157 l 236 1024 m 447 1024 l 314 1024 l 314 1157 l 447 1157 l 447 1024 m 43 739 q 103 919 43 856 q 275 983 163 983 q 447 919 388 983 q 507 739 507 856 l 507 233 q 447 53 507 117 q 275 -11 388 -11 q 103 53 163 -11 q 43 233 43 117 l 43 739 m 196 224 q 275 128 196 128 q 354 224 354 128 l 354 749 q 275 844 354 844 q 196 749 196 844 l 196 224 z "},"ò":{"ha":550,"x_min":43,"x_max":507,"o":"m 358 1024 l 249 1024 l 107 1178 l 264 1178 l 358 1024 m 43 739 q 103 919 43 856 q 275 983 163 983 q 447 919 388 983 q 507 739 507 856 l 507 233 q 447 53 507 117 q 275 -11 388 -11 q 103 53 163 -11 q 43 233 43 117 l 43 739 m 196 224 q 275 128 196 128 q 354 224 354 128 l 354 749 q 275 844 354 844 q 196 749 196 844 l 196 224 z "},"ő":{"ha":550,"x_min":43,"x_max":507,"o":"m 207 1024 l 114 1024 l 183 1178 l 322 1178 l 207 1024 m 388 1024 l 296 1024 l 364 1178 l 504 1178 l 388 1024 m 43 739 q 103 919 43 856 q 275 983 163 983 q 447 919 388 983 q 507 739 507 856 l 507 233 q 447 53 507 117 q 275 -11 388 -11 q 103 53 163 -11 q 43 233 43 117 l 43 739 m 196 224 q 275 128 196 128 q 354 224 354 128 l 354 749 q 275 844 354 844 q 196 749 196 844 l 196 224 z "},"ō":{"ha":550,"x_min":43,"x_max":507,"o":"m 435 1029 l 115 1029 l 115 1138 l 435 1138 l 435 1029 m 43 739 q 103 919 43 856 q 275 983 163 983 q 447 919 388 983 q 507 739 507 856 l 507 233 q 447 53 507 117 q 275 -11 388 -11 q 103 53 163 -11 q 43 233 43 117 l 43 739 m 196 224 q 275 128 196 128 q 354 224 354 128 l 354 749 q 275 844 354 844 q 196 749 196 844 l 196 224 z "},"ø":{"ha":550,"x_min":43,"x_max":507,"o":"m 43 739 q 103 919 43 856 q 275 983 163 983 q 414 947 358 983 l 442 1024 l 493 1006 l 457 907 q 507 739 507 846 l 507 233 q 447 53 507 117 q 275 -11 388 -11 q 136 24 189 -11 l 108 -51 l 57 -33 l 92 64 q 43 233 43 128 l 43 739 m 351 778 q 275 844 342 844 q 196 749 196 844 l 196 349 l 351 778 m 275 128 q 354 224 354 128 l 354 624 l 197 194 q 275 128 208 128 z "},"ǿ":{"ha":550,"x_min":43,"x_max":507,"o":"m 297 1024 l 194 1024 l 289 1178 l 439 1178 l 297 1024 m 43 739 q 103 919 43 856 q 275 983 163 983 q 414 947 358 983 l 442 1024 l 493 1006 l 457 907 q 507 739 507 846 l 507 233 q 447 53 507 117 q 275 -11 388 -11 q 136 24 189 -11 l 108 -51 l 57 -33 l 92 64 q 43 233 43 128 l 43 739 m 351 778 q 275 844 342 844 q 196 749 196 844 l 196 349 l 351 778 m 275 128 q 354 224 354 128 l 354 624 l 197 194 q 275 128 208 128 z "},"õ":{"ha":550,"x_min":43,"x_max":507,"o":"m 331 1129 q 365 1138 351 1129 q 390 1169 379 1146 l 464 1118 q 346 1024 429 1024 q 309 1028 325 1024 q 272 1043 293 1033 q 221 1058 242 1058 q 186 1050 200 1058 q 161 1018 172 1042 l 88 1069 q 206 1164 122 1164 q 242 1159 226 1164 q 279 1144 258 1154 q 331 1129 310 1129 m 43 739 q 103 919 43 856 q 275 983 163 983 q 447 919 388 983 q 507 739 507 856 l 507 233 q 447 53 507 117 q 275 -11 388 -11 q 103 53 163 -11 q 43 233 43 117 l 43 739 m 196 224 q 275 128 196 128 q 354 224 354 128 l 354 749 q 275 844 354 844 q 196 749 196 844 l 196 224 z "},"œ":{"ha":814,"x_min":42,"x_max":775,"o":"m 721 563 l 721 424 l 511 424 l 511 139 l 775 139 l 775 0 l 269 0 q 99 61 156 0 q 42 240 42 122 l 42 732 q 99 911 42 850 q 269 972 156 972 l 775 972 l 775 833 l 511 833 l 511 563 l 721 563 m 272 833 q 215 811 235 833 q 194 739 194 789 l 194 233 q 215 161 194 183 q 272 139 235 139 l 358 139 l 358 833 l 272 833 z "},"p":{"ha":524,"x_min":56,"x_max":508,"o":"m 281 972 q 451 911 394 972 q 508 732 508 850 l 508 606 q 451 426 508 488 q 281 365 394 365 l 208 365 l 208 0 l 56 0 l 56 972 l 281 972 m 208 504 l 281 504 q 337 525 318 504 q 356 596 356 546 l 356 742 q 337 813 356 792 q 281 833 318 833 l 208 833 l 208 504 z "},"þ":{"ha":524,"x_min":56,"x_max":508,"o":"m 208 972 l 208 861 l 281 861 q 451 800 394 861 q 508 621 508 739 l 508 494 q 451 315 508 376 q 281 254 394 254 l 208 254 l 208 0 l 56 0 l 56 972 l 208 972 m 208 393 l 281 393 q 337 414 318 393 q 356 485 356 435 l 356 631 q 337 701 356 681 q 281 722 318 722 l 208 722 l 208 393 z "},"q":{"ha":550,"x_min":43,"x_max":535,"o":"m 43 739 q 103 919 43 856 q 275 983 163 983 q 447 919 388 983 q 507 739 507 856 l 507 233 q 478 97 507 151 q 492 81 483 85 q 521 76 501 76 l 535 76 l 535 -60 l 514 -60 q 382 7 415 -60 q 275 -11 332 -11 q 103 53 163 -11 q 43 233 43 117 l 43 739 m 196 224 q 275 128 196 128 q 354 224 354 128 l 354 749 q 275 844 354 844 q 196 749 196 844 l 196 224 z "},"r":{"ha":558,"x_min":56,"x_max":531,"o":"m 375 0 q 364 44 367 24 q 361 119 361 65 l 361 272 q 338 367 361 339 q 261 396 314 396 l 208 396 l 208 0 l 56 0 l 56 972 l 286 972 q 458 917 404 972 q 513 749 513 863 l 513 672 q 413 475 513 522 q 490 401 467 453 q 514 268 514 349 l 514 118 q 517 51 514 76 q 531 0 519 25 l 375 0 m 208 535 l 268 535 q 337 558 314 535 q 360 638 360 582 l 360 733 q 341 810 360 786 q 282 833 322 833 l 208 833 l 208 535 z "},"ŕ":{"ha":558,"x_min":56,"x_max":531,"o":"m 293 1024 l 190 1024 l 285 1178 l 435 1178 l 293 1024 m 375 0 q 364 44 367 24 q 361 119 361 65 l 361 272 q 338 367 361 339 q 261 396 314 396 l 208 396 l 208 0 l 56 0 l 56 972 l 286 972 q 458 917 404 972 q 513 749 513 863 l 513 672 q 413 475 513 522 q 490 401 467 453 q 514 268 514 349 l 514 118 q 517 51 514 76 q 531 0 519 25 l 375 0 m 208 535 l 268 535 q 337 558 314 535 q 360 638 360 582 l 360 733 q 341 810 360 786 q 282 833 322 833 l 208 833 l 208 535 z "},"ř":{"ha":558,"x_min":56,"x_max":531,"o":"m 269 1100 l 332 1178 l 463 1178 l 339 1024 l 201 1024 l 78 1178 l 208 1178 l 269 1100 m 375 0 q 364 44 367 24 q 361 119 361 65 l 361 272 q 338 367 361 339 q 261 396 314 396 l 208 396 l 208 0 l 56 0 l 56 972 l 286 972 q 458 917 404 972 q 513 749 513 863 l 513 672 q 413 475 513 522 q 490 401 467 453 q 514 268 514 349 l 514 118 q 517 51 514 76 q 531 0 519 25 l 375 0 m 208 535 l 268 535 q 337 558 314 535 q 360 638 360 582 l 360 733 q 341 810 360 786 q 282 833 322 833 l 208 833 l 208 535 z "},"s":{"ha":519,"x_min":32,"x_max":488,"o":"m 36 739 q 93 920 36 857 q 261 983 150 983 q 429 920 372 983 q 486 739 486 857 l 486 708 l 342 708 l 342 749 q 322 822 342 799 q 265 844 303 844 q 208 822 228 844 q 189 749 189 799 q 222 642 189 688 q 319 538 254 596 q 407 449 374 488 q 464 357 440 411 q 488 233 488 303 q 429 52 488 115 q 260 -11 371 -11 q 90 52 149 -11 q 32 233 32 115 l 32 293 l 176 293 l 176 224 q 256 129 176 129 q 335 224 335 129 q 302 331 335 285 q 204 435 269 376 q 117 523 150 485 q 60 615 83 561 q 36 739 36 669 z "},"ś":{"ha":519,"x_min":32,"x_max":488,"o":"m 282 1024 l 179 1024 l 274 1178 l 424 1178 l 282 1024 m 36 739 q 93 920 36 857 q 261 983 150 983 q 429 920 372 983 q 486 739 486 857 l 486 708 l 342 708 l 342 749 q 322 822 342 799 q 265 844 303 844 q 208 822 228 844 q 189 749 189 799 q 222 642 189 688 q 319 538 254 596 q 407 449 374 488 q 464 357 440 411 q 488 233 488 303 q 429 52 488 115 q 260 -11 371 -11 q 90 52 149 -11 q 32 233 32 115 l 32 293 l 176 293 l 176 224 q 256 129 176 129 q 335 224 335 129 q 302 331 335 285 q 204 435 269 376 q 117 523 150 485 q 60 615 83 561 q 36 739 36 669 z "},"š":{"ha":519,"x_min":32,"x_max":488,"o":"m 258 1100 l 321 1178 l 451 1178 l 328 1024 l 190 1024 l 67 1178 l 197 1178 l 258 1100 m 36 739 q 93 920 36 857 q 261 983 150 983 q 429 920 372 983 q 486 739 486 857 l 486 708 l 342 708 l 342 749 q 322 822 342 799 q 265 844 303 844 q 208 822 228 844 q 189 749 189 799 q 222 642 189 688 q 319 538 254 596 q 407 449 374 488 q 464 357 440 411 q 488 233 488 303 q 429 52 488 115 q 260 -11 371 -11 q 90 52 149 -11 q 32 233 32 115 l 32 293 l 176 293 l 176 224 q 256 129 176 129 q 335 224 335 129 q 302 331 335 285 q 204 435 269 376 q 117 523 150 485 q 60 615 83 561 q 36 739 36 669 z "},"ş":{"ha":519,"x_min":32,"x_max":488,"o":"m 36 739 q 93 920 36 857 q 261 983 150 983 q 429 920 372 983 q 486 739 486 857 l 486 708 l 342 708 l 342 749 q 322 822 342 799 q 265 844 303 844 q 208 822 228 844 q 189 749 189 799 q 222 642 189 688 q 319 538 254 596 q 407 449 374 488 q 464 357 440 411 q 488 233 488 303 q 436 60 488 122 q 285 -10 385 -3 l 285 -54 q 363 -69 338 -54 q 388 -119 388 -83 q 353 -187 388 -171 q 247 -204 318 -204 q 149 -186 183 -204 q 114 -124 114 -168 l 114 -110 l 217 -110 l 217 -121 q 226 -142 217 -135 q 247 -149 235 -149 q 282 -115 282 -149 q 269 -87 282 -96 q 232 -79 257 -79 l 218 -79 l 218 -8 q 79 65 126 3 q 32 233 32 128 l 32 293 l 176 293 l 176 224 q 256 129 176 129 q 335 224 335 129 q 302 331 335 285 q 204 435 269 376 q 117 523 150 485 q 60 615 83 561 q 36 739 36 669 z "},"ŝ":{"ha":519,"x_min":32,"x_max":488,"o":"m 190 1178 l 328 1178 l 451 1024 l 321 1024 l 258 1100 l 197 1024 l 67 1024 l 190 1178 m 36 739 q 93 920 36 857 q 261 983 150 983 q 429 920 372 983 q 486 739 486 857 l 486 708 l 342 708 l 342 749 q 322 822 342 799 q 265 844 303 844 q 208 822 228 844 q 189 749 189 799 q 222 642 189 688 q 319 538 254 596 q 407 449 374 488 q 464 357 440 411 q 488 233 488 303 q 429 52 488 115 q 260 -11 371 -11 q 90 52 149 -11 q 32 233 32 115 l 32 293 l 176 293 l 176 224 q 256 129 176 129 q 335 224 335 129 q 302 331 335 285 q 204 435 269 376 q 117 523 150 485 q 60 615 83 561 q 36 739 36 669 z "},"ß":{"ha":1039,"x_min":32,"x_max":1007,"o":"m 36 739 q 93 920 36 857 q 261 983 150 983 q 429 920 372 983 q 486 739 486 857 l 486 708 l 342 708 l 342 749 q 322 822 342 799 q 265 844 303 844 q 208 822 228 844 q 189 749 189 799 q 222 642 189 688 q 319 538 254 596 q 407 449 374 488 q 464 357 440 411 q 488 233 488 303 q 429 52 488 115 q 260 -11 371 -11 q 90 52 149 -11 q 32 233 32 115 l 32 293 l 176 293 l 176 224 q 256 129 176 129 q 335 224 335 129 q 302 331 335 285 q 204 435 269 376 q 117 523 150 485 q 60 615 83 561 q 36 739 36 669 m 556 739 q 613 920 556 857 q 781 983 669 983 q 949 920 892 983 q 1006 739 1006 857 l 1006 708 l 861 708 l 861 749 q 842 822 861 799 q 785 844 822 844 q 728 822 747 844 q 708 749 708 799 q 741 642 708 688 q 839 538 774 596 q 926 449 893 488 q 983 357 960 411 q 1007 233 1007 303 q 949 52 1007 115 q 779 -11 890 -11 q 610 52 668 -11 q 551 233 551 115 l 551 293 l 696 293 l 696 224 q 775 129 696 129 q 854 224 854 129 q 822 331 854 285 q 724 435 789 376 q 636 523 669 485 q 579 615 603 561 q 556 739 556 669 z "},"t":{"ha":494,"x_min":11,"x_max":483,"o":"m 483 972 l 483 833 l 324 833 l 324 0 l 171 0 l 171 833 l 11 833 l 11 972 l 483 972 z "},"ŧ":{"ha":494,"x_min":11,"x_max":483,"o":"m 171 833 l 11 833 l 11 972 l 483 972 l 483 833 l 324 833 l 324 676 l 415 676 l 415 563 l 324 563 l 324 0 l 171 0 l 171 563 l 79 563 l 79 676 l 171 676 l 171 833 z "},"ť":{"ha":494,"x_min":11,"x_max":483,"o":"m 246 1100 l 308 1178 l 439 1178 l 315 1024 l 178 1024 l 54 1178 l 185 1178 l 246 1100 m 483 972 l 483 833 l 324 833 l 324 0 l 171 0 l 171 833 l 11 833 l 11 972 l 483 972 z "},"u":{"ha":553,"x_min":49,"x_max":504,"o":"m 201 222 q 281 128 201 128 q 360 222 360 128 l 360 972 l 504 972 l 504 232 q 446 51 504 114 q 276 -12 388 -12 q 107 51 165 -12 q 49 232 49 114 l 49 972 l 201 972 l 201 222 z "},"ú":{"ha":553,"x_min":49,"x_max":504,"o":"m 300 1024 l 197 1024 l 292 1178 l 442 1178 l 300 1024 m 201 222 q 281 128 201 128 q 360 222 360 128 l 360 972 l 504 972 l 504 232 q 446 51 504 114 q 276 -12 388 -12 q 107 51 165 -12 q 49 232 49 114 l 49 972 l 201 972 l 201 222 z "},"ŭ":{"ha":553,"x_min":49,"x_max":504,"o":"m 433 1178 q 393 1060 433 1103 q 276 1018 353 1018 q 162 1060 200 1018 q 122 1178 124 1103 l 213 1178 q 231 1126 215 1140 q 276 1113 246 1113 q 324 1126 308 1113 q 343 1178 340 1140 l 433 1178 m 201 222 q 281 128 201 128 q 360 222 360 128 l 360 972 l 504 972 l 504 232 q 446 51 504 114 q 276 -12 388 -12 q 107 51 165 -12 q 49 232 49 114 l 49 972 l 201 972 l 201 222 z "},"û":{"ha":553,"x_min":49,"x_max":504,"o":"m 210 1178 l 347 1178 l 471 1024 l 340 1024 l 278 1100 l 217 1024 l 86 1024 l 210 1178 m 201 222 q 281 128 201 128 q 360 222 360 128 l 360 972 l 504 972 l 504 232 q 446 51 504 114 q 276 -12 388 -12 q 107 51 165 -12 q 49 232 49 114 l 49 972 l 201 972 l 201 222 z "},"ü":{"ha":553,"x_min":49,"x_max":504,"o":"m 240 1024 l 107 1024 l 107 1157 l 240 1157 l 240 1024 m 451 1024 l 318 1024 l 318 1157 l 451 1157 l 451 1024 m 201 222 q 281 128 201 128 q 360 222 360 128 l 360 972 l 504 972 l 504 232 q 446 51 504 114 q 276 -12 388 -12 q 107 51 165 -12 q 49 232 49 114 l 49 972 l 201 972 l 201 222 z "},"ù":{"ha":553,"x_min":49,"x_max":504,"o":"m 361 1024 l 251 1024 l 110 1178 l 267 1178 l 361 1024 m 201 222 q 281 128 201 128 q 360 222 360 128 l 360 972 l 504 972 l 504 232 q 446 51 504 114 q 276 -12 388 -12 q 107 51 165 -12 q 49 232 49 114 l 49 972 l 201 972 l 201 222 z "},"ű":{"ha":553,"x_min":49,"x_max":507,"o":"m 210 1024 l 117 1024 l 186 1178 l 325 1178 l 210 1024 m 390 1024 l 299 1024 l 367 1178 l 507 1178 l 390 1024 m 201 222 q 281 128 201 128 q 360 222 360 128 l 360 972 l 504 972 l 504 232 q 446 51 504 114 q 276 -12 388 -12 q 107 51 165 -12 q 49 232 49 114 l 49 972 l 201 972 l 201 222 z "},"ū":{"ha":553,"x_min":49,"x_max":504,"o":"m 438 1029 l 118 1029 l 118 1138 l 438 1138 l 438 1029 m 201 222 q 281 128 201 128 q 360 222 360 128 l 360 972 l 504 972 l 504 232 q 446 51 504 114 q 276 -12 388 -12 q 107 51 165 -12 q 49 232 49 114 l 49 972 l 201 972 l 201 222 z "},"ģ":{"ha":542,"x_min":43,"x_max":499,"o":"m 499 542 l 499 233 q 440 52 499 115 q 271 -11 382 -11 q 101 52 160 -11 q 43 233 43 115 l 43 739 q 101 920 43 857 q 271 983 160 983 q 440 920 382 983 q 499 739 499 857 l 499 644 l 354 644 l 354 749 q 275 844 354 844 q 196 749 196 844 l 196 224 q 275 129 196 129 q 354 224 354 129 l 354 403 l 285 403 l 285 542 l 499 542 m 207 -46 l 335 -46 l 335 -160 l 275 -249 l 221 -249 l 257 -174 l 207 -174 l 207 -46 z "},"ķ":{"ha":575,"x_min":56,"x_max":561,"o":"m 208 299 l 208 0 l 56 0 l 56 972 l 208 972 l 208 549 l 408 972 l 561 972 l 349 539 l 561 0 l 404 0 l 256 388 l 208 299 m 235 -46 l 363 -46 l 363 -160 l 303 -249 l 249 -249 l 285 -174 l 235 -174 l 235 -46 z "},"ļ":{"ha":471,"x_min":56,"x_max":460,"o":"m 208 972 l 208 139 l 460 139 l 460 0 l 56 0 l 56 972 l 208 972 m 194 -46 l 322 -46 l 322 -160 l 263 -249 l 208 -249 l 244 -174 l 194 -174 l 194 -46 z "},"ņ":{"ha":593,"x_min":54,"x_max":539,"o":"m 192 0 l 54 0 l 54 972 l 246 972 l 403 390 l 403 972 l 539 972 l 539 0 l 382 0 l 192 704 l 192 0 m 232 -46 l 360 -46 l 360 -160 l 300 -249 l 246 -249 l 282 -174 l 232 -174 l 232 -46 z "},"ŗ":{"ha":558,"x_min":56,"x_max":531,"o":"m 375 0 q 364 44 367 24 q 361 119 361 65 l 361 272 q 338 367 361 339 q 261 396 314 396 l 208 396 l 208 0 l 56 0 l 56 972 l 286 972 q 458 917 404 972 q 513 749 513 863 l 513 672 q 413 475 513 522 q 490 401 467 453 q 514 268 514 349 l 514 118 q 517 51 514 76 q 531 0 519 25 l 375 0 m 208 535 l 268 535 q 337 558 314 535 q 360 638 360 582 l 360 733 q 341 810 360 786 q 282 833 322 833 l 208 833 l 208 535 m 218 -46 l 346 -46 l 346 -160 l 286 -249 l 232 -249 l 268 -174 l 218 -174 l 218 -46 z "},"ţ":{"ha":494,"x_min":11,"x_max":483,"o":"m 211 -137 l 211 -151 q 240 -176 211 -176 q 276 -140 276 -176 q 226 -101 276 -101 l 211 -101 l 211 0 l 171 0 l 171 833 l 11 833 l 11 972 l 483 972 l 483 833 l 324 833 l 324 0 l 281 0 l 281 -54 q 344 -76 321 -54 q 368 -133 368 -97 q 333 -219 368 -192 q 242 -247 297 -247 q 157 -222 192 -247 q 122 -151 122 -197 l 122 -137 l 211 -137 z "},"ș":{"ha":519,"x_min":32,"x_max":488,"o":"m 36 739 q 93 920 36 857 q 261 983 150 983 q 429 920 372 983 q 486 739 486 857 l 486 708 l 342 708 l 342 749 q 322 822 342 799 q 265 844 303 844 q 208 822 228 844 q 189 749 189 799 q 222 642 189 688 q 319 538 254 596 q 407 449 374 488 q 464 357 440 411 q 488 233 488 303 q 429 52 488 115 q 260 -11 371 -11 q 90 52 149 -11 q 32 233 32 115 l 32 293 l 176 293 l 176 224 q 256 129 176 129 q 335 224 335 129 q 302 331 335 285 q 204 435 269 376 q 117 523 150 485 q 60 615 83 561 q 36 739 36 669 m 192 -46 l 319 -46 l 319 -160 l 260 -249 l 206 -249 l 242 -174 l 192 -174 l 192 -46 z "},"ț":{"ha":494,"x_min":11,"x_max":483,"o":"m 483 972 l 483 833 l 324 833 l 324 0 l 171 0 l 171 833 l 11 833 l 11 972 l 483 972 m 183 -46 l 311 -46 l 311 -160 l 251 -249 l 197 -249 l 233 -174 l 183 -174 l 183 -46 z "},"ḃ":{"ha":564,"x_min":56,"x_max":528,"o":"m 325 1024 l 192 1024 l 192 1157 l 325 1157 l 325 1024 m 286 972 q 458 917 404 972 q 513 749 513 863 l 513 714 q 488 590 513 639 q 414 518 464 542 q 528 310 528 474 l 528 231 q 469 59 528 118 q 296 0 410 0 l 56 0 l 56 972 l 286 972 m 208 576 l 268 576 q 337 600 314 576 q 360 679 360 624 l 360 733 q 341 810 360 786 q 282 833 322 833 l 208 833 l 208 576 m 208 139 l 296 139 q 356 160 336 139 q 375 235 375 182 l 375 319 q 352 412 375 386 q 276 438 329 438 l 208 438 l 208 139 z "},"ḋ":{"ha":567,"x_min":56,"x_max":525,"o":"m 336 1024 l 203 1024 l 203 1157 l 336 1157 l 336 1024 m 297 972 q 468 911 411 972 q 525 732 525 850 l 525 240 q 468 61 525 122 q 297 0 411 0 l 56 0 l 56 972 l 297 972 m 208 139 l 294 139 q 352 161 332 139 q 372 233 372 183 l 372 739 q 352 811 372 789 q 294 833 332 833 l 208 833 l 208 139 z "},"ḟ":{"ha":478,"x_min":56,"x_max":460,"o":"m 319 1024 l 186 1024 l 186 1157 l 319 1157 l 319 1024 m 406 540 l 406 401 l 208 401 l 208 0 l 56 0 l 56 972 l 460 972 l 460 833 l 208 833 l 208 540 l 406 540 z "},"ṁ":{"ha":751,"x_min":54,"x_max":696,"o":"m 442 1024 l 308 1024 l 308 1157 l 442 1157 l 442 1024 m 483 972 l 696 972 l 696 0 l 551 0 l 551 697 l 446 0 l 301 0 l 188 688 l 188 0 l 54 0 l 54 972 l 267 972 l 379 282 l 483 972 z "},"ṗ":{"ha":524,"x_min":56,"x_max":508,"o":"m 331 1024 l 197 1024 l 197 1157 l 331 1157 l 331 1024 m 281 972 q 451 911 394 972 q 508 732 508 850 l 508 606 q 451 426 508 488 q 281 365 394 365 l 208 365 l 208 0 l 56 0 l 56 972 l 281 972 m 208 504 l 281 504 q 337 525 318 504 q 356 596 356 546 l 356 742 q 337 813 356 792 q 281 833 318 833 l 208 833 l 208 504 z "},"ṡ":{"ha":519,"x_min":32,"x_max":488,"o":"m 326 1024 l 193 1024 l 193 1157 l 326 1157 l 326 1024 m 36 739 q 93 920 36 857 q 261 983 150 983 q 429 920 372 983 q 486 739 486 857 l 486 708 l 342 708 l 342 749 q 322 822 342 799 q 265 844 303 844 q 208 822 228 844 q 189 749 189 799 q 222 642 189 688 q 319 538 254 596 q 407 449 374 488 q 464 357 440 411 q 488 233 488 303 q 429 52 488 115 q 260 -11 371 -11 q 90 52 149 -11 q 32 233 32 115 l 32 293 l 176 293 l 176 224 q 256 129 176 129 q 335 224 335 129 q 302 331 335 285 q 204 435 269 376 q 117 523 150 485 q 60 615 83 561 q 36 739 36 669 z "},"ṫ":{"ha":494,"x_min":11,"x_max":483,"o":"m 314 1024 l 181 1024 l 181 1157 l 314 1157 l 314 1024 m 483 972 l 483 833 l 324 833 l 324 0 l 171 0 l 171 833 l 11 833 l 11 972 l 483 972 z "},"ų":{"ha":553,"x_min":49,"x_max":504,"o":"m 201 222 q 281 128 201 128 q 360 222 360 128 l 360 972 l 504 972 l 504 232 q 486 106 504 160 q 417 11 468 51 q 380 -35 390 -10 q 369 -81 369 -60 q 383 -109 369 -99 q 418 -119 397 -119 q 452 -116 440 -119 q 468 -111 464 -112 l 468 -189 q 424 -201 444 -199 q 374 -204 404 -204 q 285 -182 317 -204 q 253 -118 253 -160 q 333 -7 253 -54 q 276 -12 310 -12 q 107 51 165 -12 q 49 232 49 114 l 49 972 l 201 972 l 201 222 z "},"ů":{"ha":553,"x_min":49,"x_max":504,"o":"m 167 1131 q 199 1210 167 1178 q 278 1242 231 1242 q 357 1210 325 1242 q 389 1131 389 1178 q 357 1051 389 1083 q 278 1019 325 1019 q 199 1051 231 1019 q 167 1131 167 1083 m 236 1131 q 248 1101 236 1113 q 278 1089 260 1089 q 308 1101 296 1089 q 319 1131 319 1113 q 308 1160 319 1149 q 278 1172 296 1172 q 248 1160 260 1172 q 236 1131 236 1149 m 201 222 q 281 128 201 128 q 360 222 360 128 l 360 972 l 504 972 l 504 232 q 446 51 504 114 q 276 -12 388 -12 q 107 51 165 -12 q 49 232 49 114 l 49 972 l 201 972 l 201 222 z "},"ũ":{"ha":553,"x_min":49,"x_max":504,"o":"m 333 1129 q 368 1138 354 1129 q 393 1169 382 1146 l 467 1118 q 349 1024 432 1024 q 312 1028 328 1024 q 275 1043 296 1033 q 224 1058 244 1058 q 189 1050 203 1058 q 164 1018 175 1042 l 90 1069 q 208 1164 125 1164 q 245 1159 229 1164 q 282 1144 261 1154 q 333 1129 313 1129 m 201 222 q 281 128 201 128 q 360 222 360 128 l 360 972 l 504 972 l 504 232 q 446 51 504 114 q 276 -12 388 -12 q 107 51 165 -12 q 49 232 49 114 l 49 972 l 201 972 l 201 222 z "},"v":{"ha":558,"x_min":15,"x_max":543,"o":"m 403 972 l 543 972 l 393 0 l 165 0 l 15 972 l 169 972 l 286 179 l 403 972 z "},"w":{"ha":782,"x_min":21,"x_max":761,"o":"m 339 0 l 129 0 l 21 972 l 169 972 l 251 206 l 325 972 l 472 972 l 549 200 l 628 972 l 761 972 l 653 0 l 450 0 l 394 518 l 339 0 z "},"ẃ":{"ha":782,"x_min":21,"x_max":761,"o":"m 413 1024 l 310 1024 l 404 1178 l 554 1178 l 413 1024 m 339 0 l 129 0 l 21 972 l 169 972 l 251 206 l 325 972 l 472 972 l 549 200 l 628 972 l 761 972 l 653 0 l 450 0 l 394 518 l 339 0 z "},"ŵ":{"ha":782,"x_min":21,"x_max":761,"o":"m 322 1178 l 460 1178 l 583 1024 l 453 1024 l 390 1100 l 329 1024 l 199 1024 l 322 1178 m 339 0 l 129 0 l 21 972 l 169 972 l 251 206 l 325 972 l 472 972 l 549 200 l 628 972 l 761 972 l 653 0 l 450 0 l 394 518 l 339 0 z "},"ẅ":{"ha":782,"x_min":21,"x_max":761,"o":"m 351 1024 l 218 1024 l 218 1157 l 351 1157 l 351 1024 m 563 1024 l 429 1024 l 429 1157 l 563 1157 l 563 1024 m 339 0 l 129 0 l 21 972 l 169 972 l 251 206 l 325 972 l 472 972 l 549 200 l 628 972 l 761 972 l 653 0 l 450 0 l 394 518 l 339 0 z "},"ẁ":{"ha":782,"x_min":21,"x_max":761,"o":"m 475 1024 l 365 1024 l 224 1178 l 381 1178 l 475 1024 m 339 0 l 129 0 l 21 972 l 169 972 l 251 206 l 325 972 l 472 972 l 549 200 l 628 972 l 761 972 l 653 0 l 450 0 l 394 518 l 339 0 z "},"x":{"ha":597,"x_min":21,"x_max":576,"o":"m 406 500 l 576 0 l 415 0 l 290 385 l 164 0 l 21 0 l 192 500 l 32 972 l 190 972 l 306 614 l 424 972 l 565 972 l 406 500 z "},"y":{"ha":550,"x_min":6,"x_max":544,"o":"m 6 972 l 165 972 l 282 529 l 399 972 l 544 972 l 351 322 l 351 0 l 199 0 l 199 322 l 6 972 z "},"ý":{"ha":550,"x_min":6,"x_max":544,"o":"m 303 1024 l 200 1024 l 294 1178 l 444 1178 l 303 1024 m 6 972 l 165 972 l 282 529 l 399 972 l 544 972 l 351 322 l 351 0 l 199 0 l 199 322 l 6 972 z "},"ŷ":{"ha":550,"x_min":6,"x_max":544,"o":"m 213 1178 l 350 1178 l 474 1024 l 343 1024 l 281 1100 l 219 1024 l 89 1024 l 213 1178 m 6 972 l 165 972 l 282 529 l 399 972 l 544 972 l 351 322 l 351 0 l 199 0 l 199 322 l 6 972 z "},"ÿ":{"ha":550,"x_min":6,"x_max":544,"o":"m 242 1024 l 108 1024 l 108 1157 l 242 1157 l 242 1024 m 453 1024 l 319 1024 l 319 1157 l 453 1157 l 453 1024 m 6 972 l 165 972 l 282 529 l 399 972 l 544 972 l 351 322 l 351 0 l 199 0 l 199 322 l 6 972 z "},"ỳ":{"ha":550,"x_min":6,"x_max":544,"o":"m 365 1024 l 256 1024 l 114 1178 l 271 1178 l 365 1024 m 6 972 l 165 972 l 282 529 l 399 972 l 544 972 l 351 322 l 351 0 l 199 0 l 199 322 l 6 972 z "},"z":{"ha":514,"x_min":32,"x_max":479,"o":"m 479 836 l 189 139 l 479 139 l 479 0 l 32 0 l 32 136 l 322 833 l 46 833 l 46 972 l 479 972 l 479 836 z "},"ź":{"ha":514,"x_min":32,"x_max":479,"o":"m 281 1024 l 178 1024 l 272 1178 l 422 1178 l 281 1024 m 479 836 l 189 139 l 479 139 l 479 0 l 32 0 l 32 136 l 322 833 l 46 833 l 46 972 l 479 972 l 479 836 z "},"ž":{"ha":514,"x_min":32,"x_max":479,"o":"m 258 1100 l 321 1178 l 451 1178 l 328 1024 l 190 1024 l 67 1178 l 197 1178 l 258 1100 m 479 836 l 189 139 l 479 139 l 479 0 l 32 0 l 32 136 l 322 833 l 46 833 l 46 972 l 479 972 l 479 836 z "},"ż":{"ha":514,"x_min":32,"x_max":479,"o":"m 325 1024 l 192 1024 l 192 1157 l 325 1157 l 325 1024 m 479 836 l 189 139 l 479 139 l 479 0 l 32 0 l 32 136 l 322 833 l 46 833 l 46 972 l 479 972 l 479 836 z "},"ª":{"ha":386,"x_min":42,"x_max":336,"o":"m 42 601 q 93 733 42 694 q 239 775 144 772 l 239 839 q 229 878 239 865 q 200 890 219 890 q 165 876 176 890 q 153 831 153 863 l 153 799 l 61 799 l 61 825 q 97 939 61 899 q 204 979 133 979 q 336 825 336 979 l 336 463 l 254 463 l 249 529 q 150 456 225 456 q 42 596 42 456 l 42 601 m 139 604 q 189 544 139 544 q 225 556 213 544 q 239 594 238 568 l 239 703 q 139 617 139 699 l 139 604 m 336 303 l 42 303 l 42 399 l 336 399 l 336 303 z "},"º":{"ha":389,"x_min":47,"x_max":342,"o":"m 47 825 q 85 939 47 899 q 194 979 124 979 q 303 939 265 979 q 342 825 342 899 l 342 610 q 303 496 342 536 q 194 456 265 456 q 85 496 124 456 q 47 610 47 536 l 47 825 m 144 604 q 157 558 144 572 q 194 544 169 544 q 244 604 244 544 l 244 831 q 194 890 244 890 q 157 876 169 890 q 144 831 144 863 l 144 604 m 342 303 l 47 303 l 47 399 l 342 399 l 342 303 z "},"А":{"ha":565,"x_min":15,"x_max":550,"o":"m 396 0 l 369 176 l 182 176 l 156 0 l 15 0 l 171 972 l 394 972 l 550 0 l 396 0 m 349 308 l 275 800 l 201 308 l 349 308 z "},"Б":{"ha":576,"x_min":57,"x_max":529,"o":"m 57 972 l 485 972 l 485 833 l 210 833 l 210 585 l 299 585 q 471 523 413 585 q 529 344 529 461 l 529 240 q 471 62 529 124 q 299 0 413 0 l 57 0 l 57 972 m 299 139 q 357 160 338 139 q 376 231 376 181 l 376 354 q 357 425 376 404 q 299 446 338 446 l 210 446 l 210 139 l 299 139 z "},"В":{"ha":564,"x_min":56,"x_max":528,"o":"m 286 972 q 458 917 404 972 q 513 749 513 863 l 513 714 q 488 590 513 639 q 414 518 464 542 q 528 310 528 474 l 528 231 q 469 59 528 118 q 296 0 410 0 l 56 0 l 56 972 l 286 972 m 208 576 l 268 576 q 337 600 314 576 q 360 679 360 624 l 360 733 q 341 810 360 786 q 282 833 322 833 l 208 833 l 208 576 m 208 139 l 296 139 q 356 160 336 139 q 375 235 375 182 l 375 319 q 352 412 375 386 q 276 438 329 438 l 208 438 l 208 139 z "},"Г":{"ha":507,"x_min":57,"x_max":460,"o":"m 57 972 l 460 972 l 460 833 l 210 833 l 210 0 l 57 0 l 57 972 z "},"Д":{"ha":678,"x_min":22,"x_max":649,"o":"m 497 0 l 171 0 l 171 -131 l 22 -131 l 22 136 l 82 136 q 109 189 101 160 q 119 263 117 218 l 154 972 l 582 972 l 582 136 l 649 136 l 649 -131 l 497 -131 l 497 0 m 269 265 q 256 183 267 213 q 226 136 246 154 l 426 136 l 426 833 l 297 833 l 269 265 z "},"Е":{"ha":511,"x_min":56,"x_max":472,"o":"m 418 563 l 418 424 l 208 424 l 208 139 l 472 139 l 472 0 l 56 0 l 56 972 l 472 972 l 472 833 l 208 833 l 208 563 l 418 563 z "},"Ё":{"ha":511,"x_min":56,"x_max":472,"o":"m 224 1024 l 90 1024 l 90 1157 l 224 1157 l 224 1024 m 435 1024 l 301 1024 l 301 1157 l 435 1157 l 435 1024 m 418 563 l 418 424 l 208 424 l 208 139 l 472 139 l 472 0 l 56 0 l 56 972 l 472 972 l 472 833 l 208 833 l 208 563 l 418 563 z "},"Ж":{"ha":839,"x_min":11,"x_max":829,"o":"m 676 972 l 829 972 l 642 578 l 829 0 l 672 0 l 533 431 l 496 357 l 496 0 l 344 0 l 344 357 l 307 432 l 168 0 l 11 0 l 200 574 l 11 972 l 164 972 l 344 579 l 344 972 l 496 972 l 496 579 l 676 972 z "},"З":{"ha":550,"x_min":47,"x_max":503,"o":"m 350 733 q 330 820 350 796 q 271 844 310 844 q 190 749 190 844 l 190 669 l 50 669 l 50 742 q 107 922 50 860 q 275 983 164 983 q 444 920 386 983 q 503 739 503 857 l 503 714 q 476 585 503 635 q 396 514 450 536 q 503 310 503 467 l 503 233 q 444 52 503 115 q 275 -11 386 -11 q 106 52 164 -11 q 47 233 47 115 l 47 340 l 192 340 l 192 224 q 271 128 192 128 q 330 152 310 128 q 350 238 350 176 l 350 314 q 326 409 350 381 q 250 438 303 438 l 213 438 l 213 576 l 258 576 q 327 600 304 576 q 350 679 350 624 l 350 733 z "},"И":{"ha":593,"x_min":56,"x_max":540,"o":"m 56 0 l 56 972 l 192 972 l 192 357 l 247 571 l 372 972 l 540 972 l 540 0 l 403 0 l 403 685 l 340 446 l 213 0 l 56 0 z "},"Й":{"ha":596,"x_min":56,"x_max":540,"o":"m 463 1189 q 421 1076 463 1117 q 300 1035 379 1035 q 183 1075 222 1035 q 140 1189 143 1115 l 235 1189 q 253 1138 238 1151 q 300 1125 268 1125 q 350 1139 333 1125 q 369 1189 367 1153 l 463 1189 m 403 685 l 403 0 l 540 0 l 540 972 l 372 972 l 247 571 l 192 357 l 192 972 l 56 972 l 56 0 l 213 0 l 340 446 l 403 685 z "},"К":{"ha":575,"x_min":56,"x_max":561,"o":"m 208 299 l 208 0 l 56 0 l 56 972 l 208 972 l 208 549 l 408 972 l 561 972 l 349 539 l 561 0 l 404 0 l 256 388 l 208 299 z "},"Л":{"ha":625,"x_min":13,"x_max":564,"o":"m 13 138 q 69 144 50 138 q 97 172 88 150 q 107 238 106 193 l 132 972 l 564 972 l 564 0 l 408 0 l 408 833 l 275 833 l 258 246 q 203 56 254 113 q 36 -1 151 -1 l 13 -1 l 13 138 z "},"М":{"ha":751,"x_min":54,"x_max":696,"o":"m 483 972 l 696 972 l 696 0 l 551 0 l 551 697 l 446 0 l 301 0 l 188 688 l 188 0 l 54 0 l 54 972 l 267 972 l 379 282 l 483 972 z "},"Н":{"ha":593,"x_min":56,"x_max":538,"o":"m 56 0 l 56 972 l 208 972 l 208 556 l 382 556 l 382 972 l 538 972 l 538 0 l 382 0 l 382 417 l 208 417 l 208 0 l 56 0 z "},"О":{"ha":550,"x_min":43,"x_max":507,"o":"m 43 739 q 103 919 43 856 q 275 983 163 983 q 447 919 388 983 q 507 739 507 856 l 507 233 q 447 53 507 117 q 275 -11 388 -11 q 103 53 163 -11 q 43 233 43 117 l 43 739 m 196 224 q 275 128 196 128 q 354 224 354 128 l 354 749 q 275 844 354 844 q 196 749 196 844 l 196 224 z "},"П":{"ha":593,"x_min":56,"x_max":538,"o":"m 56 0 l 56 972 l 538 972 l 538 0 l 382 0 l 382 833 l 208 833 l 208 0 l 56 0 z "},"Р":{"ha":524,"x_min":56,"x_max":508,"o":"m 281 972 q 451 911 394 972 q 508 732 508 850 l 508 606 q 451 426 508 488 q 281 365 394 365 l 208 365 l 208 0 l 56 0 l 56 972 l 281 972 m 208 504 l 281 504 q 337 525 318 504 q 356 596 356 546 l 356 742 q 337 813 356 792 q 281 833 318 833 l 208 833 l 208 504 z "},"С":{"ha":536,"x_min":43,"x_max":499,"o":"m 499 233 q 440 52 499 115 q 271 -11 382 -11 q 101 52 160 -11 q 43 233 43 115 l 43 739 q 101 920 43 857 q 271 983 160 983 q 440 920 382 983 q 499 739 499 857 l 499 644 l 354 644 l 354 749 q 275 844 354 844 q 196 749 196 844 l 196 224 q 275 129 196 129 q 354 224 354 129 l 354 363 l 499 363 l 499 233 z "},"Т":{"ha":494,"x_min":11,"x_max":483,"o":"m 483 972 l 483 833 l 324 833 l 324 0 l 171 0 l 171 833 l 11 833 l 11 972 l 483 972 z "},"У":{"ha":567,"x_min":11,"x_max":558,"o":"m 394 247 q 348 106 376 160 q 267 25 319 53 q 128 -3 215 -3 q 86 -1 101 -3 l 86 135 q 114 133 96 133 q 188 151 163 133 q 221 214 213 169 l 222 222 l 11 972 l 163 972 l 246 640 l 293 413 l 329 639 l 399 972 l 558 972 l 394 247 z "},"Ф":{"ha":810,"x_min":43,"x_max":763,"o":"m 271 110 q 100 171 157 110 q 43 350 43 232 l 43 615 q 100 794 43 733 q 271 856 157 856 l 328 856 l 328 972 l 478 972 l 478 856 l 535 856 q 706 794 649 856 q 763 615 763 733 l 763 350 q 706 171 763 232 q 535 110 649 110 l 478 110 l 478 0 l 328 0 l 328 110 l 271 110 m 271 721 q 214 698 233 721 q 194 625 194 675 l 194 340 q 271 243 194 243 l 328 243 l 328 721 l 271 721 m 478 243 l 535 243 q 611 340 611 243 l 611 625 q 592 698 611 675 q 535 721 572 721 l 478 721 l 478 243 z "},"Х":{"ha":597,"x_min":21,"x_max":576,"o":"m 406 500 l 576 0 l 415 0 l 290 385 l 164 0 l 21 0 l 192 500 l 32 972 l 190 972 l 306 614 l 424 972 l 565 972 l 406 500 z "},"Ч":{"ha":576,"x_min":46,"x_max":519,"o":"m 519 0 l 367 0 l 367 392 q 306 351 343 365 q 236 338 269 338 q 95 398 144 338 q 46 561 46 458 l 46 972 l 199 972 l 199 574 q 224 502 199 526 q 288 478 249 478 q 346 503 325 478 q 367 578 367 529 l 367 972 l 519 972 l 519 0 z "},"Ц":{"ha":632,"x_min":56,"x_max":604,"o":"m 208 972 l 208 139 l 382 139 l 382 972 l 538 972 l 538 136 l 604 136 l 604 -131 l 456 -131 l 456 0 l 56 0 l 56 972 l 208 972 z "},"Ш":{"ha":833,"x_min":56,"x_max":778,"o":"m 56 972 l 208 972 l 208 139 l 340 139 l 340 972 l 493 972 l 493 139 l 625 139 l 625 972 l 778 972 l 778 0 l 56 0 l 56 972 z "},"Щ":{"ha":874,"x_min":56,"x_max":846,"o":"m 846 136 l 846 -131 l 697 -131 l 697 0 l 56 0 l 56 972 l 208 972 l 208 139 l 340 139 l 340 972 l 493 972 l 493 139 l 625 139 l 625 972 l 778 972 l 778 136 l 846 136 z "},"Ь":{"ha":544,"x_min":56,"x_max":508,"o":"m 56 972 l 208 972 l 208 607 l 281 607 q 451 546 394 607 q 508 367 508 485 l 508 240 q 451 61 508 122 q 281 0 394 0 l 56 0 l 56 972 m 281 139 q 337 160 318 139 q 356 231 356 181 l 356 376 q 337 447 356 426 q 281 468 318 468 l 208 468 l 208 139 l 281 139 z "},"Ъ":{"ha":610,"x_min":11,"x_max":574,"o":"m 274 972 l 274 607 l 346 607 q 517 546 460 607 q 574 367 574 485 l 574 240 q 517 61 574 122 q 346 0 460 0 l 121 0 l 121 833 l 11 833 l 11 972 l 274 972 m 346 139 q 402 160 383 139 q 421 231 421 181 l 421 376 q 402 447 421 426 q 346 468 383 468 l 274 468 l 274 139 l 346 139 z "},"Ы":{"ha":804,"x_min":56,"x_max":749,"o":"m 56 972 l 208 972 l 208 607 l 281 607 q 451 546 394 607 q 508 367 508 485 l 508 240 q 451 61 508 122 q 281 0 394 0 l 56 0 l 56 972 m 596 972 l 749 972 l 749 0 l 596 0 l 596 972 m 281 139 q 337 160 318 139 q 356 231 356 181 l 356 376 q 337 447 356 426 q 281 468 318 468 l 208 468 l 208 139 l 281 139 z "},"Э":{"ha":536,"x_min":36,"x_max":492,"o":"m 181 224 q 260 129 181 129 q 339 224 339 129 l 339 433 l 199 433 l 199 572 l 339 572 l 339 749 q 260 844 339 844 q 181 749 181 844 l 181 657 l 39 657 l 39 739 q 96 920 39 857 q 264 983 153 983 q 433 920 375 983 q 492 739 492 857 l 492 233 q 433 52 492 115 q 264 -11 375 -11 q 94 52 153 -11 q 36 233 36 115 l 36 349 l 181 349 l 181 224 z "},"Ю":{"ha":832,"x_min":56,"x_max":786,"o":"m 208 417 l 208 0 l 56 0 l 56 972 l 208 972 l 208 556 l 322 556 l 322 739 q 382 919 322 856 q 554 983 442 983 q 726 919 667 983 q 786 739 786 856 l 786 233 q 726 53 786 117 q 554 -11 667 -11 q 382 53 442 -11 q 322 233 322 117 l 322 417 l 208 417 m 475 224 q 554 128 475 128 q 633 224 633 128 l 633 749 q 554 844 633 844 q 475 749 475 844 l 475 224 z "},"Я":{"ha":558,"x_min":28,"x_max":503,"o":"m 28 0 q 42 51 39 25 q 44 118 44 76 l 44 268 q 68 401 44 349 q 146 475 92 453 q 46 672 46 522 l 46 749 q 100 917 46 863 q 272 972 154 972 l 503 972 l 503 0 l 350 0 l 350 396 l 297 396 q 221 367 244 396 q 197 272 197 339 l 197 119 q 194 44 197 65 q 183 0 192 24 l 28 0 m 276 833 q 217 810 236 833 q 199 733 199 786 l 199 638 q 222 558 199 582 q 290 535 244 535 l 350 535 l 350 833 l 276 833 z "},"а":{"ha":565,"x_min":15,"x_max":550,"o":"m 396 0 l 369 176 l 182 176 l 156 0 l 15 0 l 171 972 l 394 972 l 550 0 l 396 0 m 349 308 l 275 800 l 201 308 l 349 308 z "},"б":{"ha":576,"x_min":57,"x_max":529,"o":"m 57 972 l 485 972 l 485 833 l 210 833 l 210 585 l 299 585 q 471 523 413 585 q 529 344 529 461 l 529 240 q 471 62 529 124 q 299 0 413 0 l 57 0 l 57 972 m 299 139 q 357 160 338 139 q 376 231 376 181 l 376 354 q 357 425 376 404 q 299 446 338 446 l 210 446 l 210 139 l 299 139 z "},"в":{"ha":564,"x_min":56,"x_max":528,"o":"m 286 972 q 458 917 404 972 q 513 749 513 863 l 513 714 q 488 590 513 639 q 414 518 464 542 q 528 310 528 474 l 528 231 q 469 59 528 118 q 296 0 410 0 l 56 0 l 56 972 l 286 972 m 208 576 l 268 576 q 337 600 314 576 q 360 679 360 624 l 360 733 q 341 810 360 786 q 282 833 322 833 l 208 833 l 208 576 m 208 139 l 296 139 q 356 160 336 139 q 375 235 375 182 l 375 319 q 352 412 375 386 q 276 438 329 438 l 208 438 l 208 139 z "},"г":{"ha":507,"x_min":57,"x_max":460,"o":"m 57 972 l 460 972 l 460 833 l 210 833 l 210 0 l 57 0 l 57 972 z "},"д":{"ha":678,"x_min":22,"x_max":649,"o":"m 497 0 l 171 0 l 171 -131 l 22 -131 l 22 136 l 82 136 q 109 189 101 160 q 119 263 117 218 l 154 972 l 582 972 l 582 136 l 649 136 l 649 -131 l 497 -131 l 497 0 m 269 265 q 256 183 267 213 q 226 136 246 154 l 426 136 l 426 833 l 297 833 l 269 265 z "},"е":{"ha":511,"x_min":56,"x_max":472,"o":"m 418 563 l 418 424 l 208 424 l 208 139 l 472 139 l 472 0 l 56 0 l 56 972 l 472 972 l 472 833 l 208 833 l 208 563 l 418 563 z "},"ё":{"ha":511,"x_min":56,"x_max":472,"o":"m 224 1024 l 90 1024 l 90 1157 l 224 1157 l 224 1024 m 435 1024 l 301 1024 l 301 1157 l 435 1157 l 435 1024 m 418 563 l 418 424 l 208 424 l 208 139 l 472 139 l 472 0 l 56 0 l 56 972 l 472 972 l 472 833 l 208 833 l 208 563 l 418 563 z "},"ж":{"ha":839,"x_min":11,"x_max":829,"o":"m 676 972 l 829 972 l 642 578 l 829 0 l 672 0 l 533 431 l 496 357 l 496 0 l 344 0 l 344 357 l 307 432 l 168 0 l 11 0 l 200 574 l 11 972 l 164 972 l 344 579 l 344 972 l 496 972 l 496 579 l 676 972 z "},"з":{"ha":550,"x_min":47,"x_max":503,"o":"m 350 733 q 330 820 350 796 q 271 844 310 844 q 190 749 190 844 l 190 669 l 50 669 l 50 742 q 107 922 50 860 q 275 983 164 983 q 444 920 386 983 q 503 739 503 857 l 503 714 q 476 585 503 635 q 396 514 450 536 q 503 310 503 467 l 503 233 q 444 52 503 115 q 275 -11 386 -11 q 106 52 164 -11 q 47 233 47 115 l 47 340 l 192 340 l 192 224 q 271 128 192 128 q 330 152 310 128 q 350 238 350 176 l 350 314 q 326 409 350 381 q 250 438 303 438 l 213 438 l 213 576 l 258 576 q 327 600 304 576 q 350 679 350 624 l 350 733 z "},"и":{"ha":593,"x_min":56,"x_max":540,"o":"m 56 0 l 56 972 l 192 972 l 192 357 l 247 571 l 372 972 l 540 972 l 540 0 l 403 0 l 403 685 l 340 446 l 213 0 l 56 0 z "},"й":{"ha":596,"x_min":56,"x_max":540,"o":"m 463 1189 q 421 1076 463 1117 q 300 1035 379 1035 q 183 1075 222 1035 q 140 1189 143 1115 l 235 1189 q 253 1138 238 1151 q 300 1125 268 1125 q 350 1139 333 1125 q 369 1189 367 1153 l 463 1189 m 403 685 l 403 0 l 540 0 l 540 972 l 372 972 l 247 571 l 192 357 l 192 972 l 56 972 l 56 0 l 213 0 l 340 446 l 403 685 z "},"к":{"ha":575,"x_min":56,"x_max":561,"o":"m 208 299 l 208 0 l 56 0 l 56 972 l 208 972 l 208 549 l 408 972 l 561 972 l 349 539 l 561 0 l 404 0 l 256 388 l 208 299 z "},"л":{"ha":625,"x_min":13,"x_max":564,"o":"m 13 138 q 69 144 50 138 q 97 172 88 150 q 107 238 106 193 l 132 972 l 564 972 l 564 0 l 408 0 l 408 833 l 275 833 l 258 246 q 203 56 254 113 q 36 -1 151 -1 l 13 -1 l 13 138 z "},"м":{"ha":751,"x_min":54,"x_max":696,"o":"m 483 972 l 696 972 l 696 0 l 551 0 l 551 697 l 446 0 l 301 0 l 188 688 l 188 0 l 54 0 l 54 972 l 267 972 l 379 282 l 483 972 z "},"н":{"ha":593,"x_min":56,"x_max":538,"o":"m 56 0 l 56 972 l 208 972 l 208 556 l 382 556 l 382 972 l 538 972 l 538 0 l 382 0 l 382 417 l 208 417 l 208 0 l 56 0 z "},"о":{"ha":550,"x_min":43,"x_max":507,"o":"m 43 739 q 103 919 43 856 q 275 983 163 983 q 447 919 388 983 q 507 739 507 856 l 507 233 q 447 53 507 117 q 275 -11 388 -11 q 103 53 163 -11 q 43 233 43 117 l 43 739 m 196 224 q 275 128 196 128 q 354 224 354 128 l 354 749 q 275 844 354 844 q 196 749 196 844 l 196 224 z "},"п":{"ha":593,"x_min":56,"x_max":538,"o":"m 56 0 l 56 972 l 538 972 l 538 0 l 382 0 l 382 833 l 208 833 l 208 0 l 56 0 z "},"р":{"ha":524,"x_min":56,"x_max":508,"o":"m 281 972 q 451 911 394 972 q 508 732 508 850 l 508 606 q 451 426 508 488 q 281 365 394 365 l 208 365 l 208 0 l 56 0 l 56 972 l 281 972 m 208 504 l 281 504 q 337 525 318 504 q 356 596 356 546 l 356 742 q 337 813 356 792 q 281 833 318 833 l 208 833 l 208 504 z "},"с":{"ha":536,"x_min":43,"x_max":499,"o":"m 499 233 q 440 52 499 115 q 271 -11 382 -11 q 101 52 160 -11 q 43 233 43 115 l 43 739 q 101 920 43 857 q 271 983 160 983 q 440 920 382 983 q 499 739 499 857 l 499 644 l 354 644 l 354 749 q 275 844 354 844 q 196 749 196 844 l 196 224 q 275 129 196 129 q 354 224 354 129 l 354 363 l 499 363 l 499 233 z "},"т":{"ha":494,"x_min":11,"x_max":483,"o":"m 483 972 l 483 833 l 324 833 l 324 0 l 171 0 l 171 833 l 11 833 l 11 972 l 483 972 z "},"у":{"ha":567,"x_min":11,"x_max":558,"o":"m 394 247 q 348 106 376 160 q 267 25 319 53 q 128 -3 215 -3 q 86 -1 101 -3 l 86 135 q 114 133 96 133 q 188 151 163 133 q 221 214 213 169 l 222 222 l 11 972 l 163 972 l 246 640 l 293 413 l 329 639 l 399 972 l 558 972 l 394 247 z "},"ф":{"ha":810,"x_min":43,"x_max":763,"o":"m 271 110 q 100 171 157 110 q 43 350 43 232 l 43 615 q 100 794 43 733 q 271 856 157 856 l 328 856 l 328 972 l 478 972 l 478 856 l 535 856 q 706 794 649 856 q 763 615 763 733 l 763 350 q 706 171 763 232 q 535 110 649 110 l 478 110 l 478 0 l 328 0 l 328 110 l 271 110 m 271 721 q 214 698 233 721 q 194 625 194 675 l 194 340 q 271 243 194 243 l 328 243 l 328 721 l 271 721 m 478 243 l 535 243 q 611 340 611 243 l 611 625 q 592 698 611 675 q 535 721 572 721 l 478 721 l 478 243 z "},"х":{"ha":597,"x_min":21,"x_max":576,"o":"m 406 500 l 576 0 l 415 0 l 290 385 l 164 0 l 21 0 l 192 500 l 32 972 l 190 972 l 306 614 l 424 972 l 565 972 l 406 500 z "},"ч":{"ha":576,"x_min":46,"x_max":519,"o":"m 519 0 l 367 0 l 367 392 q 306 351 343 365 q 236 338 269 338 q 95 398 144 338 q 46 561 46 458 l 46 972 l 199 972 l 199 574 q 224 502 199 526 q 288 478 249 478 q 346 503 325 478 q 367 578 367 529 l 367 972 l 519 972 l 519 0 z "},"ц":{"ha":632,"x_min":56,"x_max":604,"o":"m 208 972 l 208 139 l 382 139 l 382 972 l 538 972 l 538 136 l 604 136 l 604 -131 l 456 -131 l 456 0 l 56 0 l 56 972 l 208 972 z "},"ш":{"ha":833,"x_min":56,"x_max":778,"o":"m 56 972 l 208 972 l 208 139 l 340 139 l 340 972 l 493 972 l 493 139 l 625 139 l 625 972 l 778 972 l 778 0 l 56 0 l 56 972 z "},"щ":{"ha":874,"x_min":56,"x_max":846,"o":"m 846 136 l 846 -131 l 697 -131 l 697 0 l 56 0 l 56 972 l 208 972 l 208 139 l 340 139 l 340 972 l 493 972 l 493 139 l 625 139 l 625 972 l 778 972 l 778 136 l 846 136 z "},"ь":{"ha":544,"x_min":56,"x_max":508,"o":"m 56 972 l 208 972 l 208 607 l 281 607 q 451 546 394 607 q 508 367 508 485 l 508 240 q 451 61 508 122 q 281 0 394 0 l 56 0 l 56 972 m 281 139 q 337 160 318 139 q 356 231 356 181 l 356 376 q 337 447 356 426 q 281 468 318 468 l 208 468 l 208 139 l 281 139 z "},"ъ":{"ha":610,"x_min":11,"x_max":574,"o":"m 274 972 l 274 607 l 346 607 q 517 546 460 607 q 574 367 574 485 l 574 240 q 517 61 574 122 q 346 0 460 0 l 121 0 l 121 833 l 11 833 l 11 972 l 274 972 m 346 139 q 402 160 383 139 q 421 231 421 181 l 421 376 q 402 447 421 426 q 346 468 383 468 l 274 468 l 274 139 l 346 139 z "},"ы":{"ha":804,"x_min":56,"x_max":749,"o":"m 56 972 l 208 972 l 208 607 l 281 607 q 451 546 394 607 q 508 367 508 485 l 508 240 q 451 61 508 122 q 281 0 394 0 l 56 0 l 56 972 m 596 972 l 749 972 l 749 0 l 596 0 l 596 972 m 281 139 q 337 160 318 139 q 356 231 356 181 l 356 376 q 337 447 356 426 q 281 468 318 468 l 208 468 l 208 139 l 281 139 z "},"э":{"ha":536,"x_min":36,"x_max":492,"o":"m 181 224 q 260 129 181 129 q 339 224 339 129 l 339 433 l 199 433 l 199 572 l 339 572 l 339 749 q 260 844 339 844 q 181 749 181 844 l 181 657 l 39 657 l 39 739 q 96 920 39 857 q 264 983 153 983 q 433 920 375 983 q 492 739 492 857 l 492 233 q 433 52 492 115 q 264 -11 375 -11 q 94 52 153 -11 q 36 233 36 115 l 36 349 l 181 349 l 181 224 z "},"ю":{"ha":832,"x_min":56,"x_max":786,"o":"m 208 417 l 208 0 l 56 0 l 56 972 l 208 972 l 208 556 l 322 556 l 322 739 q 382 919 322 856 q 554 983 442 983 q 726 919 667 983 q 786 739 786 856 l 786 233 q 726 53 786 117 q 554 -11 667 -11 q 382 53 442 -11 q 322 233 322 117 l 322 417 l 208 417 m 475 224 q 554 128 475 128 q 633 224 633 128 l 633 749 q 554 844 633 844 q 475 749 475 844 l 475 224 z "},"я":{"ha":558,"x_min":28,"x_max":503,"o":"m 28 0 q 42 51 39 25 q 44 118 44 76 l 44 268 q 68 401 44 349 q 146 475 92 453 q 46 672 46 522 l 46 749 q 100 917 46 863 q 272 972 154 972 l 503 972 l 503 0 l 350 0 l 350 396 l 297 396 q 221 367 244 396 q 197 272 197 339 l 197 119 q 194 44 197 65 q 183 0 192 24 l 28 0 m 276 833 q 217 810 236 833 q 199 733 199 786 l 199 638 q 222 558 199 582 q 290 535 244 535 l 350 535 l 350 833 l 276 833 z "},"₀":{"ha":389,"x_min":47,"x_max":342,"o":"m 47 378 q 85 493 47 453 q 194 533 122 533 q 304 493 267 533 q 342 378 342 453 l 342 58 q 304 -57 342 -17 q 194 -97 267 -97 q 85 -57 122 -97 q 47 58 47 -17 l 47 378 m 144 51 q 194 -10 144 -10 q 244 51 244 -10 l 244 385 q 194 446 244 446 q 144 385 144 446 l 144 51 z "},"₁":{"ha":278,"x_min":35,"x_max":207,"o":"m 35 449 q 106 468 85 449 q 143 526 128 488 l 207 526 l 207 -90 l 110 -90 l 110 381 l 35 381 l 35 449 z "},"₂":{"ha":389,"x_min":58,"x_max":347,"o":"m 250 378 q 238 432 250 417 q 200 447 225 447 q 150 386 150 447 l 150 321 l 58 321 l 58 381 q 95 495 58 456 q 203 535 132 535 q 310 495 274 535 q 347 381 347 456 q 316 253 347 306 q 228 135 285 200 q 172 67 190 94 q 154 11 154 40 q 156 -3 154 1 l 339 -3 l 339 -90 l 58 -90 l 58 -15 q 83 87 58 44 q 154 182 107 129 q 226 276 201 233 q 250 378 250 318 z "},"₃":{"ha":389,"x_min":50,"x_max":339,"o":"m 242 108 q 227 169 242 151 q 179 186 213 186 l 146 186 l 146 274 l 183 274 q 242 340 242 274 l 242 375 q 229 430 242 414 q 192 446 217 446 q 142 385 142 446 l 142 346 l 50 346 l 50 378 q 87 493 50 453 q 194 533 124 533 q 302 493 265 533 q 339 378 339 453 l 339 363 q 322 281 339 313 q 271 236 306 250 q 339 107 339 207 l 339 58 q 302 -57 339 -17 q 194 -97 265 -97 q 87 -57 124 -97 q 50 58 50 -17 l 50 108 l 142 108 l 142 51 q 192 -10 142 -10 q 229 6 217 -10 q 242 61 242 22 l 242 108 z "},"₄":{"ha":389,"x_min":33,"x_max":361,"o":"m 210 526 l 315 526 l 315 110 l 361 110 l 361 21 l 315 21 l 315 -90 l 219 -90 l 219 21 l 33 21 l 33 110 l 210 526 m 219 338 l 121 110 l 219 110 l 219 338 z "},"₅":{"ha":389,"x_min":51,"x_max":340,"o":"m 143 50 q 193 -10 143 -10 q 243 50 243 -10 l 243 185 q 193 246 243 246 q 143 185 143 246 l 143 167 l 51 167 l 69 525 l 325 525 l 325 436 l 156 436 l 149 289 q 233 335 175 335 q 313 298 286 335 q 340 193 340 261 l 340 56 q 303 -60 340 -19 q 196 -100 267 -100 q 88 -60 125 -100 q 51 56 51 -19 l 51 107 l 143 107 l 143 50 z "},"₆":{"ha":389,"x_min":50,"x_max":344,"o":"m 50 374 q 199 533 50 533 q 306 493 269 533 q 343 378 343 453 l 343 363 l 251 363 l 251 385 q 201 446 251 446 q 160 429 174 446 q 147 369 147 413 l 147 257 q 238 311 174 311 q 317 275 290 311 q 344 171 344 239 l 344 58 q 306 -57 344 -17 q 197 -97 268 -97 q 88 -57 126 -97 q 50 58 50 -17 l 50 374 m 197 224 q 147 163 147 224 l 147 51 q 197 -8 147 -8 q 247 51 247 -8 l 247 163 q 197 224 247 224 z "},"₇":{"ha":389,"x_min":49,"x_max":340,"o":"m 340 442 l 197 -90 l 100 -90 l 242 439 l 49 439 l 49 526 l 340 526 l 340 442 z "},"₈":{"ha":389,"x_min":43,"x_max":346,"o":"m 346 58 q 306 -56 346 -15 q 194 -97 267 -97 q 83 -56 122 -97 q 43 58 43 -15 l 43 106 q 103 235 43 201 q 43 358 43 268 l 43 378 q 83 492 43 451 q 194 533 122 533 q 306 492 267 533 q 346 378 346 451 l 346 358 q 286 235 346 268 q 346 106 346 201 l 346 58 m 140 340 q 194 275 140 275 q 249 340 249 275 l 249 375 q 194 446 249 446 q 140 375 140 446 l 140 340 m 140 60 q 194 -10 140 -10 q 249 60 249 -10 l 249 118 q 194 188 249 188 q 140 118 140 188 l 140 60 z "},"₉":{"ha":389,"x_min":44,"x_max":339,"o":"m 339 63 q 190 -97 339 -97 q 83 -57 119 -97 q 46 58 46 -17 l 46 74 l 138 74 l 138 51 q 188 -10 138 -10 q 228 7 215 -10 q 242 67 242 24 l 242 179 q 151 125 215 125 q 72 161 99 125 q 44 265 44 197 l 44 378 q 83 493 44 453 q 192 533 121 533 q 301 493 263 533 q 339 378 339 453 l 339 63 m 192 213 q 242 274 242 213 l 242 385 q 192 444 242 444 q 142 385 142 444 l 142 274 q 192 213 142 213 z "},"⁰":{"ha":389,"x_min":47,"x_max":342,"o":"m 47 956 q 85 1071 47 1031 q 194 1111 122 1111 q 304 1071 267 1111 q 342 956 342 1031 l 342 636 q 304 521 342 561 q 194 481 267 481 q 85 521 122 481 q 47 636 47 561 l 47 956 m 144 629 q 194 568 144 568 q 244 629 244 568 l 244 963 q 194 1024 244 1024 q 144 963 144 1024 l 144 629 z "},"¹":{"ha":278,"x_min":35,"x_max":207,"o":"m 35 1026 q 106 1046 85 1026 q 143 1104 128 1065 l 207 1104 l 207 488 l 110 488 l 110 958 l 35 958 l 35 1026 z "},"²":{"ha":389,"x_min":58,"x_max":347,"o":"m 250 956 q 238 1010 250 994 q 200 1025 225 1025 q 150 964 150 1025 l 150 899 l 58 899 l 58 958 q 95 1073 58 1033 q 203 1113 132 1113 q 310 1073 274 1113 q 347 958 347 1033 q 316 831 347 883 q 228 713 285 778 q 172 645 190 672 q 154 589 154 618 q 156 575 154 579 l 339 575 l 339 488 l 58 488 l 58 563 q 83 665 58 622 q 154 760 107 707 q 226 853 201 811 q 250 956 250 896 z "},"³":{"ha":389,"x_min":50,"x_max":339,"o":"m 242 686 q 227 747 242 729 q 179 764 213 764 l 146 764 l 146 851 l 183 851 q 242 918 242 851 l 242 953 q 229 1008 242 992 q 192 1024 217 1024 q 142 963 142 1024 l 142 924 l 50 924 l 50 956 q 87 1071 50 1031 q 194 1111 124 1111 q 302 1071 265 1111 q 339 956 339 1031 l 339 940 q 322 859 339 890 q 271 814 306 828 q 339 685 339 785 l 339 636 q 302 521 339 561 q 194 481 265 481 q 87 521 124 481 q 50 636 50 561 l 50 686 l 142 686 l 142 629 q 192 568 142 568 q 229 584 217 568 q 242 639 242 600 l 242 686 z "},"⁴":{"ha":389,"x_min":33,"x_max":361,"o":"m 210 1104 l 315 1104 l 315 688 l 361 688 l 361 599 l 315 599 l 315 488 l 219 488 l 219 599 l 33 599 l 33 688 l 210 1104 m 219 915 l 121 688 l 219 688 l 219 915 z "},"⁵":{"ha":389,"x_min":51,"x_max":340,"o":"m 143 628 q 193 568 143 568 q 243 628 243 568 l 243 763 q 193 824 243 824 q 143 763 143 824 l 143 744 l 51 744 l 69 1103 l 325 1103 l 325 1014 l 156 1014 l 149 867 q 233 913 175 913 q 313 876 286 913 q 340 771 340 839 l 340 633 q 303 518 340 558 q 196 478 267 478 q 88 518 125 478 q 51 633 51 558 l 51 685 l 143 685 l 143 628 z "},"⁶":{"ha":389,"x_min":50,"x_max":344,"o":"m 50 951 q 199 1111 50 1111 q 306 1071 269 1111 q 343 956 343 1031 l 343 940 l 251 940 l 251 963 q 201 1024 251 1024 q 160 1007 174 1024 q 147 947 147 990 l 147 835 q 238 889 174 889 q 317 853 290 889 q 344 749 344 817 l 344 636 q 306 521 344 561 q 197 481 268 481 q 88 521 126 481 q 50 636 50 561 l 50 951 m 197 801 q 147 740 147 801 l 147 629 q 197 569 147 569 q 247 629 247 569 l 247 740 q 197 801 247 801 z "},"⁷":{"ha":389,"x_min":49,"x_max":340,"o":"m 340 1019 l 197 488 l 100 488 l 242 1017 l 49 1017 l 49 1104 l 340 1104 l 340 1019 z "},"⁸":{"ha":389,"x_min":43,"x_max":346,"o":"m 346 636 q 306 522 346 563 q 194 481 267 481 q 83 522 122 481 q 43 636 43 563 l 43 683 q 103 813 43 779 q 43 936 43 846 l 43 956 q 83 1070 43 1029 q 194 1111 122 1111 q 306 1070 267 1111 q 346 956 346 1029 l 346 936 q 286 813 346 846 q 346 683 346 779 l 346 636 m 140 918 q 194 853 140 853 q 249 918 249 853 l 249 953 q 194 1024 249 1024 q 140 953 140 1024 l 140 918 m 140 638 q 194 568 140 568 q 249 638 249 568 l 249 696 q 194 765 249 765 q 140 696 140 765 l 140 638 z "},"⁹":{"ha":389,"x_min":44,"x_max":339,"o":"m 339 640 q 190 481 339 481 q 83 521 119 481 q 46 636 46 561 l 46 651 l 138 651 l 138 629 q 188 568 138 568 q 228 585 215 568 q 242 644 242 601 l 242 757 q 151 703 215 703 q 72 739 99 703 q 44 843 44 775 l 44 956 q 83 1071 44 1031 q 192 1111 121 1111 q 301 1071 263 1111 q 339 956 339 1031 l 339 640 m 192 790 q 242 851 242 790 l 242 963 q 192 1022 242 1022 q 142 963 142 1022 l 142 851 q 192 790 142 790 z "},"⁄":{"ha":93,"x_min":-190,"x_max":283,"o":"m 283 972 l -100 0 l -190 0 l 193 972 l 283 972 z "},"½":{"ha":871,"x_min":90,"x_max":829,"o":"m 90 894 q 162 914 140 894 q 199 972 183 933 l 263 972 l 263 356 l 165 356 l 165 826 l 90 826 l 90 894 m 654 972 l 271 0 l 181 0 l 564 972 l 654 972 m 732 468 q 719 522 732 507 q 682 538 707 538 q 632 476 632 538 l 632 411 l 540 411 l 540 471 q 577 585 540 546 q 685 625 614 625 q 792 585 756 625 q 829 471 829 546 q 798 343 829 396 q 710 225 767 290 q 654 158 672 185 q 636 101 636 131 q 638 88 636 92 l 821 88 l 821 0 l 540 0 l 540 75 q 565 177 540 135 q 636 272 589 219 q 708 366 683 324 q 732 468 732 408 z "},"⅓":{"ha":833,"x_min":0,"x_max":0,"o":""},"⅔":{"ha":833,"x_min":0,"x_max":0,"o":""},"¼":{"ha":871,"x_min":90,"x_max":843,"o":"m 90 894 q 162 914 140 894 q 199 972 183 933 l 263 972 l 263 356 l 165 356 l 165 826 l 90 826 l 90 894 m 696 972 l 313 0 l 222 0 l 606 972 l 696 972 m 692 617 l 797 617 l 797 200 l 843 200 l 843 111 l 797 111 l 797 0 l 701 0 l 701 111 l 515 111 l 515 200 l 692 617 m 701 428 l 603 200 l 701 200 l 701 428 z "},"¾":{"ha":871,"x_min":50,"x_max":843,"o":"m 242 554 q 227 615 242 597 q 179 632 213 632 l 146 632 l 146 719 l 183 719 q 242 786 242 719 l 242 821 q 229 876 242 860 q 192 892 217 892 q 142 831 142 892 l 142 792 l 50 792 l 50 824 q 87 939 50 899 q 194 979 124 979 q 302 939 265 979 q 339 824 339 899 l 339 808 q 322 727 339 758 q 271 682 306 696 q 339 553 339 653 l 339 504 q 302 389 339 429 q 194 349 265 349 q 87 389 124 349 q 50 504 50 429 l 50 554 l 142 554 l 142 497 q 192 436 142 436 q 229 452 217 436 q 242 507 242 468 l 242 554 m 710 972 l 326 0 l 236 0 l 619 972 l 710 972 m 692 617 l 797 617 l 797 200 l 843 200 l 843 111 l 797 111 l 797 0 l 701 0 l 701 111 l 515 111 l 515 200 l 692 617 m 701 428 l 603 200 l 701 200 l 701 428 z "},"⅛":{"ha":871,"x_min":90,"x_max":828,"o":"m 90 894 q 162 914 140 894 q 199 972 183 933 l 263 972 l 263 356 l 165 356 l 165 826 l 90 826 l 90 894 m 654 972 l 271 0 l 181 0 l 564 972 l 654 972 m 828 149 q 788 34 828 75 q 676 -7 749 -7 q 565 34 604 -7 q 525 149 525 75 l 525 196 q 585 325 525 292 q 525 449 525 358 l 525 468 q 565 583 525 542 q 676 624 604 624 q 788 583 749 624 q 828 468 828 542 l 828 449 q 768 325 828 358 q 828 196 828 292 l 828 149 m 622 431 q 676 365 622 365 q 731 431 731 365 l 731 465 q 676 536 731 536 q 622 465 622 536 l 622 431 m 622 150 q 676 81 622 81 q 731 150 731 81 l 731 208 q 676 278 731 278 q 622 208 622 278 l 622 150 z "},"⅜":{"ha":871,"x_min":50,"x_max":828,"o":"m 242 554 q 227 615 242 597 q 179 632 213 632 l 146 632 l 146 719 l 183 719 q 242 786 242 719 l 242 821 q 229 876 242 860 q 192 892 217 892 q 142 831 142 892 l 142 792 l 50 792 l 50 824 q 87 939 50 899 q 194 979 124 979 q 302 939 265 979 q 339 824 339 899 l 339 808 q 322 727 339 758 q 271 682 306 696 q 339 553 339 653 l 339 504 q 302 389 339 429 q 194 349 265 349 q 87 389 124 349 q 50 504 50 429 l 50 554 l 142 554 l 142 497 q 192 436 142 436 q 229 452 217 436 q 242 507 242 468 l 242 554 m 672 972 l 289 0 l 199 0 l 582 972 l 672 972 m 828 149 q 788 34 828 75 q 676 -7 749 -7 q 565 34 604 -7 q 525 149 525 75 l 525 196 q 585 325 525 292 q 525 449 525 358 l 525 468 q 565 583 525 542 q 676 624 604 624 q 788 583 749 624 q 828 468 828 542 l 828 449 q 768 325 828 358 q 828 196 828 292 l 828 149 m 622 431 q 676 365 622 365 q 731 431 731 365 l 731 465 q 676 536 731 536 q 622 465 622 536 l 622 431 m 622 150 q 676 81 622 81 q 731 150 731 81 l 731 208 q 676 278 731 278 q 622 208 622 278 l 622 150 z "},"⅝":{"ha":871,"x_min":51,"x_max":828,"o":"m 672 972 l 289 0 l 199 0 l 582 972 l 672 972 m 143 496 q 193 436 143 436 q 243 496 243 436 l 243 631 q 193 692 243 692 q 143 631 143 692 l 143 613 l 51 613 l 69 971 l 325 971 l 325 882 l 156 882 l 149 735 q 233 781 175 781 q 313 744 286 781 q 340 639 340 707 l 340 501 q 303 386 340 426 q 196 346 267 346 q 88 386 125 346 q 51 501 51 426 l 51 553 l 143 553 l 143 496 m 828 149 q 788 34 828 75 q 676 -7 749 -7 q 565 34 604 -7 q 525 149 525 75 l 525 196 q 585 325 525 292 q 525 449 525 358 l 525 468 q 565 583 525 542 q 676 624 604 624 q 788 583 749 624 q 828 468 828 542 l 828 449 q 768 325 828 358 q 828 196 828 292 l 828 149 m 622 431 q 676 365 622 365 q 731 431 731 365 l 731 465 q 676 536 731 536 q 622 465 622 536 l 622 431 m 622 150 q 676 81 622 81 q 731 150 731 81 l 731 208 q 676 278 731 278 q 622 208 622 278 l 622 150 z "},"⅞":{"ha":871,"x_min":49,"x_max":828,"o":"m 340 888 l 197 356 l 100 356 l 242 885 l 49 885 l 49 972 l 340 972 l 340 888 m 631 972 l 247 0 l 157 0 l 540 972 l 631 972 m 828 149 q 788 34 828 75 q 676 -7 749 -7 q 565 34 604 -7 q 525 149 525 75 l 525 196 q 585 325 525 292 q 525 449 525 358 l 525 468 q 565 583 525 542 q 676 624 604 624 q 788 583 749 624 q 828 468 828 542 l 828 449 q 768 325 828 358 q 828 196 828 292 l 828 149 m 622 431 q 676 365 622 365 q 731 431 731 365 l 731 465 q 676 536 731 536 q 622 465 622 536 l 622 431 m 622 150 q 676 81 622 81 q 731 150 731 81 l 731 208 q 676 278 731 278 q 622 208 622 278 l 622 150 z "},".":{"ha":258,"x_min":56,"x_max":203,"o":"m 203 0 l 56 0 l 56 147 l 203 147 l 203 0 z "},",":{"ha":258,"x_min":56,"x_max":203,"o":"m 56 147 l 203 147 l 203 15 l 136 -139 l 74 -139 l 114 0 l 56 0 l 56 147 z "},":":{"ha":258,"x_min":56,"x_max":203,"o":"m 203 529 l 56 529 l 56 676 l 203 676 l 203 529 m 203 0 l 56 0 l 56 147 l 203 147 l 203 0 z "},";":{"ha":258,"x_min":56,"x_max":203,"o":"m 203 529 l 56 529 l 56 676 l 203 676 l 203 529 m 56 147 l 203 147 l 203 15 l 136 -139 l 74 -139 l 114 0 l 56 0 l 56 147 z "},"…":{"ha":664,"x_min":56,"x_max":608,"o":"m 203 0 l 56 0 l 56 147 l 203 147 l 203 0 m 406 0 l 258 0 l 258 147 l 406 147 l 406 0 m 608 0 l 461 0 l 461 147 l 608 147 l 608 0 z "},"!":{"ha":264,"x_min":56,"x_max":208,"o":"m 56 567 l 56 972 l 208 972 l 208 567 l 189 215 l 75 215 l 56 567 m 206 0 l 58 0 l 58 147 l 206 147 l 206 0 z "},"¡":{"ha":264,"x_min":56,"x_max":208,"o":"m 58 972 l 206 972 l 206 825 l 58 825 l 58 972 m 208 406 l 208 0 l 56 0 l 56 406 l 75 757 l 189 757 l 208 406 z "},"?":{"ha":500,"x_min":28,"x_max":478,"o":"m 167 215 q 158 275 158 240 q 178 391 158 344 q 238 494 199 438 q 303 613 281 560 q 325 749 325 665 q 306 822 325 799 q 249 844 286 844 q 192 822 211 844 q 172 749 172 799 l 172 643 l 28 643 l 28 739 q 85 920 28 857 q 253 983 142 983 q 421 920 364 983 q 478 739 478 857 q 451 588 478 647 q 375 460 425 528 q 316 364 335 404 q 297 269 297 324 q 303 215 297 239 l 167 215 m 307 0 l 160 0 l 160 147 l 307 147 l 307 0 z "},"¿":{"ha":500,"x_min":22,"x_max":472,"o":"m 193 972 l 340 972 l 340 825 l 193 825 l 193 972 m 333 757 q 342 697 342 732 q 322 581 342 628 q 263 478 301 535 q 197 360 219 413 q 175 224 175 307 q 194 151 175 174 q 251 128 214 128 q 308 151 289 128 q 328 224 328 174 l 328 329 l 472 329 l 472 233 q 415 52 472 115 q 247 -11 358 -11 q 79 52 136 -11 q 22 233 22 115 q 49 385 22 325 q 125 513 75 444 q 184 608 165 568 q 203 703 203 649 q 197 757 203 733 l 333 757 z "},"·":{"ha":258,"x_min":56,"x_max":203,"o":"m 203 413 l 56 413 l 56 560 l 203 560 l 203 413 z "},"•":{"ha":550,"x_min":82,"x_max":468,"o":"m 82 486 q 108 583 82 539 q 178 653 133 628 q 275 679 222 679 q 372 653 328 679 q 442 583 417 628 q 468 486 468 539 q 442 389 468 433 q 372 319 417 344 q 275 293 328 293 q 178 319 222 293 q 108 389 133 344 q 82 486 82 433 z "},"*":{"ha":550,"x_min":3,"x_max":547,"o":"m 213 972 l 338 972 l 301 743 l 508 847 l 547 729 l 319 690 l 482 528 l 382 454 l 275 660 l 168 454 l 68 528 l 231 690 l 3 729 l 42 847 l 249 743 l 213 972 z "},"#":{"ha":569,"x_min":21,"x_max":549,"o":"m 214 278 l 185 0 l 60 0 l 89 278 l 21 278 l 32 386 l 100 386 l 126 640 l 57 640 l 68 749 l 138 749 l 161 972 l 286 972 l 263 749 l 353 749 l 376 972 l 501 972 l 478 749 l 549 749 l 538 640 l 467 640 l 440 386 l 511 386 l 500 278 l 429 278 l 400 0 l 275 0 l 304 278 l 214 278 m 315 386 l 342 640 l 251 640 l 225 386 l 315 386 z "},"/":{"ha":529,"x_min":7,"x_max":522,"o":"m 522 972 l 139 0 l 7 0 l 390 972 l 522 972 z "},"\\":{"ha":529,"x_min":7,"x_max":522,"o":"m 390 0 l 7 972 l 139 972 l 522 0 l 390 0 z "},"(":{"ha":349,"x_min":65,"x_max":326,"o":"m 326 847 l 289 847 q 235 828 251 847 q 218 760 218 810 l 218 213 q 235 144 218 163 q 289 125 251 125 l 326 125 l 326 0 l 279 0 q 115 49 164 0 q 65 213 65 97 l 65 760 q 115 924 65 875 q 279 972 164 972 l 326 972 l 326 847 z "},")":{"ha":349,"x_min":22,"x_max":283,"o":"m 69 972 q 234 924 185 972 q 283 760 283 875 l 283 213 q 234 49 283 97 q 69 0 185 0 l 22 0 l 22 125 l 60 125 q 114 144 97 125 q 131 213 131 163 l 131 760 q 114 828 131 810 q 60 847 97 847 l 22 847 l 22 972 l 69 972 z "},"{":{"ha":357,"x_min":15,"x_max":335,"o":"m 142 486 q 210 441 190 474 q 232 363 229 408 l 239 224 q 258 147 242 168 q 313 125 275 125 l 335 125 l 335 0 l 257 0 q 149 39 190 0 q 103 154 108 78 l 92 340 q 74 406 89 389 q 15 424 58 424 l 15 549 q 74 566 58 549 q 92 632 89 583 l 103 818 q 149 933 108 894 q 257 972 190 972 l 335 972 l 335 847 l 313 847 q 258 826 275 847 q 239 749 242 804 l 232 610 q 210 531 229 564 q 142 486 190 499 z "},"}":{"ha":357,"x_min":22,"x_max":342,"o":"m 215 486 q 147 531 167 499 q 125 610 128 564 l 118 749 q 99 826 115 804 q 44 847 82 847 l 22 847 l 22 972 l 100 972 q 208 933 167 972 q 254 818 249 894 l 265 632 q 283 566 268 583 q 342 549 299 549 l 342 424 q 283 406 299 424 q 265 340 268 389 l 254 154 q 208 39 249 78 q 100 0 167 0 l 22 0 l 22 125 l 44 125 q 99 147 82 125 q 118 224 115 168 l 125 363 q 147 441 128 408 q 215 486 167 474 z "},"[":{"ha":349,"x_min":65,"x_max":318,"o":"m 318 972 l 318 847 l 218 847 l 218 125 l 318 125 l 318 0 l 65 0 l 65 972 l 318 972 z "},"]":{"ha":349,"x_min":31,"x_max":283,"o":"m 31 0 l 31 125 l 131 125 l 131 847 l 31 847 l 31 972 l 283 972 l 283 0 l 31 0 z "},"-":{"ha":375,"x_min":49,"x_max":326,"o":"m 326 556 l 326 417 l 49 417 l 49 556 l 326 556 z "},"­":{"ha":375,"x_min":49,"x_max":326,"o":"m 326 556 l 326 417 l 49 417 l 49 556 l 326 556 z "},"–":{"ha":694,"x_min":0,"x_max":694,"o":"m 694 549 l 694 424 l 0 424 l 0 549 l 694 549 z "},"—":{"ha":1389,"x_min":0,"x_max":1389,"o":"m 1389 549 l 1389 424 l 0 424 l 0 549 l 1389 549 z "},"‒":{"ha":550,"x_min":0,"x_max":550,"o":"m 550 549 l 550 424 l 0 424 l 0 549 l 550 549 z "},"_":{"ha":694,"x_min":0,"x_max":694,"o":"m 694 -14 l 694 -125 l 0 -125 l 0 -14 l 694 -14 z "},"‚":{"ha":258,"x_min":56,"x_max":203,"o":"m 56 147 l 203 147 l 203 15 l 136 -139 l 74 -139 l 114 0 l 56 0 l 56 147 z "},"„":{"ha":461,"x_min":56,"x_max":406,"o":"m 56 147 l 203 147 l 203 15 l 136 -139 l 74 -139 l 114 0 l 56 0 l 56 147 m 258 147 l 406 147 l 406 15 l 339 -139 l 276 -139 l 317 0 l 258 0 l 258 147 z "},"“":{"ha":461,"x_min":56,"x_max":406,"o":"m 203 686 l 56 686 l 56 818 l 122 972 l 185 972 l 144 833 l 203 833 l 203 686 m 406 686 l 258 686 l 258 818 l 325 972 l 388 972 l 347 833 l 406 833 l 406 686 z "},"”":{"ha":461,"x_min":56,"x_max":406,"o":"m 56 972 l 203 972 l 203 840 l 136 686 l 74 686 l 114 825 l 56 825 l 56 972 m 258 972 l 406 972 l 406 840 l 339 686 l 276 686 l 317 825 l 258 825 l 258 972 z "},"‘":{"ha":258,"x_min":56,"x_max":203,"o":"m 203 686 l 56 686 l 56 818 l 122 972 l 185 972 l 144 833 l 203 833 l 203 686 z "},"’":{"ha":258,"x_min":56,"x_max":203,"o":"m 56 972 l 203 972 l 203 840 l 136 686 l 74 686 l 114 825 l 56 825 l 56 972 z "},"«":{"ha":493,"x_min":22,"x_max":471,"o":"m 161 488 l 246 108 l 108 108 l 22 488 l 108 844 l 246 844 l 161 488 m 386 488 l 471 108 l 333 108 l 247 488 l 333 844 l 471 844 l 386 488 z "},"»":{"ha":493,"x_min":22,"x_max":471,"o":"m 246 488 l 160 108 l 22 108 l 107 488 l 22 844 l 160 844 l 246 488 m 471 488 l 385 108 l 247 108 l 332 488 l 247 844 l 385 844 l 471 488 z "},"‹":{"ha":272,"x_min":22,"x_max":250,"o":"m 168 488 l 250 96 l 106 96 l 22 488 l 106 857 l 250 857 l 168 488 z "},"›":{"ha":272,"x_min":22,"x_max":250,"o":"m 250 488 l 167 96 l 22 96 l 104 488 l 22 857 l 167 857 l 250 488 z "},"\"":{"ha":451,"x_min":56,"x_max":396,"o":"m 203 972 l 181 686 l 76 686 l 56 972 l 203 972 m 396 972 l 374 686 l 269 686 l 249 972 l 396 972 z "},"'":{"ha":250,"x_min":51,"x_max":199,"o":"m 199 972 l 176 686 l 72 686 l 51 972 l 199 972 z "}," ":{"ha":215,"x_min":0,"x_max":0,"o":""},"€":{"ha":550,"x_min":26,"x_max":513,"o":"m 65 604 l 65 739 q 122 920 65 857 q 289 983 178 983 q 456 920 400 983 q 513 739 513 857 l 513 668 l 368 668 l 368 749 q 349 822 368 800 q 293 844 331 844 q 237 822 256 844 q 218 749 218 800 l 218 604 l 432 604 l 432 528 l 218 528 l 218 451 l 432 451 l 432 375 l 218 375 l 218 224 q 237 151 218 174 q 293 129 256 129 q 349 151 331 129 q 368 224 368 174 l 368 311 l 513 311 l 513 233 q 456 52 513 115 q 289 -11 400 -11 q 122 52 178 -11 q 65 233 65 115 l 65 375 l 26 375 l 26 451 l 65 451 l 65 528 l 26 528 l 26 604 l 65 604 z "},"¢":{"ha":550,"x_min":50,"x_max":506,"o":"m 213 51 q 91 128 132 68 q 50 289 50 189 l 50 683 q 91 842 50 782 q 213 921 132 903 l 213 993 l 338 993 l 338 922 q 463 844 421 906 q 506 683 506 783 l 506 617 l 361 617 l 361 693 q 282 789 361 789 q 203 693 203 789 l 203 279 q 282 185 203 185 q 361 279 361 185 l 361 390 l 506 390 l 506 289 q 463 126 506 188 q 338 50 421 65 l 338 -21 l 213 -21 l 213 51 z "},"¤":{"ha":550,"x_min":44,"x_max":506,"o":"m 121 392 q 96 486 96 433 q 121 579 96 540 l 44 657 l 104 717 l 182 639 q 275 665 224 665 q 368 639 324 665 l 446 717 l 506 657 l 428 579 q 454 486 454 535 q 428 393 454 435 l 506 315 l 446 256 l 368 332 q 275 307 328 307 q 181 332 222 307 l 104 256 l 44 315 l 121 392 m 186 486 q 213 424 186 450 q 275 397 239 397 q 338 424 311 397 q 364 486 364 450 q 338 549 364 522 q 275 575 311 575 q 213 549 239 575 q 186 486 186 522 z "},"$":{"ha":550,"x_min":47,"x_max":503,"o":"m 51 725 q 92 884 51 824 q 213 963 133 944 l 213 1035 l 338 1035 l 338 963 q 460 885 418 946 q 501 725 501 825 l 501 694 l 357 694 l 357 735 q 338 808 357 785 q 281 831 318 831 q 224 808 243 831 q 204 735 204 785 q 222 658 204 692 q 264 598 239 624 q 335 535 289 572 q 422 456 389 492 q 479 369 456 421 q 503 247 503 317 q 460 86 503 147 q 338 8 418 25 l 338 -62 l 213 -62 l 213 8 q 89 86 131 25 q 47 247 47 147 l 47 314 l 192 314 l 192 238 q 271 143 192 143 q 350 238 350 143 q 333 315 350 281 q 290 374 315 349 q 219 438 265 400 q 132 516 165 481 q 75 603 99 551 q 51 725 51 656 z "},"£":{"ha":550,"x_min":42,"x_max":506,"o":"m 154 410 q 119 488 144 438 q 72 606 88 554 q 56 739 56 658 q 113 920 56 857 q 281 983 169 983 q 449 920 392 983 q 506 739 506 857 l 506 643 l 361 643 l 361 749 q 342 822 361 799 q 285 844 322 844 q 228 822 247 844 q 208 749 208 799 q 223 621 208 672 q 265 508 238 569 q 301 410 293 443 l 469 410 l 469 292 l 311 292 q 233 139 301 193 l 496 139 l 496 0 l 42 0 l 42 133 q 135 176 97 133 q 174 292 172 218 l 61 292 l 61 410 l 154 410 z "},"₹":{"ha":550,"x_min":36,"x_max":522,"o":"m 281 763 q 252 833 281 813 q 164 854 224 854 l 36 854 l 36 972 l 514 972 l 514 854 l 397 854 q 432 763 424 815 l 514 763 l 514 644 l 432 644 q 360 491 424 547 q 206 435 296 435 l 199 435 l 522 0 l 358 0 l 36 435 l 36 553 l 164 553 q 252 574 224 553 q 281 644 281 594 l 36 644 l 36 763 l 281 763 z "},"¥":{"ha":550,"x_min":10,"x_max":540,"o":"m 363 376 l 478 376 l 478 300 l 351 300 l 351 238 l 478 238 l 478 161 l 351 161 l 351 0 l 199 0 l 199 161 l 72 161 l 72 238 l 199 238 l 199 300 l 72 300 l 72 376 l 186 376 l 10 972 l 169 972 l 282 543 l 394 972 l 540 972 l 363 376 z "},"+":{"ha":550,"x_min":35,"x_max":515,"o":"m 515 540 l 515 432 l 329 432 l 329 242 l 221 242 l 221 432 l 35 432 l 35 540 l 221 540 l 221 728 l 329 728 l 329 540 l 515 540 z "},"−":{"ha":550,"x_min":35,"x_max":515,"o":"m 515 432 l 35 432 l 35 540 l 515 540 l 515 432 z "},"×":{"ha":550,"x_min":53,"x_max":496,"o":"m 422 707 l 496 633 l 349 486 l 496 339 l 422 265 l 275 413 l 126 265 l 53 339 l 200 486 l 54 632 l 128 706 l 275 560 l 422 707 z "},"÷":{"ha":550,"x_min":35,"x_max":515,"o":"m 349 624 l 201 624 l 201 771 l 349 771 l 349 624 m 515 432 l 35 432 l 35 540 l 515 540 l 515 432 m 349 200 l 201 200 l 201 347 l 349 347 l 349 200 z "},"=":{"ha":550,"x_min":49,"x_max":501,"o":"m 501 544 l 49 544 l 49 653 l 501 653 l 501 544 m 501 319 l 49 319 l 49 428 l 501 428 l 501 319 z "},">":{"ha":550,"x_min":56,"x_max":508,"o":"m 56 375 l 367 486 l 56 597 l 56 707 l 508 540 l 508 432 l 56 265 l 56 375 z "},"<":{"ha":550,"x_min":42,"x_max":494,"o":"m 42 540 l 494 707 l 494 597 l 183 486 l 494 375 l 494 265 l 42 432 l 42 540 z "},"±":{"ha":550,"x_min":49,"x_max":501,"o":"m 501 242 l 49 242 l 49 350 l 221 350 l 221 461 l 49 461 l 49 569 l 221 569 l 221 728 l 329 728 l 329 569 l 501 569 l 501 461 l 329 461 l 329 350 l 501 350 l 501 242 z "},"≈":{"ha":550,"x_min":11,"x_max":539,"o":"m 11 576 q 97 674 58 647 q 176 701 135 701 q 227 690 203 701 q 288 656 251 679 q 338 626 318 636 q 375 617 357 617 q 415 633 397 617 q 467 696 432 649 l 539 621 q 454 526 492 551 q 374 501 417 501 q 323 513 347 501 q 263 547 299 524 q 213 576 232 567 q 175 586 193 586 q 134 570 151 586 q 83 507 117 554 l 11 576 m 11 346 q 97 444 58 417 q 176 471 135 471 q 227 460 203 471 q 288 425 251 449 q 338 396 318 406 q 375 386 357 386 q 415 402 397 386 q 467 465 432 418 l 539 390 q 454 296 492 321 q 374 271 417 271 q 323 282 347 271 q 263 317 299 293 q 213 346 232 336 q 175 356 193 356 q 134 340 151 356 q 83 276 117 324 l 11 346 z "},"~":{"ha":550,"x_min":11,"x_max":539,"o":"m 11 461 q 97 559 58 532 q 176 586 135 586 q 227 575 203 586 q 288 540 251 564 q 338 511 318 521 q 375 501 357 501 q 415 517 397 501 q 467 581 432 533 l 539 506 q 454 411 492 436 q 374 386 417 386 q 323 397 347 386 q 263 432 299 408 q 213 461 232 451 q 175 471 193 471 q 134 455 151 471 q 83 392 117 439 l 11 461 z "},"¬":{"ha":550,"x_min":35,"x_max":515,"o":"m 515 242 l 407 242 l 407 432 l 35 432 l 35 540 l 515 540 l 515 242 z "},"^":{"ha":550,"x_min":28,"x_max":522,"o":"m 329 972 l 522 542 l 400 542 l 275 833 l 150 542 l 28 542 l 221 972 l 329 972 z "},"∞":{"ha":833,"x_min":53,"x_max":792,"o":"m 250 300 q 104 348 156 300 q 53 486 53 396 q 104 624 53 576 q 250 672 156 672 l 264 672 q 364 656 324 672 q 425 601 404 639 q 581 672 463 672 l 597 672 q 741 624 690 672 q 792 486 792 576 q 741 348 792 396 q 597 300 690 300 l 581 300 q 425 371 464 300 q 364 317 404 333 q 264 300 324 300 l 250 300 m 251 568 q 180 546 200 568 q 160 486 160 524 q 180 428 160 449 q 251 406 200 407 l 279 406 q 351 427 328 406 q 374 486 374 449 q 350 546 374 524 q 279 568 326 568 l 251 568 m 564 568 q 492 546 513 568 q 472 486 472 524 q 492 428 472 449 q 564 406 513 407 l 592 406 q 663 427 640 406 q 686 486 686 449 q 663 546 686 524 q 592 568 639 568 l 564 568 z "},"µ":{"ha":550,"x_min":43,"x_max":507,"o":"m 196 224 q 275 128 196 128 q 354 224 354 128 l 354 694 l 507 694 l 507 0 l 368 0 l 368 72 q 312 10 347 32 q 229 -11 276 -11 q 196 -8 215 -11 l 196 -129 l 43 -129 l 43 694 l 196 694 l 196 224 z "},"%":{"ha":871,"x_min":47,"x_max":824,"o":"m 47 824 q 85 939 47 899 q 194 979 122 979 q 304 939 267 979 q 342 824 342 899 l 342 504 q 304 389 342 429 q 194 349 267 349 q 85 389 122 349 q 47 504 47 429 l 47 824 m 668 972 l 285 0 l 194 0 l 578 972 l 668 972 m 144 497 q 194 436 144 436 q 244 497 244 436 l 244 831 q 194 892 244 892 q 144 831 144 892 l 144 497 m 529 468 q 567 583 529 543 q 676 624 604 624 q 786 583 749 624 q 824 468 824 543 l 824 149 q 786 33 824 74 q 676 -7 749 -7 q 567 33 604 -7 q 529 149 529 74 l 529 468 m 626 142 q 676 81 626 81 q 726 142 726 81 l 726 475 q 676 536 726 536 q 626 475 626 536 l 626 142 z "},"‰":{"ha":1226,"x_min":47,"x_max":1179,"o":"m 47 824 q 85 939 47 899 q 194 979 122 979 q 304 939 267 979 q 342 824 342 899 l 342 504 q 304 389 342 429 q 194 349 267 349 q 85 389 122 349 q 47 504 47 429 l 47 824 m 668 972 l 285 0 l 194 0 l 578 972 l 668 972 m 144 497 q 194 436 144 436 q 244 497 244 436 l 244 831 q 194 892 244 892 q 144 831 144 892 l 144 497 m 529 468 q 567 583 529 543 q 676 624 604 624 q 786 583 749 624 q 824 468 824 543 l 824 149 q 786 33 824 74 q 676 -7 749 -7 q 567 33 604 -7 q 529 149 529 74 l 529 468 m 885 468 q 922 583 885 543 q 1032 624 960 624 q 1142 583 1104 624 q 1179 468 1179 543 l 1179 149 q 1142 33 1179 74 q 1032 -7 1104 -7 q 922 33 960 -7 q 885 149 885 74 l 885 468 m 626 142 q 676 81 626 81 q 726 142 726 81 l 726 475 q 676 536 726 536 q 626 475 626 536 l 626 142 m 982 142 q 1032 81 982 81 q 1082 142 1082 81 l 1082 475 q 1032 536 1082 536 q 982 475 982 536 l 982 142 z "},"@":{"ha":957,"x_min":33,"x_max":932,"o":"m 661 176 q 539 268 547 176 q 413 185 499 185 q 310 227 344 185 q 276 351 276 269 q 279 399 276 365 l 294 539 q 347 692 306 639 q 456 744 388 744 q 578 658 549 744 l 586 739 l 719 739 l 678 338 l 678 329 q 706 303 678 303 q 788 399 760 303 q 817 617 817 496 q 749 831 817 753 q 540 910 681 910 q 260 774 357 910 q 164 396 164 638 q 245 128 164 224 q 488 33 326 33 q 638 54 571 33 q 775 128 706 75 l 764 -6 q 631 -66 699 -49 q 479 -83 563 -83 q 143 47 253 -83 q 33 403 33 176 q 91 721 33 579 q 265 945 149 863 q 546 1028 381 1028 q 842 917 751 1028 q 932 619 932 806 q 889 362 932 461 q 784 219 846 263 q 661 176 722 176 m 414 406 q 413 385 413 399 q 476 314 413 314 q 551 401 542 314 l 565 533 q 551 592 569 574 q 501 611 533 611 q 426 524 436 611 l 414 406 z "},"&":{"ha":575,"x_min":57,"x_max":561,"o":"m 57 310 q 163 514 57 467 q 83 585 108 536 q 57 714 57 635 l 57 732 q 114 911 57 850 q 285 972 171 972 l 460 972 l 460 833 l 288 833 q 230 811 250 833 q 210 739 210 789 l 210 679 q 233 600 210 624 q 301 576 256 576 l 368 576 l 368 685 l 521 685 l 521 576 l 561 576 l 561 438 l 521 438 l 521 118 q 524 51 521 76 q 538 0 526 25 l 382 0 q 368 76 371 31 q 226 -11 328 -11 q 100 46 143 -11 q 57 211 57 103 l 57 310 m 210 224 q 289 128 210 128 q 368 213 364 128 l 368 438 l 310 438 q 233 409 257 438 q 210 314 210 381 l 210 224 z "},"¶":{"ha":550,"x_min":19,"x_max":494,"o":"m 383 -90 l 383 861 l 308 861 l 308 -90 l 197 -90 l 200 368 q 67 433 114 368 q 19 606 19 499 l 19 732 q 76 911 19 850 q 247 972 133 972 l 494 972 l 494 -90 l 383 -90 z "},"§":{"ha":550,"x_min":49,"x_max":500,"o":"m 49 436 q 73 535 49 490 q 144 606 97 579 q 74 677 100 635 q 49 786 49 719 q 107 928 49 874 q 274 983 165 983 q 440 932 382 983 q 499 794 499 881 l 499 744 l 354 744 l 354 774 q 334 834 354 811 q 278 857 314 857 q 222 837 242 857 q 201 779 201 817 q 226 729 201 749 q 307 685 251 710 q 406 633 367 658 q 472 561 444 607 q 500 446 500 515 q 475 347 500 392 q 403 275 450 301 q 474 205 449 247 q 500 96 500 163 q 442 -47 500 8 q 275 -101 383 -101 q 108 -50 167 -101 q 50 88 50 1 l 50 157 l 194 157 l 194 108 q 215 48 194 71 q 271 25 235 25 q 327 45 307 25 q 347 103 347 65 q 322 153 347 133 q 242 197 297 172 q 143 249 182 224 q 76 321 104 275 q 49 436 49 367 m 194 442 q 216 379 194 403 q 279 335 238 356 q 333 370 313 340 q 354 440 354 400 q 332 501 354 478 q 268 546 310 525 q 215 511 235 540 q 194 442 194 482 z "},"©":{"ha":1022,"x_min":28,"x_max":994,"o":"m 28 486 q 91 742 28 628 q 265 919 154 856 q 511 983 375 983 q 758 919 647 983 q 931 742 868 856 q 994 486 994 628 q 931 231 994 344 q 758 53 868 117 q 511 -11 647 -11 q 265 53 375 -11 q 91 231 154 117 q 28 486 28 344 m 128 486 q 178 281 128 372 q 315 138 228 189 q 511 86 403 86 q 707 138 619 86 q 844 281 794 189 q 894 486 894 372 q 844 692 894 600 q 707 835 794 783 q 511 886 619 886 q 315 835 403 886 q 178 692 228 783 q 128 486 128 600 m 663 350 q 623 224 663 268 q 506 181 583 181 q 388 224 428 181 q 349 350 349 268 l 349 619 q 388 747 349 703 q 506 792 428 792 q 623 747 583 792 q 663 619 663 703 l 663 569 l 563 569 l 563 628 q 508 694 563 694 q 454 628 454 694 l 454 344 q 508 279 454 279 q 563 344 563 279 l 563 428 l 663 428 l 663 350 z "},"®":{"ha":1022,"x_min":28,"x_max":994,"o":"m 28 486 q 91 742 28 628 q 265 919 154 856 q 511 983 375 983 q 758 919 647 983 q 931 742 868 856 q 994 486 994 628 q 931 231 994 344 q 758 53 868 117 q 511 -11 647 -11 q 265 53 375 -11 q 91 231 154 117 q 28 486 28 344 m 128 486 q 178 281 128 372 q 315 138 228 189 q 511 86 403 86 q 707 138 619 86 q 844 281 794 189 q 894 486 894 372 q 844 692 894 600 q 707 835 794 783 q 511 886 619 886 q 315 835 403 886 q 178 692 228 783 q 128 486 128 600 m 581 189 q 573 219 575 204 q 571 272 571 233 l 571 336 q 554 403 571 383 q 500 422 538 422 l 464 422 l 464 189 l 358 189 l 358 783 l 519 783 q 638 745 600 783 q 676 628 676 707 l 676 615 q 659 528 676 561 q 604 478 642 494 q 660 426 643 461 q 676 335 676 390 l 676 271 q 689 189 676 217 l 581 189 m 464 519 l 507 519 q 554 535 538 519 q 571 590 571 551 l 571 615 q 558 669 571 651 q 514 686 544 686 l 464 686 l 464 519 z "},"℗":{"ha":1022,"x_min":28,"x_max":994,"o":"m 28 486 q 91 742 28 628 q 265 919 154 856 q 511 983 375 983 q 758 919 647 983 q 931 742 868 856 q 994 486 994 628 q 931 231 994 344 q 758 53 868 117 q 511 -11 647 -11 q 265 53 375 -11 q 91 231 154 117 q 28 486 28 344 m 128 486 q 178 281 128 372 q 315 138 228 189 q 511 86 403 86 q 707 138 619 86 q 844 281 794 189 q 894 486 894 372 q 844 692 894 600 q 707 835 794 783 q 511 886 619 886 q 315 835 403 886 q 178 692 228 783 q 128 486 128 600 m 543 771 q 662 733 624 771 q 700 615 700 694 l 700 538 q 662 420 700 458 q 543 382 624 382 l 488 382 l 488 176 l 382 176 l 382 771 l 543 771 m 594 603 q 581 656 594 639 q 538 674 568 674 l 488 674 l 488 479 l 538 479 q 581 497 568 479 q 594 550 594 514 l 594 603 z "},"™":{"ha":814,"x_min":14,"x_max":779,"o":"m 314 972 l 314 883 l 213 883 l 213 478 l 115 478 l 115 883 l 14 883 l 14 972 l 314 972 m 644 972 l 779 972 l 779 478 l 688 478 l 688 829 l 622 478 l 531 478 l 457 826 l 457 478 l 372 478 l 372 972 l 507 972 l 579 625 l 644 972 z "},"°":{"ha":317,"x_min":21,"x_max":296,"o":"m 21 846 q 61 943 21 903 q 158 983 101 983 q 256 943 215 983 q 296 846 296 903 q 256 749 296 789 q 158 708 215 708 q 61 749 101 708 q 21 846 21 789 m 90 846 q 110 798 90 818 q 158 778 131 778 q 206 798 186 778 q 226 846 226 818 q 206 894 226 874 q 158 914 186 914 q 110 894 131 914 q 90 846 90 874 z "},"|":{"ha":694,"x_min":292,"x_max":417,"o":"m 417 1063 l 417 -90 l 292 -90 l 292 1063 l 417 1063 z "},"¦":{"ha":694,"x_min":292,"x_max":417,"o":"m 417 1063 l 417 569 l 292 569 l 292 1063 l 417 1063 m 417 403 l 417 -90 l 292 -90 l 292 403 l 417 403 z "},"†":{"ha":550,"x_min":35,"x_max":515,"o":"m 213 729 l 213 972 l 338 972 l 338 729 l 515 729 l 515 611 l 338 611 l 338 -90 l 213 -90 l 213 611 l 35 611 l 35 729 l 213 729 z "},"‡":{"ha":550,"x_min":35,"x_max":515,"o":"m 213 729 l 213 972 l 338 972 l 338 729 l 515 729 l 515 611 l 338 611 l 338 271 l 515 271 l 515 153 l 338 153 l 338 -90 l 213 -90 l 213 153 l 35 153 l 35 271 l 213 271 l 213 611 l 35 611 l 35 729 l 213 729 z "},"ʼ":{"ha":258,"x_min":56,"x_max":203,"o":"m 56 972 l 203 972 l 203 840 l 136 686 l 74 686 l 114 825 l 56 825 l 56 972 z "},"":{"ha":0,"x_min":0,"x_max":0,"o":""},"´":{"ha":347,"x_min":38,"x_max":282,"o":"m 140 1024 l 38 1024 l 132 1178 l 282 1178 l 140 1024 z "},"˘":{"ha":347,"x_min":18,"x_max":329,"o":"m 329 1178 q 289 1060 329 1103 q 172 1018 249 1018 q 58 1060 96 1018 q 18 1178 19 1103 l 108 1178 q 126 1126 111 1140 q 172 1113 142 1113 q 220 1126 204 1113 q 239 1178 236 1140 l 329 1178 z "},"ˇ":{"ha":347,"x_min":-18,"x_max":367,"o":"m 174 1100 l 236 1178 l 367 1178 l 243 1024 l 106 1024 l -18 1178 l 113 1178 l 174 1100 z "},"¸":{"ha":347,"x_min":36,"x_max":310,"o":"m 139 -110 l 139 -121 q 148 -142 139 -135 q 169 -149 157 -149 q 204 -115 204 -149 q 192 -87 204 -96 q 154 -79 179 -79 l 140 -79 l 140 19 l 207 19 l 207 -54 q 285 -69 260 -54 q 310 -119 310 -83 q 275 -187 310 -171 q 169 -204 240 -204 q 71 -186 106 -204 q 36 -124 36 -168 l 36 -110 l 139 -110 z "},"ˆ":{"ha":347,"x_min":-18,"x_max":367,"o":"m 106 1178 l 243 1178 l 367 1024 l 236 1024 l 174 1100 l 113 1024 l -18 1024 l 106 1178 z "},"¨":{"ha":347,"x_min":1,"x_max":346,"o":"m 135 1024 l 1 1024 l 1 1157 l 135 1157 l 135 1024 m 346 1024 l 213 1024 l 213 1157 l 346 1157 l 346 1024 z "},"˙":{"ha":347,"x_min":107,"x_max":240,"o":"m 240 1024 l 107 1024 l 107 1157 l 240 1157 l 240 1024 z "},"`":{"ha":347,"x_min":61,"x_max":313,"o":"m 313 1024 l 203 1024 l 61 1178 l 218 1178 l 313 1024 z "},"˝":{"ha":347,"x_min":-35,"x_max":356,"o":"m 58 1024 l -35 1024 l 35 1178 l 174 1178 l 58 1024 m 239 1024 l 147 1024 l 215 1178 l 356 1178 l 239 1024 z "},"¯":{"ha":347,"x_min":14,"x_max":333,"o":"m 333 1029 l 14 1029 l 14 1138 l 333 1138 l 333 1029 z "},"˛":{"ha":347,"x_min":65,"x_max":281,"o":"m 231 6 q 182 -81 182 -32 q 196 -109 182 -99 q 231 -119 210 -119 q 265 -116 253 -119 q 281 -111 276 -112 l 281 -189 q 237 -201 257 -199 q 186 -204 217 -204 q 97 -182 129 -204 q 65 -118 65 -160 q 171 6 65 -44 l 231 6 z "},"˚":{"ha":347,"x_min":63,"x_max":285,"o":"m 63 1131 q 94 1210 63 1178 q 174 1242 126 1242 q 253 1210 221 1242 q 285 1131 285 1178 q 253 1051 285 1083 q 174 1019 221 1019 q 94 1051 126 1019 q 63 1131 63 1083 m 132 1131 q 144 1101 132 1113 q 174 1089 156 1089 q 203 1101 192 1089 q 215 1131 215 1113 q 203 1160 215 1149 q 174 1172 192 1172 q 144 1160 156 1172 q 132 1131 132 1149 z "},"˜":{"ha":347,"x_min":-14,"x_max":363,"o":"m 229 1129 q 264 1138 250 1129 q 289 1169 278 1146 l 363 1118 q 244 1024 328 1024 q 208 1028 224 1024 q 171 1043 192 1033 q 119 1058 140 1058 q 85 1050 99 1058 q 60 1018 71 1042 l -14 1069 q 104 1164 21 1164 q 141 1159 125 1164 q 178 1144 157 1154 q 229 1129 208 1129 z "}}}
